<?xml version="1.0" encoding="UTF-8" standalone="no"?>
<!-- Created with Inkscape (http://www.inkscape.org/) -->

<svg
   xmlns:dc="http://purl.org/dc/elements/1.1/"
   xmlns:cc="http://creativecommons.org/ns#"
   xmlns:rdf="http://www.w3.org/1999/02/22-rdf-syntax-ns#"
   xmlns:svg="http://www.w3.org/2000/svg"
   xmlns="http://www.w3.org/2000/svg"
   xmlns:sodipodi="http://sodipodi.sourceforge.net/DTD/sodipodi-0.dtd"
   xmlns:inkscape="http://www.inkscape.org/namespaces/inkscape"
   width="125.83012mm"
   height="106.57854mm"
   viewBox="0 0 125.83012 106.57854"
   version="1.1"
   id="svg887"
   inkscape:version="0.92.5 (2060ec1f9f, 2020-04-08)"
   sodipodi:docname="table.svg">
  <defs
     id="defs881" />
  <sodipodi:namedview
     id="base"
     pagecolor="#ffffff"
     bordercolor="#666666"
     borderopacity="1.0"
     inkscape:pageopacity="0.0"
     inkscape:pageshadow="2"
     inkscape:zoom="1.4"
     inkscape:cx="329.68843"
     inkscape:cy="119.14227"
     inkscape:document-units="mm"
     inkscape:current-layer="layer1"
     showgrid="false"
     inkscape:window-width="1920"
     inkscape:window-height="1043"
     inkscape:window-x="0"
     inkscape:window-y="0"
     inkscape:window-maximized="1" />
  <metadata
     id="metadata884">
    <rdf:RDF>
      <cc:Work
         rdf:about="">
        <dc:format>image/svg+xml</dc:format>
        <dc:type
           rdf:resource="http://purl.org/dc/dcmitype/StillImage" />
        <dc:title></dc:title>
      </cc:Work>
    </rdf:RDF>
  </metadata>
  <g
     inkscape:label="Layer 1"
     inkscape:groupmode="layer"
     id="layer1"
     transform="translate(-37.430953,-26.265759)">
    <rect
       style="fill:#ffffff;fill-opacity:1;stroke-width:0.26458332"
       id="rect2362"
       width="145.52083"
       height="122.0863"
       x="30.060417"
       y="20.396381" />
    <g
       id="g2328"
       transform="matrix(0.65803848,0,0,0.65803848,-18.041691,-30.316338)"
       style="stroke-width:1.51966798">
      <g
         word-spacing="normal"
         letter-spacing="normal"
         font-size-adjust="none"
         font-stretch="normal"
         font-weight="normal"
         font-variant="normal"
         font-style="normal"
         stroke-miterlimit="10.433"
         xml:space="preserve"
         transform="matrix(0.3,0,0,-0.3,-52.5,222.75)"
         id="content"
         style="font-style:normal;font-variant:normal;font-weight:normal;font-stretch:normal;letter-spacing:normal;word-spacing:normal;text-anchor:start;fill:none;fill-opacity:1;fill-rule:evenodd;stroke:#000000;stroke-width:1.51966798;stroke-linecap:butt;stroke-linejoin:miter;stroke-miterlimit:10.43299961;stroke-dasharray:none;stroke-dashoffset:0;stroke-opacity:1"><path
           id="path2271"
           d="m 493.32,418.01 -0.05,-0.18 -0.04,-0.17 -0.04,-0.16 -0.05,-0.15 -0.04,-0.14 -0.05,-0.14 -0.04,-0.13 -0.06,-0.12 -0.05,-0.11 -0.06,-0.11 -0.06,-0.1 -0.08,-0.09 -0.07,-0.08 -0.09,-0.08 -0.09,-0.08 -0.11,-0.06 -0.11,-0.06 -0.12,-0.06 -0.14,-0.05 -0.15,-0.05 -0.16,-0.04 -0.09,-0.01 -0.09,-0.02 -0.09,-0.02 -0.1,-0.01 -0.1,-0.02 -0.1,-0.01 -0.11,-0.01 -0.11,-0.01 -0.12,-0.01 -0.12,-0.01 -0.13,-0.01 -0.13,-0.01 -0.14,-0.01 h -0.14 l -0.14,-0.01 h -0.15 -0.16 l -0.16,-0.01 h -0.16 -0.17 -0.18 -0.18 c -0.84,0 -1.39,0 -1.39,-0.96 0,-0.59 0.44,-0.59 1.39,-0.59 h 16.48 l -0.89,1.55 h -5.62 c -0.71,0 -0.8,0 -1.11,0.04 -0.49,0.05 -0.64,0.1 -0.64,0.5 0,0.15 0,0.25 0.25,1.15 l 6.83,27.35 c 0.43,1.74 0.54,1.9 2.68,1.9 h 5.33 c 4.89,0 9.02,-2.65 9.02,-9.22 0,-2.44 -1,-10.61 -5.24,-16.1 -1.43,-1.84 -5.37,-5.62 -11.5,-5.62 l 0.89,-1.55 c 10.36,0 20.19,10.52 20.19,21.42 0,7.03 -4.23,12.61 -11.72,12.61 h -16.73 c -0.96,0 -1.5,0 -1.5,-0.95 0,-0.59 0.45,-0.59 1.45,-0.59 0.64,0 1.55,-0.05 2.14,-0.1 0.8,-0.11 1.1,-0.25 1.1,-0.8 0,-0.2 -0.05,-0.35 -0.21,-0.95 z"
           inkscape:connector-curvature="0"
           style="fill:#000000;stroke-width:0" /><path
           id="path2273"
           d="m 537.98,428.46 v 0.05 l -0.01,0.06 v 0.05 l -0.01,0.06 -0.01,0.05 -0.02,0.06 -0.02,0.05 -0.01,0.06 -0.03,0.06 -0.02,0.05 -0.03,0.06 -0.03,0.05 -0.03,0.06 -0.04,0.05 -0.04,0.05 -0.04,0.05 -0.04,0.05 -0.05,0.05 -0.05,0.04 -0.05,0.04 -0.06,0.04 -0.06,0.04 -0.06,0.04 -0.06,0.03 -0.07,0.03 -0.07,0.02 -0.08,0.03 -0.08,0.01 -0.08,0.02 -0.08,0.01 -0.09,0.01 h -0.09 c -0.94,0 -1.95,-0.91 -1.95,-1.92 0,-0.6 0.45,-1.33 1.4,-1.33 1,0 1.96,0.98 1.96,1.92 z"
           inkscape:connector-curvature="0"
           style="fill:#000000;stroke-width:0" /><path
           id="path2275"
           d="m 530.87,410.76 -0.06,-0.17 -0.05,-0.17 -0.03,-0.08 -0.02,-0.09 -0.03,-0.09 -0.02,-0.08 -0.02,-0.09 -0.02,-0.09 -0.02,-0.1 -0.02,-0.09 -0.01,-0.1 v -0.05 l -0.01,-0.06 v -0.05 -0.05 -0.06 l -0.01,-0.05 c 0,-1.64 1.4,-2.95 3.3,-2.95 3.49,0 5.03,4.79 5.03,5.32 0,0.46 -0.45,0.46 -0.56,0.46 -0.48,0 -0.53,-0.21 -0.67,-0.6 -0.8,-2.78 -2.33,-4.22 -3.69,-4.22 -0.7,0 -0.87,0.46 -0.87,1.22 0,0.8 0.25,1.47 0.56,2.24 0.34,0.94 0.73,1.87 1.11,2.78 0.31,0.84 1.58,4.01 1.72,4.44 0.09,0.34 0.2,0.76 0.2,1.11 0,1.64 -1.39,2.95 -3.31,2.95 -3.46,0 -5.05,-4.74 -5.05,-5.33 0,-0.45 0.48,-0.45 0.59,-0.45 0.49,0 0.52,0.17 0.63,0.56 0.91,3 2.44,4.25 3.72,4.25 0.56,0 0.87,-0.28 0.87,-1.22 0,-0.8 -0.2,-1.33 -1.08,-3.48 z"
           inkscape:connector-curvature="0"
           style="fill:#000000;stroke-width:0" /><path
           id="path2277"
           d="m 548.08,407.24 -0.01,-0.36 -0.01,-0.37 -0.03,-0.38 -0.04,-0.38 -0.03,-0.2 -0.04,-0.19 -0.04,-0.2 -0.04,-0.19 -0.05,-0.2 -0.06,-0.2 -0.06,-0.2 -0.07,-0.2 -0.07,-0.21 -0.09,-0.2 -0.09,-0.2 -0.09,-0.21 -0.11,-0.2 -0.11,-0.21 -0.13,-0.2 -0.13,-0.21 -0.14,-0.21 -0.15,-0.21 -0.17,-0.2 -0.17,-0.21 -0.18,-0.21 -0.19,-0.21 -0.21,-0.2 -0.21,-0.21 c -0.14,-0.14 -0.25,-0.25 -0.25,-0.42 0,-0.25 0.28,-0.49 0.48,-0.49 0.49,0 3.46,2.78 3.46,6.92 0,2.17 -0.85,3.8 -2.44,3.8 -1.16,0 -1.99,-0.91 -1.99,-1.98 0,-1.11 0.8,-2.02 2.02,-2.02 0.84,0 1.39,0.56 1.44,0.56 z"
           inkscape:connector-curvature="0"
           style="fill:#000000;stroke-width:0" /><path
           id="path2279"
           d="m 567.9,428.46 -0.01,0.06 v 0.05 l -0.01,0.06 -0.01,0.06 -0.01,0.06 -0.01,0.05 -0.02,0.06 -0.02,0.06 -0.02,0.06 -0.03,0.05 -0.03,0.06 -0.03,0.05 -0.03,0.06 -0.04,0.05 -0.04,0.05 -0.04,0.05 -0.04,0.05 -0.05,0.04 -0.05,0.04 -0.05,0.05 -0.06,0.03 -0.06,0.04 -0.06,0.03 -0.06,0.04 -0.07,0.02 -0.07,0.03 -0.07,0.02 -0.08,0.02 -0.08,0.01 -0.08,0.01 -0.08,0.01 h -0.09 c -1.01,0 -1.95,-0.99 -1.95,-1.92 0,-0.57 0.42,-1.33 1.39,-1.33 0.94,0 1.96,0.91 1.96,1.92 z"
           inkscape:connector-curvature="0"
           style="fill:#000000;stroke-width:0" /><path
           id="path2281"
           d="m 560.5,404.98 -0.06,-0.23 -0.06,-0.22 -0.08,-0.22 -0.08,-0.21 -0.08,-0.22 -0.1,-0.2 -0.09,-0.21 -0.11,-0.2 -0.11,-0.19 -0.12,-0.2 -0.12,-0.18 -0.13,-0.18 -0.13,-0.17 -0.14,-0.17 -0.14,-0.16 -0.14,-0.16 -0.15,-0.14 -0.16,-0.14 -0.16,-0.14 -0.16,-0.12 -0.16,-0.12 -0.17,-0.1 -0.17,-0.1 -0.18,-0.09 -0.18,-0.08 -0.18,-0.07 -0.18,-0.06 -0.18,-0.05 -0.19,-0.04 -0.19,-0.03 -0.19,-0.02 -0.19,-0.01 c -0.45,0 -0.87,0.07 -1.27,0.21 0.91,0.42 1.19,1.25 1.19,1.78 0,0.83 -0.66,1.28 -1.36,1.28 -1.08,0 -1.98,-0.94 -1.98,-2.05 0,-1.32 1.36,-2.2 3.45,-2.2 2.1,0 6.16,1.25 7.25,5.5 l 3.13,12.48 c 0.1,0.38 0.17,0.69 0.17,1.22 0,1.91 -1.63,3.27 -3.72,3.27 -3.88,0 -6.1,-4.84 -6.1,-5.33 0,-0.45 0.49,-0.45 0.6,-0.45 0.4,0 0.45,0.11 0.69,0.62 0.87,2.03 2.68,4.19 4.7,4.19 0.88,0 1.19,-0.59 1.19,-1.7 0,-0.39 -0.06,-0.88 -0.11,-1.05 z"
           inkscape:connector-curvature="0"
           style="fill:#000000;stroke-width:0" /><polyline
           id="polyline2283"
           points="603,396 605.04,396 605.04,455.88 603,455.88 "
           style="fill:#000000;fill-rule:nonzero;stroke-width:0" /><path
           id="path2285"
           d="m 707.92,441.53 h 6.58 v -2.64 c 0,-0.96 0,-2.05 1.68,-2.05 1.75,0 1.75,1.05 1.75,2.05 v 3.62 c 0,1.55 -0.29,2.05 -2,2.05 h -19.46 c -1.66,0 -2.05,-0.39 -2.05,-2.05 v -3.62 c 0,-0.96 0,-2.05 1.68,-2.05 1.75,0 1.75,1.05 1.75,2.05 v 2.64 h 6.63 v -24.36 h -2.59 c -0.75,0 -1.99,0 -1.99,-1.5 0,-1.55 1.19,-1.55 1.99,-1.55 h 8.62 c 0.75,0 1.99,0 1.99,1.5 0,1.55 -1.19,1.55 -1.99,1.55 h -2.59 z"
           inkscape:connector-curvature="0"
           style="fill:#000000;stroke-width:0" /><path
           id="path2287"
           d="m 803.15,443.07 -0.01,0.08 v 0.08 0.08 0.08 0.17 l -0.01,0.08 -0.01,0.09 -0.01,0.08 -0.01,0.09 -0.02,0.08 -0.01,0.09 -0.02,0.08 -0.03,0.08 -0.03,0.08 -0.03,0.08 -0.04,0.07 -0.04,0.08 -0.05,0.07 -0.05,0.06 -0.05,0.07 -0.07,0.05 -0.03,0.03 -0.04,0.03 -0.03,0.03 -0.04,0.02 -0.04,0.02 -0.04,0.03 -0.05,0.02 -0.04,0.02 -0.05,0.01 -0.05,0.02 -0.05,0.02 -0.05,0.01 -0.05,0.01 -0.06,0.01 -0.06,0.01 -0.06,0.01 -0.06,0.01 h -0.07 -0.06 l -0.07,0.01 c -0.91,0 -1.16,-0.5 -1.41,-0.85 -0.09,-0.2 -0.09,-0.3 -0.73,-1.55 -1.66,1.41 -3.94,2.4 -6.49,2.4 -6.42,0 -12,-6.68 -12,-15.74 0,-9.12 5.58,-15.8 12.05,-15.8 5.78,0 10.07,4.44 10.07,8.93 0,1.64 -1.19,1.64 -1.74,1.64 -0.45,0 -1.59,0 -1.7,-1.46 -0.35,-4.87 -4.38,-6.07 -6.43,-6.07 -4.53,0 -8.81,5.28 -8.81,12.76 0,7.42 4.33,12.7 8.77,12.7 2.98,0 5.72,-2.29 6.42,-6.32 0.16,-0.85 0.25,-1.64 1.75,-1.64 1.74,0 1.74,1.04 1.74,2.03 z"
           inkscape:connector-curvature="0"
           style="fill:#000000;stroke-width:0" /><path
           id="path2289"
           d="m 889.06,443.07 v 0.08 0.08 0.08 0.08 l -0.01,0.17 v 0.08 l -0.01,0.09 -0.01,0.08 -0.01,0.09 -0.02,0.08 -0.02,0.09 -0.02,0.08 -0.02,0.08 -0.03,0.08 -0.03,0.08 -0.04,0.07 -0.04,0.08 -0.05,0.07 -0.05,0.06 -0.06,0.07 -0.06,0.05 -0.03,0.03 -0.04,0.03 -0.04,0.03 -0.03,0.02 -0.04,0.02 -0.05,0.03 -0.04,0.02 -0.04,0.02 -0.05,0.01 -0.05,0.02 -0.05,0.02 -0.05,0.01 -0.06,0.01 -0.05,0.01 -0.06,0.01 -0.06,0.01 -0.06,0.01 h -0.07 -0.06 l -0.07,0.01 c -0.91,0 -1.16,-0.5 -1.41,-0.85 -0.09,-0.2 -0.09,-0.3 -0.73,-1.55 -1.66,1.41 -3.94,2.4 -6.49,2.4 -6.42,0 -12,-6.68 -12,-15.74 0,-9.12 5.58,-15.8 12.05,-15.8 5.78,0 10.06,4.44 10.06,8.93 0,1.64 -1.18,1.64 -1.73,1.64 -0.45,0 -1.6,0 -1.71,-1.46 -0.34,-4.87 -4.37,-6.07 -6.42,-6.07 -4.53,0 -8.81,5.28 -8.81,12.76 0,7.42 4.33,12.7 8.77,12.7 2.98,0 5.72,-2.29 6.42,-6.32 0.15,-0.85 0.25,-1.64 1.75,-1.64 1.73,0 1.73,1.04 1.73,2.03 z"
           inkscape:connector-curvature="0"
           style="fill:#000000;stroke-width:0" /><path
           id="path2291"
           d="m 973.24,424.53 h 0.22 0.22 0.11 l 0.11,0.01 h 0.11 l 0.1,0.01 0.1,0.01 0.1,0.01 0.1,0.02 0.1,0.02 0.09,0.02 0.09,0.03 0.09,0.03 0.08,0.03 0.08,0.04 0.08,0.04 0.07,0.05 0.07,0.05 0.06,0.06 0.06,0.07 0.06,0.07 0.02,0.04 0.03,0.04 0.02,0.04 0.02,0.04 0.02,0.05 0.02,0.05 0.02,0.05 0.02,0.05 0.01,0.05 0.01,0.05 0.02,0.06 0.01,0.06 0.01,0.06 v 0.06 l 0.01,0.07 v 0.06 l 0.01,0.07 v 0.07 c 0,1.5 -1.3,1.5 -2.05,1.5 h -5.94 c -0.73,0 -1.98,0 -1.98,-1.5 0,-1.54 1.18,-1.54 1.98,-1.54 h 2.1 c -0.6,-5.58 -3.04,-7.92 -5.68,-7.92 -4.03,0 -7.82,5.39 -7.82,12.71 0,7.61 3.98,12.75 7.87,12.75 1.75,0 4.88,-1.15 5.73,-6.53 0.1,-0.84 0.4,-1.43 1.69,-1.43 1.75,0 1.75,1.04 1.75,2.03 v 6.93 c 0,0.8 0,2.04 -1.5,2.04 -1.04,0 -1.29,-0.55 -2.04,-2.24 -1.74,1.49 -3.74,2.24 -5.83,2.24 -5.97,0 -11.11,-6.72 -11.11,-15.74 0,-9.17 5.19,-15.8 11.11,-15.8 2.84,0 4.93,1.5 5.93,2.64 0,-1.09 0,-2.09 1.74,-2.09 1.7,0 1.7,1.09 1.7,2.05 z"
           inkscape:connector-curvature="0"
           style="fill:#000000;stroke-width:0" /><path
           id="path2293"
           d="m 1052.7,443.21 -0.1,0.09 v 0.09 0.08 0.08 l -0.1,0.08 v 0.07 0.14 l -0.1,0.13 v 0.13 l -0.1,0.11 v 0.11 l -0.1,0.09 -0.1,0.09 v 0.08 l -0.1,0.08 -0.1,0.07 v 0.06 l -0.1,0.05 -0.1,0.05 -0.1,0.05 -0.1,0.03 v 0.04 l -0.1,0.03 -0.1,0.02 -0.1,0.02 -0.1,0.02 -0.1,0.02 -0.1,0.01 -0.2,0.01 h -0.1 l -0.1,0.01 h -0.1 -0.2 -0.1 -0.2 c -1.4,0 -2.2,0 -2.6,-1.89 l -6.1,-26.09 c -0.6,0 -1.8,0 -2.1,-0.11 -0.5,-0.3 -0.9,-0.8 -0.9,-1.44 0,-1.5 1.4,-1.5 2.2,-1.5 h 5.1 c 0.9,0 2.1,0 2.1,1.5 0,1.55 -1,1.55 -2.8,1.55 l 1.1,5.17 0.8,3.05 3.2,15.73 h 0.1 l 3.2,-15.73 h -6.5 l -0.8,-3.05 h 8.1 l 1.1,-5.17 c -1.8,0 -2.8,0 -2.8,-1.55 0,-1.5 1.3,-1.5 2.1,-1.5 h 5.1 c 0.9,0 2.2,0 2.2,1.5 0,0.64 -0.3,1.14 -0.9,1.39 -0.3,0.16 -1.4,0.16 -2.1,0.16 z"
           inkscape:connector-curvature="0"
           style="fill:#000000;stroke-width:0" /><polyline
           id="polyline2295"
           points="456,394 1093.4,394 1093.4,396.04 456,396.04 "
           style="fill:#000000;fill-rule:nonzero;stroke-width:0" /><polyline
           id="polyline2297"
           points="603,334 605.04,334 605.04,393.88 603,393.88 "
           style="fill:#000000;fill-rule:nonzero;stroke-width:0" /><path
           id="path2299"
           d="m 562.24,319.96 h 6.58 v -2.64 c 0,-0.95 0,-2.04 1.68,-2.04 1.75,0 1.75,1.04 1.75,2.04 v 3.63 c 0,1.55 -0.29,2.05 -2,2.05 h -19.47 c -1.65,0 -2.04,-0.39 -2.04,-2.05 v -3.63 c 0,-0.95 0,-2.04 1.69,-2.04 1.75,0 1.75,1.04 1.75,2.04 v 2.64 h 6.62 v -24.35 h -2.59 c -0.75,0 -1.99,0 -1.99,-1.5 0,-1.55 1.19,-1.55 1.99,-1.55 h 8.62 c 0.75,0 1.99,0 1.99,1.5 0,1.55 -1.19,1.55 -1.99,1.55 h -2.59 z"
           inkscape:connector-curvature="0"
           style="fill:#000000;stroke-width:0" /><polyline
           id="polyline2301"
           points="603,275 605.04,275 605.04,334.88 603,334.88 "
           style="fill:#000000;fill-rule:nonzero;stroke-width:0" /><path
           id="path2303"
           d="m 563.19,261.89 -0.02,0.09 -0.02,0.09 -0.02,0.08 -0.03,0.08 -0.02,0.08 -0.02,0.07 -0.05,0.14 -0.05,0.13 -0.05,0.13 -0.06,0.11 -0.05,0.1 -0.06,0.1 -0.07,0.09 -0.06,0.08 -0.07,0.08 -0.06,0.07 -0.08,0.06 -0.07,0.05 -0.08,0.05 -0.08,0.05 -0.09,0.03 -0.08,0.04 -0.1,0.03 -0.09,0.02 -0.1,0.02 -0.1,0.02 -0.11,0.02 -0.11,0.01 -0.12,0.01 h -0.12 l -0.12,0.01 h -0.13 -0.13 -0.14 -0.14 c -1.44,0 -2.24,0 -2.69,-1.89 l -6.03,-26.09 c -0.69,0 -1.84,0 -2.14,-0.11 -0.55,-0.3 -0.85,-0.8 -0.85,-1.44 0,-1.5 1.3,-1.5 2.15,-1.5 H 556 c 0.91,0 2.1,0 2.1,1.5 0,1.55 -0.99,1.55 -2.78,1.55 l 1.14,5.17 0.75,3.05 3.28,15.73 h 0.06 l 3.23,-15.73 h -6.57 l -0.75,-3.05 h 8.07 l 1.15,-5.17 c -1.8,0 -2.8,0 -2.8,-1.55 0,-1.5 1.2,-1.5 2.09,-1.5 h 5.1 c 0.84,0 2.14,0 2.14,1.5 0,0.64 -0.25,1.14 -0.85,1.39 -0.31,0.16 -1.4,0.16 -2.15,0.16 z"
           inkscape:connector-curvature="0"
           style="fill:#000000;stroke-width:0" /><polyline
           id="polyline2305"
           points="603,215 605.04,215 605.04,274.88 603,274.88 "
           style="fill:#000000;fill-rule:nonzero;stroke-width:0" /><path
           id="path2307"
           d="m 571.55,201.99 v 0.08 0.08 0.08 0.08 l -0.01,0.17 v 0.08 l -0.01,0.09 -0.01,0.08 -0.01,0.09 -0.02,0.08 -0.02,0.08 -0.02,0.09 -0.02,0.08 -0.03,0.08 -0.03,0.08 -0.04,0.07 -0.04,0.07 -0.05,0.07 -0.05,0.07 -0.06,0.06 -0.06,0.06 -0.04,0.03 -0.03,0.03 -0.04,0.02 -0.04,0.03 -0.04,0.02 -0.04,0.02 -0.04,0.02 -0.05,0.02 -0.04,0.02 -0.05,0.02 -0.05,0.01 -0.05,0.02 -0.06,0.01 -0.05,0.01 -0.06,0.01 -0.06,0.01 -0.06,0.01 h -0.07 -0.07 -0.06 c -0.91,0 -1.16,-0.5 -1.41,-0.84 -0.09,-0.2 -0.09,-0.3 -0.73,-1.55 -1.66,1.41 -3.94,2.39 -6.49,2.39 -6.42,0 -12,-6.67 -12,-15.73 0,-9.13 5.58,-15.8 12.05,-15.8 5.78,0 10.06,4.44 10.06,8.92 0,1.64 -1.19,1.64 -1.73,1.64 -0.46,0 -1.6,0 -1.71,-1.45 -0.34,-4.87 -4.37,-6.08 -6.42,-6.08 -4.53,0 -8.81,5.28 -8.81,12.77 0,7.42 4.33,12.7 8.77,12.7 2.98,0 5.71,-2.29 6.42,-6.33 0.15,-0.84 0.25,-1.64 1.75,-1.64 1.73,0 1.73,1.05 1.73,2.03 z"
           inkscape:connector-curvature="0"
           style="fill:#000000;stroke-width:0" /><polyline
           id="polyline2309"
           points="603,155 605.04,155 605.04,214.88 603,214.88 "
           style="fill:#000000;fill-rule:nonzero;stroke-width:0" /><path
           id="path2311"
           d="m 569.82,123.69 h 0.22 0.22 0.11 l 0.1,0.01 h 0.11 l 0.1,0.01 0.11,0.01 0.1,0.02 0.09,0.01 0.1,0.02 0.09,0.02 0.09,0.03 0.09,0.03 0.08,0.03 0.08,0.04 0.08,0.04 0.07,0.05 0.07,0.06 0.07,0.05 0.06,0.07 0.05,0.07 0.03,0.04 0.02,0.04 0.02,0.04 0.03,0.05 0.02,0.04 0.02,0.05 0.01,0.05 0.02,0.05 0.01,0.05 0.02,0.05 0.01,0.06 0.01,0.06 0.01,0.06 0.01,0.06 v 0.07 l 0.01,0.06 v 0.07 0.07 c 0,1.5 -1.3,1.5 -2.05,1.5 h -5.93 c -0.74,0 -1.99,0 -1.99,-1.5 0,-1.54 1.19,-1.54 1.99,-1.54 h 2.09 c -0.59,-5.58 -3.03,-7.92 -5.67,-7.92 -4.03,0 -7.83,5.39 -7.83,12.71 0,7.61 3.98,12.75 7.88,12.75 1.75,0 4.87,-1.15 5.73,-6.53 0.09,-0.84 0.39,-1.43 1.69,-1.43 1.75,0 1.75,1.04 1.75,2.03 v 6.93 c 0,0.8 0,2.04 -1.5,2.04 -1.05,0 -1.3,-0.55 -2.05,-2.24 -1.74,1.49 -3.74,2.24 -5.83,2.24 -5.97,0 -11.11,-6.72 -11.11,-15.74 0,-9.17 5.19,-15.8 11.11,-15.8 2.84,0 4.94,1.5 5.94,2.65 0,-1.1 0,-2.1 1.73,-2.1 1.71,0 1.71,1.1 1.71,2.05 z"
           inkscape:connector-curvature="0"
           style="fill:#000000;stroke-width:0" /><polyline
           id="polyline2313"
           points="603,95 605.04,95 605.04,154.88 603,154.88 "
           style="fill:#000000;fill-rule:nonzero;stroke-width:0" /><path
           id="path2315"
           d="m 571.55,82.473 v 0.076 0.078 0.08 0.082 l -0.01,0.167 v 0.085 l -0.01,0.085 -0.01,0.086 -0.01,0.085 -0.02,0.085 -0.02,0.084 -0.02,0.082 -0.02,0.082 -0.03,0.079 -0.03,0.078 -0.04,0.075 -0.04,0.073 -0.05,0.07 -0.05,0.066 -0.06,0.063 -0.06,0.059 -0.04,0.028 -0.03,0.027 -0.04,0.026 -0.04,0.025 -0.04,0.023 -0.04,0.022 -0.04,0.021 -0.05,0.02 -0.04,0.018 -0.05,0.017 -0.05,0.015 -0.05,0.014 -0.06,0.013 -0.05,0.011 -0.06,0.009 -0.06,0.008 -0.06,0.006 -0.07,0.004 -0.07,0.003 -0.06,0.001 c -0.91,0 -1.16,-0.5 -1.41,-0.844 -0.09,-0.203 -0.09,-0.297 -0.73,-1.547 -1.66,1.407 -3.94,2.391 -6.49,2.391 -6.42,0 -12,-6.672 -12,-15.734 0,-9.125 5.58,-15.797 12.05,-15.797 5.78,0 10.06,4.437 10.06,8.922 0,1.64 -1.19,1.64 -1.73,1.64 -0.46,0 -1.6,0 -1.71,-1.453 -0.34,-4.875 -4.37,-6.078 -6.42,-6.078 -4.53,0 -8.81,5.281 -8.81,12.766 0,7.421 4.33,12.703 8.77,12.703 2.98,0 5.71,-2.297 6.42,-6.328 0.15,-0.844 0.25,-1.641 1.75,-1.641 1.73,0 1.73,1.047 1.73,2.031 z"
           inkscape:connector-curvature="0"
           style="fill:#000000;stroke-width:0" /><polyline
           id="polyline2317"
           points="603,36 605.04,36 605.04,95.879 603,95.879 "
           style="fill:#000000;fill-rule:nonzero;stroke-width:0" /><path
           id="path2319"
           d="m 569.82,4.168 0.22,3e-4 0.22,0.0027 0.11,0.0029 0.1,0.0043 0.11,0.006 0.1,0.0079 0.11,0.0103 0.1,0.0128 0.09,0.0156 0.1,0.0187 0.09,0.0222 0.09,0.0258 0.09,0.0298 0.08,0.034 0.08,0.0386 0.08,0.0434 0.07,0.0485 0.07,0.0538 0.07,0.0596 0.06,0.0654 0.05,0.0717 0.03,0.0383 0.02,0.04 0.02,0.0416 0.03,0.0434 0.02,0.0451 0.02,0.047 0.01,0.0488 0.02,0.0506 0.01,0.0526 0.02,0.0546 0.01,0.0565 0.01,0.0585 0.01,0.0606 0.01,0.0627 v 0.0647 l 0.01,0.067 v 0.0692 0.0713 c 0,1.5 -1.3,1.5 -2.05,1.5 h -5.93 c -0.74,0 -1.99,0 -1.99,-1.5 0,-1.5468 1.19,-1.5468 1.99,-1.5468 h 2.09 c -0.59,-5.5782 -3.03,-7.9219 -5.67,-7.9219 -4.03,0 -7.83,5.3906 -7.83,12.7187 0,7.6092 3.98,12.7502 7.88,12.7502 1.75,0 4.87,-1.156 5.73,-6.531 0.09,-0.844 0.39,-1.438 1.69,-1.438 1.75,0 1.75,1.047 1.75,2.031 v 6.938 c 0,0.797 0,2.031 -1.5,2.031 -1.05,0 -1.3,-0.547 -2.05,-2.234 -1.74,1.484 -3.74,2.234 -5.83,2.234 -5.97,0 -11.11,-6.719 -11.11,-15.7343 0,-9.17186 5.19,-15.7969 11.11,-15.7969 2.84,0 4.94,1.5 5.94,2.6407 0,-1.0938 0,-2.0938 1.73,-2.0938 1.71,0 1.71,1.0938 1.71,2.0469 z"
           inkscape:connector-curvature="0"
           style="fill:#000000;stroke-width:0" /><polyline
           id="polyline2321"
           points="603,-24 605.04,-24 605.04,35.879 603,35.879 "
           style="fill:#000000;fill-rule:nonzero;stroke-width:0" /><path
           id="path2323"
           d="m 571.55,-37.047 v 0.076 0.078 0.08 0.082 l -0.01,0.167 v 0.085 l -0.01,0.086 -0.01,0.085 -0.01,0.085 -0.02,0.085 -0.02,0.084 -0.02,0.083 -0.02,0.081 -0.03,0.08 -0.03,0.078 -0.04,0.075 -0.04,0.073 -0.05,0.069 -0.05,0.067 -0.06,0.063 -0.06,0.059 -0.04,0.028 -0.03,0.027 -0.04,0.025 -0.04,0.025 -0.04,0.024 -0.04,0.022 -0.04,0.021 -0.05,0.019 -0.04,0.018 -0.05,0.017 -0.05,0.016 -0.05,0.014 -0.06,0.012 -0.05,0.011 -0.06,0.01 -0.06,0.007 -0.06,0.006 -0.07,0.005 -0.07,0.003 h -0.06 c -0.91,0 -1.16,-0.5 -1.41,-0.843 -0.09,-0.203 -0.09,-0.297 -0.73,-1.547 -1.66,1.406 -3.94,2.39 -6.49,2.39 -6.42,0 -12,-6.672 -12,-15.734 0,-9.125 5.58,-15.797 12.05,-15.797 5.78,0 10.06,4.438 10.06,8.922 0,1.641 -1.19,1.641 -1.73,1.641 -0.46,0 -1.6,0 -1.71,-1.454 -0.34,-4.874 -4.37,-6.078 -6.42,-6.078 -4.53,0 -8.81,5.282 -8.81,12.766 0,7.422 4.33,12.703 8.77,12.703 2.98,0 5.71,-2.297 6.42,-6.328 0.15,-0.844 0.25,-1.641 1.75,-1.641 1.73,0 1.73,1.047 1.73,2.032 z"
           inkscape:connector-curvature="0"
           style="fill:#000000;stroke-width:0" /><polyline
           id="polyline2325"
           points="603,-84 605.04,-84 605.04,-24.121 603,-24.121 "
           style="fill:#000000;fill-rule:nonzero;stroke-width:0" /></g>    </g>
  </g>
</svg>
