<?xml version="1.0" encoding="UTF-8" standalone="no"?>
<!-- Created with Inkscape (http://www.inkscape.org/) -->

<svg
   xmlns:dc="http://purl.org/dc/elements/1.1/"
   xmlns:cc="http://creativecommons.org/ns#"
   xmlns:rdf="http://www.w3.org/1999/02/22-rdf-syntax-ns#"
   xmlns:svg="http://www.w3.org/2000/svg"
   xmlns="http://www.w3.org/2000/svg"
   xmlns:sodipodi="http://sodipodi.sourceforge.net/DTD/sodipodi-0.dtd"
   xmlns:inkscape="http://www.inkscape.org/namespaces/inkscape"
   width="451.71899mm"
   height="109.1202mm"
   viewBox="0 0 451.71899 109.1202"
   version="1.1"
   id="svg8"
   inkscape:version="0.92.5 (2060ec1f9f, 2020-04-08)"
   sodipodi:docname="exercise3_equations.svg">
  <defs
     id="defs2" />
  <sodipodi:namedview
     id="base"
     pagecolor="#ffffff"
     bordercolor="#666666"
     borderopacity="1.0"
     inkscape:pageopacity="0.0"
     inkscape:pageshadow="2"
     inkscape:zoom="0.49497475"
     inkscape:cx="564.00414"
     inkscape:cy="419.40304"
     inkscape:document-units="mm"
     inkscape:current-layer="layer1"
     showgrid="false"
     inkscape:window-width="1920"
     inkscape:window-height="1043"
     inkscape:window-x="0"
     inkscape:window-y="0"
     inkscape:window-maximized="1"
     fit-margin-top="0"
     fit-margin-left="0"
     fit-margin-right="0"
     fit-margin-bottom="0" />
  <metadata
     id="metadata5">
    <rdf:RDF>
      <cc:Work
         rdf:about="">
        <dc:format>image/svg+xml</dc:format>
        <dc:type
           rdf:resource="http://purl.org/dc/dcmitype/StillImage" />
        <dc:title></dc:title>
      </cc:Work>
    </rdf:RDF>
  </metadata>
  <g
     inkscape:label="Layer 1"
     inkscape:groupmode="layer"
     id="layer1"
     transform="translate(-3.8297099,-8.6931798)">
    <g
       id="g1045"
       transform="translate(-120.27129,-113.85682)">
      <g
         word-spacing="normal"
         letter-spacing="normal"
         font-size-adjust="none"
         font-stretch="normal"
         font-weight="normal"
         font-variant="normal"
         font-style="normal"
         stroke-miterlimit="10.433"
         xml:space="preserve"
         transform="matrix(0.3,0,0,-0.3,-52.5,222.75)"
         id="content"
         style="font-style:normal;font-variant:normal;font-weight:normal;font-stretch:normal;letter-spacing:normal;word-spacing:normal;text-anchor:start;fill:none;fill-opacity:1;fill-rule:evenodd;stroke:#000000;stroke-linecap:butt;stroke-linejoin:miter;stroke-miterlimit:10.43299961;stroke-dasharray:none;stroke-dashoffset:0;stroke-opacity:1"><path
           id="path818"
           d="m 704.26,331.27 v 0.01 0.02 0.01 0.02 l -0.01,0.02 v 0.02 l -0.01,0.02 v 0.02 l -0.01,0.02 -0.01,0.02 -0.01,0.02 -0.01,0.02 -0.01,0.02 -0.01,0.02 -0.01,0.02 -0.02,0.02 -0.01,0.02 -0.02,0.02 -0.02,0.02 -0.02,0.02 -0.02,0.02 -0.02,0.01 -0.03,0.02 -0.03,0.01 -0.02,0.01 -0.03,0.01 -0.02,0.01 h -0.01 l -0.02,0.01 h -0.02 -0.01 l -0.02,0.01 h -0.02 -0.02 -0.02 -0.01 l -0.02,0.01 h -0.02 c -0.25,0 -0.32,-0.05 -0.91,-0.75 l -2.39,-2.85 c -1.3,2.35 -3.89,3.6 -7.13,3.6 -6.32,0 -12.29,-5.74 -12.29,-11.77 0,-4.03 2.64,-6.33 5.17,-7.06 l 5.33,-1.41 c 1.84,-0.44 4.59,-1.19 4.59,-5.28 0,-4.48 -4.09,-9.16 -8.97,-9.16 -3.19,0 -8.72,1.1 -8.72,7.27 0,1.2 0.25,2.39 0.3,2.69 0.05,0.2 0.09,0.25 0.09,0.36 0,0.5 -0.34,0.54 -0.59,0.54 -0.25,0 -0.35,-0.04 -0.5,-0.2 -0.2,-0.2 -2.98,-11.56 -2.98,-11.7 0,-0.3 0.25,-0.5 0.54,-0.5 0.25,0 0.3,0.04 0.89,0.75 l 2.45,2.82 c 2.15,-2.89 5.52,-3.57 8.41,-3.57 6.78,0 12.66,6.62 12.66,12.79 0,3.44 -1.69,5.14 -2.44,5.83 -1.14,1.16 -1.89,1.35 -6.33,2.5 -1.09,0.3 -2.89,0.8 -3.34,0.89 -1.34,0.46 -3.03,1.89 -3.03,4.53 0,4.05 3.98,8.29 8.72,8.29 4.14,0 7.17,-2.15 7.17,-7.74 0,-1.59 -0.2,-2.48 -0.2,-2.78 0,-0.05 0,-0.5 0.6,-0.5 0.5,0 0.55,0.16 0.74,1 z"
           inkscape:connector-curvature="0"
           style="fill:#000000;stroke-width:0" /><path
           id="path820"
           d="m 714.39,311.23 v 0.05 0.04 0.04 0.04 0.04 0.04 0.04 0.03 l -0.01,0.03 v 0.04 0.03 0.03 0.03 l -0.01,0.03 v 0.02 0.03 l -0.01,0.03 v 0.02 l -0.01,0.02 v 0.03 l -0.02,0.04 -0.01,0.03 -0.02,0.04 -0.02,0.03 -0.02,0.03 -0.02,0.02 -0.03,0.03 -0.03,0.02 -0.04,0.01 -0.03,0.02 -0.04,0.01 -0.05,0.01 -0.05,0.01 -0.02,0.01 h -0.03 -0.02 l -0.03,0.01 h -0.03 -0.03 -0.04 -0.03 -0.03 l -0.04,0.01 h -0.04 -0.03 -0.04 -0.04 -0.04 -0.05 -0.04 -0.05 c -2.23,-2.2 -5.39,-2.24 -6.82,-2.24 v -1.25 c 0.84,0 3.14,0 5.04,0.97 v -17.76 c 0,-1.16 0,-1.61 -3.48,-1.61 h -1.31 v -1.25 c 0.62,0.03 4.9,0.14 6.2,0.14 1.08,0 5.47,-0.11 6.23,-0.14 v 1.25 h -1.32 c -3.49,0 -3.49,0.45 -3.49,1.61 z"
           inkscape:connector-curvature="0"
           style="fill:#000000;stroke-width:0" /><path
           id="path822"
           d="m 809.07,312.94 h 0.14 0.15 0.14 l 0.08,0.01 h 0.07 l 0.07,0.01 0.07,0.01 0.07,0.01 0.07,0.01 0.07,0.01 0.07,0.02 0.06,0.02 0.06,0.02 0.06,0.03 0.06,0.02 0.06,0.03 0.05,0.04 0.05,0.04 0.05,0.04 0.04,0.04 0.04,0.05 0.02,0.03 0.02,0.03 0.01,0.03 0.02,0.03 0.01,0.03 0.02,0.03 0.01,0.03 0.01,0.04 0.01,0.03 0.01,0.04 0.01,0.04 v 0.04 l 0.01,0.04 v 0.04 0.05 0.04 c 0,1 -0.95,1 -1.64,1 h -29.84 c -0.71,0 -1.64,0 -1.64,-1 0,-0.98 0.93,-0.98 1.68,-0.98 z"
           inkscape:connector-curvature="0"
           style="fill:#000000;stroke-width:0" /><path
           id="path824"
           d="m 809.12,303.27 h 0.07 0.06 0.14 0.14 l 0.07,0.01 h 0.07 l 0.07,0.01 0.07,0.01 0.06,0.01 0.07,0.01 0.07,0.01 0.06,0.02 0.07,0.02 0.06,0.02 0.06,0.03 0.06,0.02 0.05,0.04 0.05,0.03 0.05,0.04 0.05,0.04 0.04,0.05 0.02,0.02 0.02,0.03 0.02,0.02 0.02,0.03 0.01,0.03 0.02,0.03 0.01,0.03 0.02,0.04 0.01,0.03 0.01,0.04 0.01,0.03 0.01,0.04 0.01,0.04 v 0.04 l 0.01,0.04 v 0.05 0.04 0.05 c 0,1 -0.95,1 -1.69,1 h -29.75 c -0.75,0 -1.68,0 -1.68,-1 0,-1 0.93,-1 1.64,-1 z"
           inkscape:connector-curvature="0"
           style="fill:#000000;stroke-width:0" /><path
           id="path826"
           d="m 878.2,324.05 h 6.57 v -2.64 c 0,-0.96 0,-2.05 1.69,-2.05 1.75,0 1.75,1.05 1.75,2.05 v 3.62 c 0,1.55 -0.3,2.05 -2,2.05 h -19.47 c -1.65,0 -2.04,-0.39 -2.04,-2.05 v -3.62 c 0,-0.96 0,-2.05 1.68,-2.05 1.75,0 1.75,1.05 1.75,2.05 v 2.64 h 6.63 v -24.36 h -2.6 c -0.75,0 -1.98,0 -1.98,-1.5 0,-1.55 1.19,-1.55 1.98,-1.55 h 8.63 c 0.75,0 1.98,0 1.98,1.5 0,1.55 -1.18,1.55 -1.98,1.55 h -2.59 z"
           inkscape:connector-curvature="0"
           style="fill:#000000;stroke-width:0" /><path
           id="path828"
           d="m 913.66,325.59 v 0.08 0.08 0.08 0.08 l -0.01,0.17 v 0.08 l -0.01,0.09 -0.01,0.08 -0.01,0.09 -0.02,0.08 -0.01,0.09 -0.03,0.08 -0.02,0.08 -0.03,0.08 -0.03,0.08 -0.04,0.07 -0.04,0.08 -0.05,0.07 -0.05,0.06 -0.06,0.07 -0.06,0.05 -0.03,0.03 -0.04,0.03 -0.03,0.03 -0.04,0.02 -0.04,0.02 -0.04,0.03 -0.05,0.02 -0.04,0.02 -0.05,0.01 -0.05,0.02 -0.05,0.02 -0.05,0.01 -0.05,0.01 -0.06,0.01 -0.06,0.01 -0.06,0.01 -0.06,0.01 h -0.07 -0.06 -0.07 c -0.91,0 -1.16,-0.5 -1.41,-0.84 -0.09,-0.2 -0.09,-0.3 -0.73,-1.55 -1.66,1.41 -3.94,2.39 -6.49,2.39 -6.42,0 -12,-6.67 -12,-15.73 0,-9.12 5.58,-15.8 12.05,-15.8 5.78,0 10.06,4.44 10.06,8.93 0,1.64 -1.18,1.64 -1.73,1.64 -0.45,0 -1.59,0 -1.7,-1.46 -0.35,-4.87 -4.38,-6.08 -6.43,-6.08 -4.53,0 -8.81,5.29 -8.81,12.77 0,7.42 4.33,12.7 8.77,12.7 2.98,0 5.72,-2.29 6.42,-6.32 0.16,-0.85 0.25,-1.65 1.75,-1.65 1.73,0 1.73,1.05 1.73,2.04 z"
           inkscape:connector-curvature="0"
           style="fill:#000000;stroke-width:0" /><path
           id="path830"
           d="m 939.82,325.59 v 0.08 0.08 0.08 0.08 l -0.01,0.17 -0.01,0.08 v 0.09 l -0.01,0.08 -0.02,0.09 -0.01,0.08 -0.02,0.09 -0.02,0.08 -0.02,0.08 -0.03,0.08 -0.04,0.08 -0.03,0.07 -0.04,0.08 -0.05,0.07 -0.05,0.06 -0.06,0.07 -0.06,0.05 -0.04,0.03 -0.03,0.03 -0.04,0.03 -0.04,0.02 -0.04,0.02 -0.04,0.03 -0.04,0.02 -0.05,0.02 -0.04,0.01 -0.05,0.02 -0.05,0.02 -0.05,0.01 -0.06,0.01 -0.05,0.01 -0.06,0.01 -0.06,0.01 -0.06,0.01 h -0.07 -0.07 -0.06 c -0.91,0 -1.16,-0.5 -1.41,-0.84 -0.09,-0.2 -0.09,-0.3 -0.73,-1.55 -1.66,1.41 -3.94,2.39 -6.49,2.39 -6.42,0 -12,-6.67 -12,-15.73 0,-9.12 5.58,-15.8 12.05,-15.8 5.78,0 10.06,4.44 10.06,8.93 0,1.64 -1.19,1.64 -1.73,1.64 -0.46,0 -1.6,0 -1.71,-1.46 -0.34,-4.87 -4.37,-6.08 -6.42,-6.08 -4.53,0 -8.81,5.29 -8.81,12.77 0,7.42 4.33,12.7 8.76,12.7 2.99,0 5.72,-2.29 6.43,-6.32 0.15,-0.85 0.25,-1.65 1.75,-1.65 1.73,0 1.73,1.05 1.73,2.04 z"
           inkscape:connector-curvature="0"
           style="fill:#000000;stroke-width:0" /><path
           id="path832"
           d="m 964.24,307.05 h 0.22 0.22 0.11 l 0.11,0.01 h 0.11 l 0.1,0.01 0.1,0.01 0.1,0.01 0.1,0.02 0.1,0.02 0.09,0.02 0.09,0.03 0.09,0.03 0.08,0.03 0.08,0.04 0.08,0.04 0.07,0.05 0.07,0.05 0.06,0.06 0.06,0.07 0.06,0.07 0.02,0.04 0.03,0.04 0.02,0.04 0.02,0.04 0.02,0.05 0.02,0.05 0.02,0.05 0.02,0.05 0.01,0.05 0.01,0.05 0.02,0.06 0.01,0.06 0.01,0.06 v 0.06 l 0.01,0.07 v 0.06 l 0.01,0.07 v 0.07 c 0,1.5 -1.3,1.5 -2.05,1.5 h -5.94 c -0.73,0 -1.98,0 -1.98,-1.5 0,-1.54 1.18,-1.54 1.98,-1.54 h 2.1 c -0.6,-5.58 -3.04,-7.93 -5.68,-7.93 -4.03,0 -7.82,5.4 -7.82,12.72 0,7.61 3.98,12.75 7.87,12.75 1.75,0 4.88,-1.15 5.73,-6.53 0.1,-0.84 0.4,-1.44 1.69,-1.44 1.75,0 1.75,1.05 1.75,2.04 v 6.93 c 0,0.8 0,2.03 -1.5,2.03 -1.04,0 -1.29,-0.54 -2.04,-2.23 -1.74,1.49 -3.74,2.23 -5.83,2.23 -5.97,0 -11.11,-6.71 -11.11,-15.73 0,-9.17 5.19,-15.8 11.11,-15.8 2.84,0 4.93,1.5 5.93,2.64 0,-1.09 0,-2.09 1.74,-2.09 1.7,0 1.7,1.09 1.7,2.05 z"
           inkscape:connector-curvature="0"
           style="fill:#000000;stroke-width:0" /><path
           id="path834"
           d="m 983.77,325.73 -0.02,0.09 -0.02,0.09 -0.02,0.08 -0.03,0.08 -0.02,0.07 -0.02,0.08 -0.03,0.07 -0.02,0.07 -0.05,0.13 -0.05,0.13 -0.06,0.11 -0.05,0.1 -0.06,0.1 -0.06,0.09 -0.07,0.08 -0.06,0.08 -0.07,0.07 -0.07,0.06 -0.08,0.05 -0.08,0.05 -0.08,0.05 -0.08,0.03 -0.09,0.04 -0.09,0.03 -0.1,0.02 -0.1,0.02 -0.1,0.02 -0.11,0.02 -0.11,0.01 -0.11,0.01 h -0.12 l -0.13,0.01 h -0.13 -0.13 -0.14 -0.14 c -1.44,0 -2.23,0 -2.69,-1.89 l -6.03,-26.09 c -0.69,0 -1.84,0 -2.14,-0.11 -0.55,-0.3 -0.84,-0.8 -0.84,-1.44 0,-1.5 1.29,-1.5 2.14,-1.5 h 5.08 c 0.9,0 2.09,0 2.09,1.5 0,1.55 -0.98,1.55 -2.78,1.55 l 1.14,5.17 0.75,3.05 3.28,15.73 h 0.06 l 3.24,-15.73 h -6.58 l -0.75,-3.05 h 8.08 l 1.14,-5.17 c -1.8,0 -2.8,0 -2.8,-1.55 0,-1.5 1.2,-1.5 2.09,-1.5 h 5.1 c 0.84,0 2.14,0 2.14,1.5 0,0.64 -0.25,1.14 -0.84,1.39 -0.32,0.16 -1.41,0.16 -2.16,0.16 z"
           inkscape:connector-curvature="0"
           style="fill:#000000;stroke-width:0" /><path
           id="path836"
           d="m 2052.3,284.69 v 0.02 0.03 0.01 0.02 0.01 l -0.1,0.02 v 0.02 0.01 0.02 0.02 0.02 0.03 0.02 0.03 l -0.1,0.03 v 0.03 0.04 0.03 l -0.1,0.02 v 0.02 0.02 0.02 0.02 l -0.1,0.03 v 0.02 0.02 0.03 0.03 l -0.1,0.02 v 0.03 0.03 0.03 l -0.1,0.03 v 0.03 0.03 l -0.1,0.03 v 0.04 0.03 l -0.1,0.04 v 0.03 0.04 l -0.1,0.04 c -6.2,6.28 -7.8,15.69 -7.8,23.31 0,8.68 1.9,17.35 8,23.57 0.7,0.61 0.7,0.7 0.7,0.86 0,0.34 -0.2,0.48 -0.5,0.48 -0.5,0 -5,-3.38 -7.9,-9.7 -2.6,-5.49 -3.2,-11.02 -3.2,-15.21 0,-3.89 0.6,-9.9 3.3,-15.54 3,-6.13 7.3,-9.36 7.8,-9.36 0.3,0 0.5,0.14 0.5,0.5 z"
           inkscape:connector-curvature="0"
           style="fill:#000000;stroke-width:0" /><path
           id="path838"
           d="m 2069.7,328.53 v 0.06 0.05 0.05 0.05 0.05 0.05 0.04 0.05 0.04 0.04 0.04 0.04 0.04 0.04 0.03 0.03 0.07 0.06 0.05 0.05 0.05 l -0.1,0.04 v 0.04 0.03 0.04 l -0.1,0.02 v 0.03 0.02 l -0.1,0.02 v 0.01 0.01 h -0.1 v 0.01 0.01 h -0.1 v 0.01 0 0.01 h -0.1 v 0 l -0.1,0.01 v 0 0 h -0.1 v 0 l -0.1,0.01 v 0 h -0.1 v 0 h -0.1 v 0 c -3.1,-3.19 -7.5,-3.19 -9.1,-3.19 v -1.55 c 1,0 4,0 6.6,1.3 v -25.81 c 0,-1.8 -0.2,-2.39 -4.7,-2.39 h -1.6 v -1.55 c 1.8,0.16 6.1,0.16 8.1,0.16 2,0 6.3,0 8.1,-0.16 v 1.55 h -1.6 c -4.5,0 -4.7,0.54 -4.7,2.39 z"
           inkscape:connector-curvature="0"
           style="fill:#000000;stroke-width:0" /><path
           id="path840"
           d="m 2094.4,309.09 v 0.37 0.39 0.39 0.41 0.84 l -0.1,0.88 -0.1,0.92 -0.1,0.95 -0.1,0.98 -0.2,1 -0.2,1.02 -0.2,1.04 -0.3,1.05 -0.3,1.06 -0.3,1.06 -0.4,1.07 -0.2,0.53 -0.3,0.53 -0.2,0.53 -0.2,0.53 c -3,6.13 -7.3,9.36 -7.8,9.36 -0.3,0 -0.5,-0.19 -0.5,-0.48 0,-0.16 0,-0.25 0.9,-1.16 4.9,-4.92 7.8,-12.84 7.8,-23.27 0,-8.51 -1.9,-17.28 -8.1,-23.56 -0.6,-0.59 -0.6,-0.7 -0.6,-0.84 0,-0.3 0.2,-0.5 0.5,-0.5 0.5,0 5,3.39 7.9,9.72 2.6,5.47 3.1,11 3.1,15.18 z"
           inkscape:connector-curvature="0"
           style="fill:#000000;stroke-width:0" /><path
           id="path842"
           d="m 704.26,256.5 v 0.02 0.02 0.01 0.02 l -0.01,0.02 v 0.02 l -0.01,0.02 v 0.02 l -0.01,0.02 -0.01,0.02 -0.01,0.02 -0.01,0.02 -0.01,0.02 -0.01,0.02 -0.01,0.02 -0.02,0.02 -0.01,0.02 -0.02,0.02 -0.02,0.02 -0.02,0.02 -0.02,0.01 -0.02,0.02 -0.03,0.01 -0.03,0.02 -0.02,0.01 -0.03,0.01 -0.02,0.01 h -0.01 l -0.02,0.01 h -0.02 -0.01 l -0.02,0.01 h -0.02 -0.02 -0.02 -0.01 -0.02 -0.02 c -0.25,0 -0.32,-0.04 -0.91,-0.75 l -2.39,-2.84 c -1.3,2.34 -3.89,3.59 -7.13,3.59 -6.32,0 -12.29,-5.73 -12.29,-11.76 0,-4.03 2.64,-6.33 5.17,-7.06 l 5.33,-1.41 c 1.84,-0.44 4.59,-1.19 4.59,-5.28 0,-4.49 -4.09,-9.16 -8.97,-9.16 -3.19,0 -8.72,1.1 -8.72,7.27 0,1.2 0.25,2.39 0.3,2.69 0.05,0.2 0.09,0.25 0.09,0.36 0,0.5 -0.34,0.54 -0.59,0.54 -0.25,0 -0.35,-0.04 -0.5,-0.2 -0.2,-0.2 -2.98,-11.56 -2.98,-11.7 0,-0.3 0.25,-0.5 0.54,-0.5 0.25,0 0.3,0.04 0.89,0.75 l 2.45,2.82 c 2.15,-2.89 5.52,-3.57 8.41,-3.57 6.78,0 12.66,6.62 12.66,12.79 0,3.44 -1.69,5.14 -2.44,5.83 -1.14,1.16 -1.89,1.34 -6.33,2.5 -1.09,0.3 -2.89,0.8 -3.34,0.89 -1.34,0.45 -3.03,1.89 -3.03,4.53 0,4.05 3.98,8.28 8.72,8.28 4.14,0 7.17,-2.14 7.17,-7.73 0,-1.59 -0.2,-2.48 -0.2,-2.78 0,-0.05 0,-0.5 0.6,-0.5 0.5,0 0.55,0.15 0.74,1 z"
           inkscape:connector-curvature="0"
           style="fill:#000000;stroke-width:0" /><path
           id="path844"
           d="m 720.31,220.79 h -1.19 c -0.09,-0.77 -0.45,-2.83 -0.9,-3.18 -0.27,-0.2 -2.95,-0.2 -3.44,-0.2 h -6.42 c 3.66,3.24 4.87,4.2 6.97,5.84 2.58,2.07 4.98,4.22 4.98,7.54 0,4.21 -3.69,6.79 -8.15,6.79 -4.32,0 -7.25,-3.03 -7.25,-6.23 0,-1.78 1.5,-1.95 1.86,-1.95 0.82,0 1.84,0.59 1.84,1.84 0,0.62 -0.25,1.84 -2.06,1.84 1.07,2.47 3.45,3.24 5.09,3.24 3.48,0 5.3,-2.71 5.3,-5.53 0,-3.04 -2.16,-5.44 -3.28,-6.69 l -8.39,-8.3 c -0.36,-0.31 -0.36,-0.39 -0.36,-1.36 h 14.36 z"
           inkscape:connector-curvature="0"
           style="fill:#000000;stroke-width:0" /><path
           id="path846"
           d="m 809.07,238.18 h 0.14 0.15 0.14 l 0.08,0.01 h 0.07 l 0.07,0.01 0.07,0.01 0.07,0.01 0.07,0.01 0.07,0.01 0.07,0.02 0.06,0.02 0.06,0.02 0.06,0.02 0.06,0.03 0.06,0.03 0.05,0.04 0.05,0.03 0.05,0.05 0.04,0.04 0.04,0.05 0.02,0.03 0.02,0.03 0.01,0.02 0.02,0.03 0.01,0.03 0.02,0.04 0.01,0.03 0.01,0.04 0.01,0.03 0.01,0.04 0.01,0.04 v 0.04 l 0.01,0.04 v 0.04 0.04 0.05 c 0,1 -0.95,1 -1.64,1 h -29.84 c -0.71,0 -1.64,0 -1.64,-1 0,-0.98 0.93,-0.98 1.68,-0.98 z"
           inkscape:connector-curvature="0"
           style="fill:#000000;stroke-width:0" /><path
           id="path848"
           d="m 809.12,228.5 h 0.07 0.06 l 0.14,0.01 h 0.14 0.07 l 0.07,0.01 0.07,0.01 h 0.07 l 0.06,0.01 0.07,0.02 0.07,0.01 0.06,0.02 0.07,0.02 0.06,0.02 0.06,0.02 0.06,0.03 0.05,0.03 0.05,0.04 0.05,0.04 0.05,0.04 0.04,0.05 0.02,0.02 0.02,0.03 0.02,0.02 0.02,0.03 0.01,0.03 0.02,0.03 0.01,0.03 0.02,0.03 0.01,0.04 0.01,0.03 0.01,0.04 0.01,0.04 0.01,0.04 v 0.04 l 0.01,0.04 v 0.04 0.05 0.04 c 0,1 -0.95,1 -1.69,1 h -29.75 c -0.75,0 -1.68,0 -1.68,-1 0,-1 0.93,-1 1.64,-1 z"
           inkscape:connector-curvature="0"
           style="fill:#000000;stroke-width:0" /><path
           id="path850"
           d="m 878.2,249.29 h 6.57 v -2.64 c 0,-0.96 0,-2.05 1.69,-2.05 1.75,0 1.75,1.05 1.75,2.05 v 3.62 c 0,1.55 -0.3,2.05 -2,2.05 h -19.47 c -1.65,0 -2.04,-0.39 -2.04,-2.05 v -3.62 c 0,-0.96 0,-2.05 1.68,-2.05 1.75,0 1.75,1.05 1.75,2.05 v 2.64 h 6.63 v -24.36 h -2.6 c -0.75,0 -1.98,0 -1.98,-1.5 0,-1.55 1.19,-1.55 1.98,-1.55 h 8.63 c 0.75,0 1.98,0 1.98,1.5 0,1.55 -1.18,1.55 -1.98,1.55 h -2.59 z"
           inkscape:connector-curvature="0"
           style="fill:#000000;stroke-width:0" /><path
           id="path852"
           d="m 905.3,250.97 -0.02,0.09 -0.02,0.08 -0.02,0.09 -0.02,0.08 -0.03,0.07 -0.02,0.08 -0.05,0.14 -0.05,0.13 -0.05,0.12 -0.05,0.12 -0.06,0.1 -0.06,0.1 -0.06,0.09 -0.07,0.08 -0.06,0.08 -0.07,0.06 -0.07,0.07 -0.08,0.05 -0.08,0.05 -0.08,0.04 -0.08,0.04 -0.09,0.04 -0.09,0.03 -0.1,0.02 -0.1,0.02 -0.1,0.02 -0.11,0.01 -0.11,0.01 -0.11,0.01 -0.12,0.01 h -0.13 l -0.12,0.01 h -0.14 -0.14 -0.14 c -1.44,0 -2.23,0 -2.69,-1.89 l -6.03,-26.09 c -0.68,0 -1.84,0 -2.14,-0.11 -0.54,-0.3 -0.84,-0.8 -0.84,-1.44 0,-1.5 1.3,-1.5 2.14,-1.5 h 5.08 c 0.9,0 2.09,0 2.09,1.5 0,1.55 -0.98,1.55 -2.78,1.55 l 1.14,5.17 0.75,3.05 3.28,15.73 h 0.06 l 3.24,-15.73 h -6.58 l -0.75,-3.05 h 8.08 l 1.14,-5.17 c -1.8,0 -2.8,0 -2.8,-1.55 0,-1.5 1.21,-1.5 2.1,-1.5 h 5.09 c 0.84,0 2.14,0 2.14,1.5 0,0.64 -0.25,1.14 -0.84,1.39 -0.32,0.16 -1.41,0.16 -2.16,0.16 z"
           inkscape:connector-curvature="0"
           style="fill:#000000;stroke-width:0" /><path
           id="path854"
           d="m 939.82,250.83 v 0.08 0.08 0.08 0.08 l -0.01,0.17 -0.01,0.08 v 0.09 l -0.01,0.08 -0.02,0.09 -0.01,0.08 -0.02,0.08 -0.02,0.09 -0.02,0.08 -0.03,0.08 -0.04,0.08 -0.03,0.07 -0.04,0.07 -0.05,0.07 -0.05,0.07 -0.06,0.06 -0.06,0.06 -0.04,0.03 -0.03,0.03 -0.04,0.02 -0.04,0.03 -0.04,0.02 -0.04,0.02 -0.04,0.02 -0.05,0.02 -0.04,0.02 -0.05,0.02 -0.05,0.01 -0.05,0.02 -0.06,0.01 -0.05,0.01 -0.06,0.01 -0.06,0.01 -0.06,0.01 h -0.07 -0.07 -0.06 c -0.91,0 -1.16,-0.5 -1.41,-0.84 -0.09,-0.2 -0.09,-0.3 -0.73,-1.55 -1.66,1.41 -3.94,2.39 -6.49,2.39 -6.42,0 -12,-6.67 -12,-15.73 0,-9.13 5.58,-15.8 12.05,-15.8 5.78,0 10.06,4.44 10.06,8.92 0,1.65 -1.19,1.65 -1.73,1.65 -0.46,0 -1.6,0 -1.71,-1.46 -0.34,-4.87 -4.37,-6.08 -6.42,-6.08 -4.53,0 -8.81,5.29 -8.81,12.77 0,7.42 4.33,12.7 8.76,12.7 2.99,0 5.72,-2.29 6.43,-6.33 0.15,-0.84 0.25,-1.64 1.75,-1.64 1.73,0 1.73,1.05 1.73,2.04 z"
           inkscape:connector-curvature="0"
           style="fill:#000000;stroke-width:0" /><path
           id="path856"
           d="m 964.24,232.29 h 0.22 0.22 0.11 l 0.11,0.01 h 0.11 l 0.1,0.01 0.1,0.01 0.1,0.01 0.1,0.02 0.1,0.02 0.09,0.02 0.09,0.02 0.09,0.03 0.08,0.04 0.08,0.04 0.08,0.04 0.07,0.05 0.07,0.05 0.06,0.06 0.06,0.07 0.06,0.07 0.02,0.04 0.03,0.04 0.02,0.04 0.02,0.04 0.02,0.05 0.02,0.04 0.02,0.05 0.02,0.05 0.01,0.06 0.01,0.05 0.02,0.06 0.01,0.06 0.01,0.06 v 0.06 l 0.01,0.06 v 0.07 l 0.01,0.07 v 0.07 c 0,1.5 -1.3,1.5 -2.05,1.5 h -5.94 c -0.73,0 -1.98,0 -1.98,-1.5 0,-1.54 1.18,-1.54 1.98,-1.54 h 2.1 c -0.6,-5.58 -3.04,-7.93 -5.68,-7.93 -4.03,0 -7.82,5.39 -7.82,12.72 0,7.61 3.98,12.75 7.87,12.75 1.75,0 4.88,-1.15 5.73,-6.53 0.1,-0.84 0.4,-1.44 1.69,-1.44 1.75,0 1.75,1.05 1.75,2.04 v 6.93 c 0,0.8 0,2.03 -1.5,2.03 -1.04,0 -1.29,-0.54 -2.04,-2.23 -1.74,1.48 -3.74,2.23 -5.83,2.23 -5.97,0 -11.11,-6.71 -11.11,-15.73 0,-9.17 5.19,-15.8 11.11,-15.8 2.84,0 4.93,1.5 5.93,2.64 0,-1.09 0,-2.09 1.74,-2.09 1.7,0 1.7,1.09 1.7,2.05 z"
           inkscape:connector-curvature="0"
           style="fill:#000000;stroke-width:0" /><path
           id="path858"
           d="m 992.13,250.83 v 0.08 0.08 0.08 0.08 l -0.01,0.17 v 0.08 l -0.01,0.09 -0.01,0.08 -0.01,0.09 -0.02,0.08 -0.02,0.08 -0.02,0.09 -0.02,0.08 -0.03,0.08 -0.03,0.08 -0.04,0.07 -0.04,0.07 -0.05,0.07 -0.05,0.07 -0.06,0.06 -0.06,0.06 -0.03,0.03 -0.04,0.03 -0.04,0.02 -0.03,0.03 -0.04,0.02 -0.05,0.02 -0.04,0.02 -0.04,0.02 -0.05,0.02 -0.05,0.02 -0.05,0.01 -0.05,0.02 -0.06,0.01 -0.05,0.01 -0.06,0.01 -0.06,0.01 -0.06,0.01 h -0.07 -0.06 -0.07 c -0.91,0 -1.16,-0.5 -1.41,-0.84 -0.09,-0.2 -0.09,-0.3 -0.73,-1.55 -1.66,1.41 -3.94,2.39 -6.49,2.39 -6.42,0 -12,-6.67 -12,-15.73 0,-9.13 5.58,-15.8 12.05,-15.8 5.78,0 10.06,4.44 10.06,8.92 0,1.65 -1.18,1.65 -1.73,1.65 -0.45,0 -1.6,0 -1.7,-1.46 -0.35,-4.87 -4.38,-6.08 -6.43,-6.08 -4.53,0 -8.81,5.29 -8.81,12.77 0,7.42 4.33,12.7 8.77,12.7 2.98,0 5.72,-2.29 6.42,-6.33 0.15,-0.84 0.25,-1.64 1.75,-1.64 1.73,0 1.73,1.05 1.73,2.04 z"
           inkscape:connector-curvature="0"
           style="fill:#000000;stroke-width:0" /><path
           id="path860"
           d="m 1009.9,250.97 v 0.09 0.08 0.09 l -0.1,0.08 v 0.07 0.08 0.07 l -0.1,0.07 v 0.13 l -0.1,0.12 v 0.12 l -0.1,0.1 v 0.1 l -0.1,0.09 v 0.08 l -0.1,0.08 -0.1,0.06 -0.1,0.07 v 0.05 l -0.1,0.05 -0.1,0.04 -0.1,0.04 -0.1,0.04 -0.1,0.03 -0.1,0.02 -0.1,0.02 -0.1,0.02 -0.1,0.01 -0.1,0.01 -0.1,0.01 -0.1,0.01 h -0.1 l -0.2,0.01 h -0.1 -0.1 -0.2 c -1.4,0 -2.2,0 -2.7,-1.89 l -5.99,-26.09 c -0.69,0 -1.85,0 -2.14,-0.11 -0.55,-0.3 -0.85,-0.8 -0.85,-1.44 0,-1.5 1.3,-1.5 2.14,-1.5 h 5.04 c 1,0 2.1,0 2.1,1.5 0,1.55 -1,1.55 -2.8,1.55 l 1.2,5.17 0.8,3.05 3.2,15.73 h 0.1 l 3.2,-15.73 h -6.5 l -0.8,-3.05 h 8.1 l 1.1,-5.17 c -1.8,0 -2.8,0 -2.8,-1.55 0,-1.5 1.2,-1.5 2.1,-1.5 h 5.1 c 0.9,0 2.2,0 2.2,1.5 0,0.64 -0.3,1.14 -0.9,1.39 -0.3,0.16 -1.4,0.16 -2.1,0.16 z"
           inkscape:connector-curvature="0"
           style="fill:#000000;stroke-width:0" /><path
           id="path862"
           d="m 1042.7,232.29 h 0.2 0.3 0.1 l 0.1,0.01 h 0.1 l 0.1,0.01 0.1,0.01 0.1,0.01 0.1,0.02 0.1,0.02 0.1,0.02 0.1,0.02 v 0.03 l 0.1,0.04 0.1,0.04 0.1,0.04 0.1,0.05 v 0.05 l 0.1,0.06 v 0.07 l 0.1,0.07 v 0.04 l 0.1,0.04 v 0.04 0.04 0.05 0.04 l 0.1,0.05 v 0.05 0.06 0.05 0.06 0.06 0.06 0.06 0.06 0.07 0.07 l 0.1,0.07 c 0,1.5 -1.3,1.5 -2.1,1.5 h -5.9 c -0.8,0 -2,0 -2,-1.5 0,-1.54 1.2,-1.54 2,-1.54 h 2.1 c -0.6,-5.58 -3.1,-7.93 -5.7,-7.93 -4,0 -7.8,5.39 -7.8,12.72 0,7.61 4,12.75 7.8,12.75 1.8,0 4.9,-1.15 5.8,-6.53 0.1,-0.84 0.4,-1.44 1.7,-1.44 1.7,0 1.7,1.05 1.7,2.04 v 6.93 c 0,0.8 0,2.03 -1.5,2.03 -1,0 -1.3,-0.54 -2,-2.23 -1.8,1.48 -3.8,2.23 -5.9,2.23 -5.9,0 -11.1,-6.71 -11.1,-15.73 0,-9.17 5.2,-15.8 11.1,-15.8 2.9,0 5,1.5 6,2.64 0,-1.09 0,-2.09 1.7,-2.09 1.7,0 1.7,1.09 1.7,2.05 z"
           inkscape:connector-curvature="0"
           style="fill:#000000;stroke-width:0" /><path
           id="path864"
           d="m 1062.2,250.97 v 0.09 0.08 0.09 0.08 l -0.1,0.07 v 0.08 0.07 0.07 l -0.1,0.13 v 0.12 l -0.1,0.12 -0.1,0.1 v 0.1 l -0.1,0.09 v 0.08 l -0.1,0.08 -0.1,0.06 v 0.07 l -0.1,0.05 -0.1,0.05 -0.1,0.04 -0.1,0.04 -0.1,0.04 v 0.03 l -0.1,0.02 -0.1,0.02 -0.1,0.02 -0.1,0.01 -0.2,0.01 -0.1,0.01 -0.1,0.01 h -0.1 l -0.1,0.01 h -0.2 -0.1 -0.2 c -1.4,0 -2.2,0 -2.7,-1.89 l -6,-26.09 c -0.7,0 -1.8,0 -2.1,-0.11 -0.6,-0.3 -0.9,-0.8 -0.9,-1.44 0,-1.5 1.3,-1.5 2.2,-1.5 h 5.1 c 0.9,0 2.1,0 2.1,1.5 0,1.55 -1,1.55 -2.8,1.55 l 1.1,5.17 0.8,3.05 3.2,15.73 h 0.1 l 3.2,-15.73 h -6.5 l -0.8,-3.05 h 8.1 l 1.1,-5.17 c -1.8,0 -2.8,0 -2.8,-1.55 0,-1.5 1.2,-1.5 2.1,-1.5 h 5.1 c 0.9,0 2.2,0 2.2,1.5 0,0.64 -0.3,1.14 -0.9,1.39 -0.3,0.16 -1.4,0.16 -2.1,0.16 z"
           inkscape:connector-curvature="0"
           style="fill:#000000;stroke-width:0" /><path
           id="path866"
           d="m 2052.2,209.93 v 0.02 0.03 0.01 0.02 0.01 0.02 0.01 0.02 0.02 0.02 0.02 0.03 0.02 l -0.1,0.03 v 0.03 0.03 0.03 l -0.1,0.04 v 0.02 0.02 0.02 0.02 0.02 l -0.1,0.03 v 0.02 0.02 0.03 l -0.1,0.02 v 0.03 0.03 0.03 l -0.1,0.03 v 0.03 0.03 0.03 l -0.1,0.03 v 0.04 0.03 l -0.1,0.04 v 0.03 l -0.1,0.04 v 0.04 c -6.2,6.28 -7.8,15.69 -7.8,23.31 0,8.67 1.9,17.35 8,23.56 0.6,0.61 0.6,0.71 0.6,0.86 0,0.35 -0.1,0.49 -0.4,0.49 -0.5,0 -5,-3.38 -8,-9.7 -2.5,-5.49 -3.1,-11.02 -3.1,-15.21 0,-3.89 0.5,-9.9 3.3,-15.54 3,-6.13 7.3,-9.36 7.8,-9.36 0.3,0 0.4,0.14 0.4,0.5 z"
           inkscape:connector-curvature="0"
           style="fill:#000000;stroke-width:0" /><path
           id="path868"
           d="m 2061.4,225.72 5.3,5.13 c 7.8,6.87 10.8,9.56 10.8,14.55 0,5.68 -4.5,9.67 -10.6,9.67 -5.6,0 -9.3,-4.6 -9.3,-9.03 0,-2.79 2.5,-2.79 2.6,-2.79 0.9,0 2.6,0.6 2.6,2.65 0,1.29 -0.9,2.59 -2.6,2.59 -0.4,0 -0.5,0 -0.7,-0.05 1.2,3.24 3.9,5.08 6.7,5.08 4.6,0 6.7,-4.05 6.7,-8.12 0,-3.99 -2.5,-7.93 -5.2,-11.02 l -9.6,-10.66 c -0.5,-0.54 -0.5,-0.64 -0.5,-1.84 h 18.5 l 1.4,8.67 h -1.3 c -0.2,-1.5 -0.6,-3.69 -1.1,-4.44 -0.3,-0.39 -3.6,-0.39 -4.7,-0.39 z"
           inkscape:connector-curvature="0"
           style="fill:#000000;stroke-width:0" /><path
           id="path870"
           d="m 2094.4,234.33 v 0.37 0.39 0.39 0.41 0.84 l -0.1,0.88 -0.1,0.92 -0.1,0.95 -0.1,0.97 -0.2,1.01 -0.2,1.02 -0.2,1.03 -0.3,1.05 -0.3,1.06 -0.3,1.07 -0.4,1.07 -0.2,0.53 -0.3,0.53 -0.2,0.53 -0.3,0.53 c -2.9,6.12 -7.2,9.36 -7.7,9.36 -0.3,0 -0.5,-0.19 -0.5,-0.49 0,-0.15 0,-0.25 0.9,-1.15 4.9,-4.92 7.8,-12.85 7.8,-23.27 0,-8.51 -1.9,-17.28 -8.1,-23.56 -0.6,-0.59 -0.6,-0.7 -0.6,-0.84 0,-0.3 0.2,-0.5 0.5,-0.5 0.5,0 5,3.39 7.9,9.72 2.5,5.46 3.1,11 3.1,15.18 z"
           inkscape:connector-curvature="0"
           style="fill:#000000;stroke-width:0" /><path
           id="path872"
           d="m 605.56,121 -0.13,-0.01 -0.13,-0.01 -0.12,-0.02 -0.12,-0.03 -0.12,-0.03 -0.12,-0.04 -0.11,-0.04 -0.11,-0.04 -0.11,-0.05 -0.11,-0.06 -0.1,-0.06 -0.09,-0.06 -0.09,-0.07 -0.09,-0.07 -0.09,-0.07 -0.08,-0.08 -0.08,-0.08 -0.07,-0.08 -0.07,-0.09 -0.06,-0.08 -0.06,-0.09 -0.06,-0.1 -0.05,-0.09 -0.04,-0.1 -0.04,-0.09 -0.04,-0.1 -0.03,-0.1 -0.02,-0.1 -0.02,-0.1 -0.02,-0.11 -0.01,-0.1 v -0.1 c 0,-0.7 0.44,-1.44 1.55,-1.44 1.09,0 2.28,0.85 2.28,2.78 0,2.25 -2.14,4.29 -5.92,4.29 -6.58,0 -8.42,-5.08 -8.42,-7.27 0,-3.89 3.68,-4.64 5.12,-4.94 2.6,-0.5 5.19,-1.05 5.19,-3.78 0,-1.3 -1.14,-5.48 -7.13,-5.48 -0.7,0 -4.53,0 -5.68,2.64 1.9,-0.25 3.14,1.25 3.14,2.64 0,1.14 -0.8,1.75 -1.85,1.75 -1.29,0 -2.78,-1.05 -2.78,-3.3 0,-2.84 2.85,-4.83 7.13,-4.83 8.06,0 10.01,6.03 10.01,8.27 0,1.8 -0.95,3.04 -1.54,3.64 -1.35,1.39 -2.8,1.64 -4.99,2.09 -1.8,0.39 -3.78,0.75 -3.78,2.99 0,1.45 1.19,4.48 5.58,4.48 1.23,0 3.73,-0.34 4.48,-2.28 z"
           inkscape:connector-curvature="0"
           style="fill:#000000;stroke-width:0" /><path
           id="path874"
           d="m 625.96,90.406 v 0.026 0.027 0.014 0.014 l -0.01,0.015 v 0.016 l -0.01,0.017 v 0.017 l -0.01,0.019 -0.01,0.021 -0.02,0.022 -0.01,0.023 -0.02,0.025 -0.01,0.027 -0.03,0.03 -0.02,0.031 -0.03,0.034 -0.03,0.036 -0.01,0.019 -0.02,0.02 -0.01,0.021 -0.02,0.021 -0.02,0.022 -0.02,0.022 -0.02,0.024 -0.03,0.024 -0.02,0.025 -0.02,0.026 -0.03,0.026 -0.02,0.028 -0.03,0.028 -0.03,0.029 -0.02,0.03 -0.03,0.032 -0.04,0.032 -0.03,0.032 -0.03,0.034 -0.03,0.035 -0.04,0.036 -0.04,0.037 -0.03,0.038 -0.04,0.039 c -6.22,6.281 -7.82,15.69 -7.82,23.31 0,8.67 1.9,17.35 8.02,23.57 0.64,0.6 0.64,0.7 0.64,0.85 0,0.35 -0.19,0.49 -0.48,0.49 -0.5,0 -4.99,-3.38 -7.93,-9.7 -2.54,-5.49 -3.14,-11.02 -3.14,-15.21 0,-3.89 0.55,-9.9 3.29,-15.544 2.98,-6.125 7.28,-9.36 7.78,-9.36 0.29,0 0.48,0.141 0.48,0.5 z"
           inkscape:connector-curvature="0"
           style="fill:#000000;stroke-width:0" /><path
           id="path876"
           d="m 645.43,117.41 0.03,0.13 0.04,0.15 0.04,0.16 0.05,0.18 0.05,0.19 0.06,0.21 0.07,0.22 0.07,0.22 0.08,0.23 0.09,0.24 0.09,0.25 0.1,0.24 0.11,0.25 0.12,0.25 0.13,0.25 0.14,0.25 0.15,0.24 0.16,0.24 0.16,0.23 0.18,0.22 0.19,0.22 0.19,0.2 0.21,0.19 0.22,0.18 0.24,0.16 0.24,0.14 0.13,0.07 0.13,0.06 0.13,0.05 0.14,0.05 0.14,0.05 0.14,0.04 0.14,0.03 0.15,0.03 0.15,0.02 0.16,0.02 0.16,0.01 h 0.16 c 0.25,0 1.44,0 2.48,-0.64 -1.38,-0.25 -2.38,-1.5 -2.38,-2.69 0,-0.79 0.54,-1.75 1.88,-1.75 1.1,0 2.69,0.89 2.69,2.89 0,2.6 -2.94,3.29 -4.62,3.29 -2.89,0 -4.64,-2.65 -5.24,-3.79 -1.25,3.29 -3.93,3.79 -5.37,3.79 -5.19,0 -8.03,-6.43 -8.03,-7.68 0,-0.5 0.5,-0.5 0.61,-0.5 0.39,0 0.54,0.11 0.64,0.55 1.69,5.28 4.98,6.53 6.67,6.53 0.95,0 2.69,-0.44 2.69,-3.33 0,-1.54 -0.85,-4.89 -2.69,-11.86 -0.8,-3.09 -2.53,-5.18 -4.73,-5.18 -0.3,0 -1.44,0 -2.49,0.65 1.25,0.24 2.34,1.28 2.34,2.69 0,1.34 -1.09,1.73 -1.84,1.73 -1.5,0 -2.75,-1.29 -2.75,-2.89 0,-2.28 2.5,-3.28 4.69,-3.28 3.3,0 5.08,3.49 5.23,3.78 0.6,-1.84 2.39,-3.78 5.38,-3.78 5.14,0 7.98,6.42 7.98,7.67 0,0.5 -0.45,0.5 -0.61,0.5 -0.43,0 -0.55,-0.2 -0.64,-0.54 -1.64,-5.33 -5.03,-6.53 -6.62,-6.53 -1.96,0 -2.75,1.59 -2.75,3.29 0,1.1 0.29,2.19 0.86,4.38 z"
           inkscape:connector-curvature="0"
           style="fill:#000000;stroke-width:0" /><path
           id="path878"
           d="m 667.34,102.41 v 0.3 l -0.01,0.3 -0.02,0.29 -0.03,0.28 -0.03,0.27 -0.04,0.26 -0.04,0.26 -0.05,0.24 -0.06,0.24 -0.07,0.23 -0.07,0.22 -0.07,0.21 -0.09,0.2 -0.09,0.19 -0.09,0.19 -0.1,0.17 -0.11,0.16 -0.11,0.16 -0.12,0.14 -0.12,0.13 -0.13,0.13 -0.13,0.11 -0.14,0.1 -0.15,0.1 -0.14,0.08 -0.16,0.07 -0.16,0.06 -0.16,0.05 -0.17,0.04 -0.17,0.03 -0.18,0.02 h -0.18 c -1.64,0 -2.64,-1.25 -2.64,-2.64 0,-1.34 1,-2.64 2.64,-2.64 0.6,0 1.25,0.2 1.75,0.64 0.14,0.11 0.2,0.16 0.25,0.16 0.05,0 0.1,-0.05 0.1,-0.75 0,-3.691 -1.74,-6.676 -3.4,-8.316 -0.54,-0.547 -0.54,-0.656 -0.54,-0.797 0,-0.359 0.25,-0.547 0.5,-0.547 0.54,0 4.53,3.828 4.53,9.66 z"
           inkscape:connector-curvature="0"
           style="fill:#000000;stroke-width:0" /><path
           id="path880"
           d="m 703.53,121.34 0.01,0.04 v 0.03 l 0.02,0.06 0.02,0.05 0.01,0.06 0.01,0.05 0.01,0.04 0.02,0.05 0.01,0.04 0.01,0.04 v 0.04 l 0.01,0.04 0.01,0.04 0.01,0.03 v 0.03 l 0.01,0.03 v 0.03 l 0.01,0.03 v 0.03 l 0.01,0.05 v 0.06 0.05 0.05 0.05 0.03 0.03 l 0.01,0.03 v 0.03 c 0,0.91 -0.69,1.35 -1.44,1.35 -0.5,0 -1.3,-0.3 -1.75,-1.05 -0.1,-0.25 -0.5,-1.78 -0.69,-2.69 -0.36,-1.29 -0.7,-2.64 -1,-3.98 l -2.25,-8.97 c -0.19,-0.75 -2.33,-4.23 -5.62,-4.23 -2.54,0 -3.1,2.18 -3.1,4.03 0,2.29 0.86,5.39 2.55,9.76 0.8,2.05 1,2.6 1,3.6 0,2.23 -1.6,4.08 -4.1,4.08 -4.73,0 -6.57,-7.22 -6.57,-7.68 0,-0.5 0.5,-0.5 0.6,-0.5 0.5,0 0.55,0.11 0.8,0.91 1.35,4.69 3.33,6.17 5.03,6.17 0.39,0 1.25,0 1.25,-1.59 0,-1.25 -0.5,-2.53 -0.86,-3.49 -1.98,-5.28 -2.89,-8.12 -2.89,-10.47 0,-4.42 3.14,-5.92 6.08,-5.92 1.96,0 3.64,0.85 5.03,2.24 -0.64,-2.58 -1.23,-5.034 -3.23,-7.675 -1.3,-1.687 -3.19,-3.141 -5.49,-3.141 -0.68,0 -2.93,0.157 -3.78,2.094 0.8,0 1.46,0 2.14,0.61 0.5,0.437 1,1.093 1,2.031 0,1.547 -1.34,1.75 -1.84,1.75 -1.14,0 -2.8,-0.797 -2.8,-3.235 0,-2.5 2.21,-4.343 5.28,-4.343 5.15,0 10.27,4.547 11.68,10.169 z"
           inkscape:connector-curvature="0"
           style="fill:#000000;stroke-width:0" /><path
           id="path882"
           d="m 719.98,114.81 v 0.37 l -0.01,0.39 -0.01,0.39 -0.01,0.41 -0.04,0.84 -0.06,0.88 -0.08,0.92 -0.11,0.95 -0.13,0.97 -0.17,1.01 -0.19,1.02 -0.23,1.03 -0.27,1.05 -0.31,1.06 -0.35,1.07 -0.39,1.07 -0.21,0.53 -0.23,0.53 -0.23,0.53 -0.25,0.53 c -2.99,6.12 -7.27,9.36 -7.77,9.36 -0.3,0 -0.5,-0.19 -0.5,-0.49 0,-0.15 0,-0.25 0.94,-1.15 4.89,-4.92 7.73,-12.85 7.73,-23.27 0,-8.51 -1.84,-17.279 -8.03,-23.56 -0.64,-0.594 -0.64,-0.703 -0.64,-0.844 0,-0.297 0.2,-0.5 0.5,-0.5 0.5,0 4.97,3.391 7.92,9.719 2.53,5.465 3.13,10.995 3.13,15.185 z"
           inkscape:connector-curvature="0"
           style="fill:#000000;stroke-width:0" /><path
           id="path884"
           d="m 809.05,118.66 h 0.14 0.15 0.14 l 0.08,0.01 h 0.07 l 0.07,0.01 0.07,0.01 0.07,0.01 0.07,0.01 0.07,0.01 0.07,0.02 0.06,0.02 0.06,0.02 0.06,0.02 0.06,0.03 0.06,0.03 0.05,0.04 0.05,0.03 0.05,0.05 0.04,0.04 0.04,0.05 0.02,0.03 0.02,0.03 0.01,0.02 0.02,0.03 0.01,0.04 0.02,0.03 0.01,0.03 0.01,0.04 0.01,0.03 0.01,0.04 0.01,0.04 v 0.04 l 0.01,0.04 v 0.04 0.05 0.04 c 0,1 -0.95,1 -1.64,1 h -29.84 c -0.71,0 -1.64,0 -1.64,-1 0,-0.98 0.93,-0.98 1.68,-0.98 z"
           inkscape:connector-curvature="0"
           style="fill:#000000;stroke-width:0" /><path
           id="path886"
           d="m 809.1,108.98 h 0.07 0.06 l 0.14,0.01 h 0.14 0.07 l 0.07,0.01 0.07,0.01 h 0.07 l 0.07,0.01 0.06,0.02 0.07,0.01 0.06,0.02 0.07,0.02 0.06,0.02 0.06,0.02 0.06,0.03 0.05,0.03 0.05,0.04 0.05,0.04 0.05,0.04 0.04,0.05 0.02,0.02 0.02,0.03 0.02,0.02 0.02,0.03 0.01,0.03 0.02,0.03 0.01,0.03 0.02,0.03 0.01,0.04 0.01,0.03 0.01,0.04 0.01,0.04 0.01,0.04 v 0.04 l 0.01,0.04 v 0.04 0.05 0.04 c 0,1 -0.95,1 -1.69,1 H 779.3 c -0.75,0 -1.68,0 -1.68,-1 0,-1 0.93,-1 1.64,-1 z"
           inkscape:connector-curvature="0"
           style="fill:#000000;stroke-width:0" /><path
           id="path888"
           d="m 885.87,96.41 -0.01,0.523 -0.04,0.538 -0.05,0.553 -0.08,0.567 -0.1,0.579 -0.13,0.589 -0.15,0.601 -0.17,0.61 -0.19,0.61 -0.22,0.62 -0.25,0.62 -0.27,0.63 -0.29,0.63 -0.32,0.63 -0.34,0.63 -0.37,0.63 -0.39,0.62 -0.42,0.62 -0.44,0.62 -0.47,0.6 -0.5,0.6 -0.53,0.59 -0.54,0.58 -0.58,0.57 -0.61,0.55 -0.63,0.54 -0.65,0.52 -0.69,0.51 -0.72,0.48 -0.74,0.47 -0.77,0.44 -0.8,0.43 c 5.38,2.89 11.82,8.72 12.41,18.03 l 0.05,0.3 v 34.53 c 0,4.08 0,4.98 0.4,6.87 0.89,3.99 3.28,8.92 9.61,12.66 0.39,0.25 0.46,0.3 0.46,1.19 0,1.09 -0.07,1.15 -1.16,1.15 -0.89,0 -0.98,0 -2.34,-0.79 -11.16,-6.33 -11.8,-15.6 -11.8,-17.35 v -35.42 c 0,-3.59 0,-7.63 -2.59,-12.2 -2.3,-4.1 -4.99,-6.14 -7.13,-7.58 -0.7,-0.46 -0.75,-0.5 -0.75,-1.35 0,-0.9 0.05,-0.95 0.45,-1.2 4.24,-2.78 8.77,-7.22 9.86,-15.343 0.16,-1.094 0.16,-1.187 0.16,-1.797 V 58.16 c 0,-4.047 2.48,-12.406 12.11,-17.5 1.14,-0.64 1.23,-0.64 2.03,-0.64 1.09,0 1.16,0.046 1.16,1.14 0,0.906 -0.07,0.953 -0.25,1.047 -2.14,1.344 -8.68,5.281 -10.02,13.953 -0.2,1.297 -0.2,1.391 -0.2,2.047 z"
           inkscape:connector-curvature="0"
           style="fill:#000000;stroke-width:0" /><path
           id="path890"
           d="m 923.85,147.77 h 13.91 c 0.69,0 1.64,0 1.64,1 0,1 -0.95,1 -1.64,1 h -13.91 v 13.96 c 0,0.68 0,1.64 -1,1.64 -0.98,0 -0.98,-0.96 -0.98,-1.64 v -13.96 h -13.95 c -0.7,0 -1.64,0 -1.64,-1 0,-1 0.94,-1 1.64,-1 h 13.95 v -13.93 c 0,-0.71 0,-1.66 0.98,-1.66 1,0 1,0.95 1,1.66 z"
           inkscape:connector-curvature="0"
           style="fill:#000000;stroke-width:0" /><path
           id="path892"
           d="m 956.88,168.21 v 0.06 0.05 0.05 0.05 0.05 0.05 0.04 0.05 0.04 l -0.01,0.04 v 0.04 0.04 0.04 0.04 l -0.01,0.03 v 0.03 l -0.01,0.07 -0.01,0.06 -0.01,0.05 -0.01,0.05 -0.02,0.05 -0.02,0.04 -0.02,0.04 -0.02,0.03 -0.03,0.04 -0.03,0.02 -0.04,0.03 -0.04,0.02 -0.04,0.02 -0.03,0.01 -0.02,0.01 h -0.03 l -0.02,0.01 -0.03,0.01 h -0.03 l -0.03,0.01 h -0.04 l -0.03,0.01 h -0.03 -0.04 l -0.04,0.01 h -0.04 -0.04 -0.04 -0.04 l -0.04,0.01 h -0.05 -0.05 -0.05 -0.05 -0.05 c -3.09,-3.19 -7.47,-3.19 -9.06,-3.19 v -1.55 c 1,0 3.93,0 6.51,1.3 v -25.81 c 0,-1.8 -0.14,-2.39 -4.62,-2.39 h -1.6 v -1.55 c 1.75,0.16 6.08,0.16 8.06,0.16 2,0 6.33,0 8.08,-0.16 v 1.55 h -1.59 c -4.49,0 -4.64,0.54 -4.64,2.39 z"
           inkscape:connector-curvature="0"
           style="fill:#000000;stroke-width:0" /><path
           id="path894"
           d="m 1025.8,158.34 -7,-0.55 v -1.55 c 3.3,0 3.7,-0.29 3.7,-2.73 V 140.1 c 0,-2.23 -0.5,-2.23 -3.9,-2.23 v -1.55 c 1.6,0.05 4.3,0.16 5.5,0.16 1.8,0 3.5,-0.11 5.2,-0.16 v 1.55 c -3.3,0 -3.5,0.25 -3.5,2.18 z"
           inkscape:connector-curvature="0"
           style="fill:#000000;stroke-width:0" /><path
           id="path896"
           d="m 1026,167.01 v 0.15 0.14 0.14 0.14 l -0.1,0.13 v 0.13 l -0.1,0.13 v 0.12 l -0.1,0.12 v 0.12 l -0.1,0.11 -0.1,0.1 v 0.11 l -0.1,0.09 -0.1,0.1 -0.1,0.09 -0.1,0.08 -0.1,0.08 -0.1,0.07 -0.1,0.07 -0.1,0.07 -0.1,0.06 -0.1,0.05 -0.1,0.05 -0.1,0.04 -0.2,0.04 -0.1,0.03 -0.1,0.03 -0.1,0.02 -0.2,0.02 h -0.1 l -0.1,0.01 c -1.6,0 -2.7,-1.35 -2.7,-2.64 0,-1.35 1.1,-2.64 2.7,-2.64 1.4,0 2.6,1.04 2.6,2.64 z"
           inkscape:connector-curvature="0"
           style="fill:#000000;stroke-width:0" /><path
           id="path898"
           d="m 1039.5,157.79 v 5.78 c 0,4.39 2.4,6.78 4.6,6.78 0.1,0 0.9,0 1.7,-0.36 -0.7,-0.19 -1.6,-0.84 -1.6,-2.08 0,-1.15 0.8,-2.15 2.2,-2.15 1.4,0 2.2,1 2.2,2.2 0,1.84 -1.9,3.49 -4.5,3.49 -3.5,0 -7.7,-2.65 -7.7,-7.93 v -5.73 h -4 v -1.55 h 4 V 140.1 c 0,-2.23 -0.6,-2.23 -3.9,-2.23 v -1.55 c 1.9,0.05 4.3,0.16 5.7,0.16 2,0 4.3,0 6.3,-0.16 v 1.55 h -1.1 c -3.6,0 -3.7,0.54 -3.7,2.34 v 16.03 h 5.6 v 1.55 z"
           inkscape:connector-curvature="0"
           style="fill:#000000;stroke-width:0" /><path
           id="path900"
           d="m 1079.2,151.37 0.1,0.13 v 0.15 0.16 l 0.1,0.18 v 0.2 l 0.1,0.2 0.1,0.22 v 0.22 l 0.1,0.24 0.1,0.23 0.1,0.25 0.1,0.25 0.1,0.25 0.1,0.25 0.2,0.24 0.1,0.25 0.1,0.24 0.2,0.24 0.2,0.23 0.1,0.23 0.2,0.21 0.2,0.2 0.2,0.19 0.3,0.18 0.2,0.16 0.2,0.14 0.2,0.07 0.1,0.06 0.1,0.05 0.2,0.05 0.1,0.05 0.1,0.04 0.2,0.03 0.1,0.03 0.2,0.02 0.1,0.02 0.2,0.01 h 0.2 c 0.2,0 1.4,0 2.5,-0.64 -1.4,-0.25 -2.4,-1.5 -2.4,-2.69 0,-0.79 0.5,-1.75 1.9,-1.75 1,0 2.6,0.89 2.6,2.89 0,2.6 -2.9,3.29 -4.6,3.29 -2.9,0 -4.6,-2.64 -5.2,-3.79 -1.3,3.29 -4,3.79 -5.4,3.79 -5.2,0 -8,-6.43 -8,-7.68 0,-0.5 0.5,-0.5 0.6,-0.5 0.4,0 0.5,0.11 0.6,0.55 1.7,5.28 5,6.53 6.7,6.53 0.9,0 2.7,-0.44 2.7,-3.33 0,-1.54 -0.9,-4.89 -2.7,-11.86 -0.8,-3.09 -2.5,-5.18 -4.7,-5.18 -0.3,0 -1.5,0 -2.5,0.65 1.2,0.24 2.3,1.28 2.3,2.69 0,1.34 -1.1,1.74 -1.8,1.74 -1.5,0 -2.8,-1.3 -2.8,-2.9 0,-2.28 2.5,-3.28 4.7,-3.28 3.3,0 5.1,3.49 5.2,3.78 0.6,-1.84 2.4,-3.78 5.4,-3.78 5.2,0 8,6.43 8,7.68 0,0.5 -0.4,0.5 -0.6,0.5 -0.4,0 -0.5,-0.21 -0.6,-0.55 -1.7,-5.33 -5.1,-6.53 -6.7,-6.53 -1.9,0 -2.7,1.59 -2.7,3.29 0,1.1 0.3,2.19 0.8,4.38 z"
           inkscape:connector-curvature="0"
           style="fill:#000000;stroke-width:0" /><path
           id="path902"
           d="m 1139.2,152.62 h 0.1 0.2 0.1 l 0.1,0.01 h 0.1 v 0.01 l 0.1,0.01 0.1,0.01 v 0.01 l 0.1,0.01 0.1,0.02 v 0.02 l 0.1,0.02 0.1,0.02 v 0.03 l 0.1,0.03 v 0.04 l 0.1,0.04 v 0.04 l 0.1,0.04 v 0.05 0.03 0.03 l 0.1,0.03 v 0.03 0.03 0.03 0.03 0.04 0.03 0.04 l 0.1,0.04 v 0.04 0.04 0.04 0.05 0.04 c 0,1 -1,1 -1.7,1 h -29.8 c -0.7,0 -1.6,0 -1.6,-1 0,-0.98 0.9,-0.98 1.6,-0.98 z"
           inkscape:connector-curvature="0"
           style="fill:#000000;stroke-width:0" /><path
           id="path904"
           d="m 1139.2,142.95 h 0.1 0.1 0.1 0.1 l 0.1,0.01 h 0.1 v 0.01 l 0.1,0.01 0.1,0.01 0.1,0.01 v 0.01 l 0.1,0.02 v 0.02 l 0.1,0.02 0.1,0.02 v 0.03 l 0.1,0.03 v 0.04 l 0.1,0.04 v 0.04 l 0.1,0.05 v 0.02 0.03 0.02 0.03 l 0.1,0.03 v 0.03 0.03 0.04 0.03 0.03 0.04 0.04 l 0.1,0.04 v 0.04 0.04 0.04 0.05 0.05 c 0,1 -1,1 -1.7,1 h -29.8 c -0.7,0 -1.6,0 -1.6,-1 0,-1 0.9,-1 1.6,-1 z"
           inkscape:connector-curvature="0"
           style="fill:#000000;stroke-width:0" /><path
           id="path906"
           d="m 1181.7,155.3 v 0.04 0.03 l 0.1,0.06 v 0.05 0.06 0.05 0.05 0.04 0.04 0.05 0.03 l 0.1,0.04 v 0.04 0.03 0.03 0.03 0.03 0.03 0.03 0.05 0.06 0.05 0.05 0.06 0.02 0.03 0.03 0.04 c 0,0.9 -0.7,1.34 -1.4,1.34 -0.5,0 -1.3,-0.3 -1.8,-1.05 -0.1,-0.25 -0.5,-1.78 -0.7,-2.69 -0.3,-1.29 -0.7,-2.64 -1,-3.98 l -2.2,-8.97 c -0.2,-0.75 -2.3,-4.23 -5.6,-4.23 -2.6,0 -3.1,2.18 -3.1,4.03 0,2.3 0.8,5.39 2.5,9.76 0.8,2.05 1,2.6 1,3.6 0,2.23 -1.6,4.08 -4.1,4.08 -4.7,0 -6.6,-7.22 -6.6,-7.68 0,-0.5 0.5,-0.5 0.7,-0.5 0.5,0 0.5,0.11 0.7,0.91 1.4,4.69 3.4,6.17 5.1,6.17 0.4,0 1.2,0 1.2,-1.59 0,-1.25 -0.5,-2.53 -0.8,-3.49 -2,-5.28 -2.9,-8.12 -2.9,-10.46 0,-4.43 3.1,-5.93 6.1,-5.93 1.9,0 3.6,0.85 5,2.24 -0.7,-2.58 -1.2,-5.03 -3.2,-7.67 -1.3,-1.69 -3.2,-3.15 -5.5,-3.15 -0.7,0 -3,0.16 -3.8,2.1 0.8,0 1.4,0 2.1,0.61 0.5,0.44 1,1.09 1,2.03 0,1.55 -1.3,1.75 -1.8,1.75 -1.2,0 -2.8,-0.8 -2.8,-3.23 0,-2.51 2.2,-4.35 5.3,-4.35 5.1,0 10.2,4.55 11.6,10.17 z"
           inkscape:connector-curvature="0"
           style="fill:#000000;stroke-width:0" /><path
           id="path908"
           d="m 926.4,80.496 v 0.747 l -0.01,0.747 -0.02,0.747 -0.03,0.745 -0.05,0.744 -0.06,0.741 -0.08,0.739 -0.09,0.735 -0.12,0.732 -0.14,0.728 -0.16,0.723 -0.19,0.718 -0.21,0.713 -0.25,0.706 -0.28,0.699 -0.15,0.347 -0.16,0.345 c -2.28,4.797 -6.37,5.594 -8.47,5.594 -2.98,0 -6.62,-1.297 -8.67,-5.937 -1.59,-3.438 -1.84,-7.329 -1.84,-11.313 0,-3.734 0.2,-8.219 2.25,-12 2.14,-4.031 5.78,-5.031 8.22,-5.031 v 1.094 c -1.94,0 -4.89,1.25 -5.79,6.031 -0.54,2.984 -0.54,7.562 -0.54,10.515 0,3.188 0,6.469 0.41,9.157 0.93,5.937 4.67,6.375 5.92,6.375 1.64,0 4.93,-0.891 5.87,-5.828 0.5,-2.782 0.5,-6.579 0.5,-9.704 0,-3.75 0,-7.125 -0.54,-10.312 -0.75,-4.734 -3.6,-6.234 -5.83,-6.234 v 0 -1.094 c 2.68,0 6.46,1.047 8.67,5.781 1.59,3.438 1.84,7.313 1.84,11.25 z"
           inkscape:connector-curvature="0"
           style="fill:#000000;stroke-width:0" /><path
           id="path910"
           d="m 1022.5,76.074 0.1,1.047 c 0.3,7.422 4.5,8.656 6.2,8.656 5.1,0 5.6,-6.718 5.6,-8.656 h -11.8 l -0.1,-1.047 h 13.9 c 1.1,0 1.3,0 1.3,1.047 0,4.922 -2.7,9.75 -8.9,9.75 -5.8,0 -10.4,-5.125 -10.4,-11.359 0,-6.672 5.2,-11.5 11,-11.5 6,0 8.3,5.531 8.3,6.468 0,0.5 -0.4,0.61 -0.7,0.61 -0.4,0 -0.5,-0.297 -0.6,-0.703 -1.8,-5.125 -6.2,-5.125 -6.7,-5.125 -2.5,0 -4.5,1.484 -5.7,3.328 -1.5,2.39 -1.5,5.687 -1.5,7.484 z"
           inkscape:connector-curvature="0"
           style="fill:#000000;stroke-width:0" /><path
           id="path912"
           d="m 1047.9,99.137 -7.2,-0.547 v -1.547 c 3.5,0 3.9,-0.344 3.9,-2.797 V 68.34 c 0,-2.235 -0.5,-2.235 -3.9,-2.235 v -1.546 c 1.7,0.046 4.3,0.156 5.5,0.156 1.3,0 3.7,-0.11 5.6,-0.156 v 1.546 c -3.4,0 -3.9,0 -3.9,2.235 z"
           inkscape:connector-curvature="0"
           style="fill:#000000;stroke-width:0" /><path
           id="path914"
           d="m 1063.2,74.23 0.1,-0.02 0.2,-0.025 0.1,-0.029 0.2,-0.034 0.1,-0.039 0.2,-0.044 0.2,-0.05 0.2,-0.057 0.2,-0.063 0.2,-0.07 0.2,-0.078 0.3,-0.086 0.2,-0.094 0.2,-0.103 0.2,-0.111 0.2,-0.122 0.2,-0.131 0.3,-0.142 0.2,-0.152 0.2,-0.164 0.2,-0.175 0.1,-0.187 0.2,-0.2 0.2,-0.212 0.1,-0.225 0.1,-0.118 v -0.121 l 0.1,-0.125 v -0.128 l 0.1,-0.132 v -0.135 l 0.1,-0.14 v -0.142 -0.147 l 0.1,-0.151 v -0.154 -0.159 -0.162 -0.166 c 0,-2.532 -1.7,-4.532 -5.6,-4.532 -4.2,0 -6,2.844 -6.9,7.079 -0.2,0.64 -0.2,0.843 -0.7,0.843 -0.7,0 -0.7,-0.343 -0.7,-1.25 v -6.578 c 0,-0.844 0,-1.187 0.6,-1.187 0.2,0 0.3,0.047 1.2,1 0.1,0.093 0.1,0.187 1,1.14 2.2,-2.093 4.5,-2.14 5.5,-2.14 5.7,0 8,3.343 8,6.922 0,2.64 -1.5,4.14 -2.1,4.734 -1.6,1.594 -3.6,2 -5.7,2.391 -2.8,0.546 -6.1,1.203 -6.1,4.093 0,1.735 1.3,3.782 5.6,3.782 5.5,0 5.7,-4.485 5.8,-6.032 0.1,-0.453 0.5,-0.453 0.6,-0.453 0.7,0 0.7,0.25 0.7,1.203 v 5.032 c 0,0.843 0,1.187 -0.6,1.187 -0.2,0 -0.3,0 -1,-0.594 -0.1,-0.203 -0.6,-0.64 -0.8,-0.797 -1.9,1.391 -4,1.391 -4.7,1.391 -6.1,0 -8,-3.328 -8,-6.125 0,-1.734 0.8,-3.141 2.2,-4.234 1.5,-1.297 3,-1.594 6.5,-2.282 z"
           inkscape:connector-curvature="0"
           style="fill:#000000;stroke-width:0" /><path
           id="path916"
           d="m 1078.1,76.074 v 1.047 c 0.3,7.422 4.5,8.656 6.2,8.656 5.1,0 5.6,-6.718 5.6,-8.656 h -11.8 v -1.047 h 13.9 c 1.1,0 1.2,0 1.2,1.047 0,4.922 -2.7,9.75 -8.9,9.75 -5.8,0 -10.4,-5.125 -10.4,-11.359 0,-6.672 5.3,-11.5 11,-11.5 6.1,0 8.3,5.531 8.3,6.468 0,0.5 -0.4,0.61 -0.6,0.61 -0.5,0 -0.6,-0.297 -0.7,-0.703 -1.7,-5.125 -6.2,-5.125 -6.7,-5.125 -2.5,0 -4.5,1.484 -5.6,3.328 -1.5,2.39 -1.5,5.687 -1.5,7.484 z"
           inkscape:connector-curvature="0"
           style="fill:#000000;stroke-width:0" /><path
           id="path918"
           d="m 1274,121.19 v 0.13 0.14 0.13 l -0.1,0.13 v 0.13 0.12 l -0.1,0.12 v 0.12 l -0.1,0.12 v 0.11 l -0.1,0.11 -0.1,0.11 v 0.11 l -0.1,0.1 -0.1,0.09 -0.1,0.09 -0.1,0.09 -0.1,0.08 -0.1,0.08 -0.1,0.08 -0.1,0.06 -0.1,0.07 -0.1,0.06 -0.1,0.05 -0.1,0.05 -0.2,0.04 -0.1,0.03 -0.1,0.03 -0.1,0.03 -0.2,0.01 -0.1,0.01 -0.1,0.01 c -1.5,0 -2.7,-1.19 -2.7,-2.64 0,-1.44 1.2,-2.64 2.7,-2.64 1.4,0 2.6,1.2 2.6,2.64 z"
           inkscape:connector-curvature="0"
           style="fill:#000000;stroke-width:0" /><path
           id="path920"
           d="m 1274,105 v 0.13 0.14 0.13 l -0.1,0.13 v 0.12 0.13 l -0.1,0.12 v 0.12 l -0.1,0.12 v 0.11 l -0.1,0.11 -0.1,0.11 v 0.1 l -0.1,0.1 -0.1,0.1 -0.1,0.09 -0.1,0.09 -0.1,0.08 -0.1,0.08 -0.1,0.07 -0.1,0.07 -0.1,0.07 -0.1,0.06 -0.1,0.05 -0.1,0.05 -0.2,0.04 -0.1,0.04 -0.1,0.03 -0.1,0.02 -0.2,0.02 -0.1,0.01 h -0.1 c -1.5,0 -2.7,-1.2 -2.7,-2.64 0,-1.44 1.2,-2.64 2.7,-2.64 1.4,0 2.6,1.2 2.6,2.64 z"
           inkscape:connector-curvature="0"
           style="fill:#000000;stroke-width:0" /><path
           id="path922"
           d="m 1310.8,112.03 0.1,-0.02 0.1,-0.02 0.2,-0.03 0.1,-0.04 0.2,-0.04 0.2,-0.04 0.2,-0.05 0.2,-0.06 0.2,-0.06 0.2,-0.07 0.2,-0.08 0.2,-0.08 0.2,-0.1 0.3,-0.1 0.2,-0.11 0.2,-0.12 0.2,-0.14 0.2,-0.14 0.2,-0.15 0.2,-0.16 0.2,-0.18 0.2,-0.19 0.2,-0.19 0.1,-0.22 0.2,-0.22 v -0.12 l 0.1,-0.12 0.1,-0.13 v -0.12 l 0.1,-0.14 v -0.13 -0.14 l 0.1,-0.14 v -0.15 -0.15 l 0.1,-0.15 v -0.16 -0.17 -0.16 c 0,-2.53 -1.8,-4.53 -5.6,-4.53 -4.2,0 -6,2.84 -7,7.07 -0.1,0.64 -0.2,0.85 -0.7,0.85 -0.6,0 -0.6,-0.35 -0.6,-1.25 V 103 c 0,-0.84 0,-1.19 0.5,-1.19 0.3,0 0.3,0.05 1.3,1 0.1,0.1 0.1,0.19 1,1.14 2.2,-2.09 4.4,-2.14 5.5,-2.14 5.7,0 8,3.35 8,6.92 0,2.65 -1.5,4.15 -2.1,4.74 -1.7,1.59 -3.6,2 -5.7,2.39 -2.8,0.55 -6.1,1.2 -6.1,4.09 0,1.74 1.3,3.78 5.6,3.78 5.4,0 5.7,-4.48 5.8,-6.03 0,-0.45 0.5,-0.45 0.6,-0.45 0.6,0 0.6,0.25 0.6,1.2 v 5.03 c 0,0.85 0,1.19 -0.5,1.19 -0.3,0 -0.4,0 -1,-0.59 -0.2,-0.2 -0.7,-0.64 -0.9,-0.8 -1.9,1.39 -3.9,1.39 -4.6,1.39 -6.1,0 -8,-3.33 -8,-6.12 0,-1.74 0.8,-3.14 2.1,-4.24 1.6,-1.29 3,-1.59 6.6,-2.28 z"
           inkscape:connector-curvature="0"
           style="fill:#000000;stroke-width:0" /><path
           id="path924"
           d="m 1328.9,124.38 -6.9,-0.55 v -1.55 c 3.2,0 3.7,-0.3 3.7,-2.73 v -13.41 c 0,-2.23 -0.6,-2.23 -3.9,-2.23 v -1.55 c 1.5,0.05 4.2,0.16 5.4,0.16 1.8,0 3.5,-0.11 5.2,-0.16 v 1.55 c -3.3,0 -3.5,0.25 -3.5,2.18 z"
           inkscape:connector-curvature="0"
           style="fill:#000000;stroke-width:0" /><path
           id="path926"
           d="m 1329.1,133.05 v 0.14 0.15 0.14 0.14 l -0.1,0.13 v 0.13 0.13 l -0.1,0.12 v 0.12 l -0.1,0.12 -0.1,0.11 v 0.1 l -0.1,0.11 -0.1,0.09 -0.1,0.1 -0.1,0.09 -0.1,0.08 -0.1,0.08 -0.1,0.07 -0.1,0.07 -0.1,0.07 -0.1,0.06 -0.1,0.05 -0.1,0.05 -0.1,0.04 -0.2,0.04 -0.1,0.03 -0.1,0.03 -0.1,0.02 -0.2,0.02 h -0.1 l -0.1,0.01 c -1.6,0 -2.7,-1.35 -2.7,-2.64 0,-1.35 1.1,-2.64 2.7,-2.64 1.4,0 2.6,1.04 2.6,2.64 z"
           inkscape:connector-curvature="0"
           style="fill:#000000;stroke-width:0" /><path
           id="path928"
           d="m 1339.4,119.5 v -13.36 c 0,-2.23 -0.6,-2.23 -3.9,-2.23 v -1.55 c 1.8,0.05 4.3,0.16 5.6,0.16 1.3,0 3.9,-0.11 5.6,-0.16 v 1.55 c -3.3,0 -3.9,0 -3.9,2.23 v 9.17 c 0,5.19 3.6,7.97 6.8,7.97 3.1,0 3.6,-2.69 3.6,-5.53 v -11.61 c 0,-2.23 -0.5,-2.23 -3.9,-2.23 v -1.55 c 1.8,0.05 4.4,0.16 5.7,0.16 1.3,0 3.9,-0.11 5.6,-0.16 v 1.55 c -3.4,0 -3.9,0 -3.9,2.23 v 9.17 c 0,5.19 3.5,7.97 6.7,7.97 3.2,0 3.7,-2.69 3.7,-5.53 v -11.61 c 0,-2.23 -0.5,-2.23 -3.9,-2.23 v -1.55 c 1.7,0.05 4.3,0.16 5.6,0.16 1.3,0 3.9,-0.11 5.6,-0.16 v 1.55 c -2.6,0 -3.8,0 -3.9,1.5 v 9.51 c 0,4.28 0,5.83 -1.5,7.61 -0.7,0.86 -2.3,1.85 -5.2,1.85 -4.2,0 -6.4,-2.99 -7.3,-4.88 -0.7,4.33 -4.3,4.88 -6.6,4.88 -3.6,0 -6,-2.15 -7.4,-5.22 v 5.22 l -7,-0.55 v -1.55 c 3.5,0 3.9,-0.34 3.9,-2.78 z"
           inkscape:connector-curvature="0"
           style="fill:#000000;stroke-width:0" /><path
           id="path930"
           d="m 1384.2,124.38 -6.9,-0.55 v -1.55 c 3.2,0 3.7,-0.3 3.7,-2.73 v -13.41 c 0,-2.23 -0.6,-2.23 -3.9,-2.23 v -1.55 c 1.6,0.05 4.3,0.16 5.5,0.16 1.7,0 3.4,-0.11 5.2,-0.16 v 1.55 c -3.4,0 -3.6,0.25 -3.6,2.18 z"
           inkscape:connector-curvature="0"
           style="fill:#000000;stroke-width:0" /><path
           id="path932"
           d="m 1384.4,133.05 v 0.14 0.15 0.14 0.14 0.13 l -0.1,0.13 v 0.13 l -0.1,0.12 v 0.12 l -0.1,0.12 v 0.11 l -0.1,0.1 -0.1,0.11 -0.1,0.09 -0.1,0.1 v 0.09 l -0.1,0.08 -0.1,0.08 -0.1,0.07 -0.1,0.07 -0.2,0.07 -0.1,0.06 -0.1,0.05 -0.1,0.05 -0.1,0.04 -0.1,0.04 -0.2,0.03 -0.1,0.03 -0.1,0.02 -0.1,0.02 h -0.2 l -0.1,0.01 c -1.5,0 -2.6,-1.35 -2.6,-2.64 0,-1.35 1.1,-2.64 2.6,-2.64 1.4,0 2.6,1.04 2.6,2.64 z"
           inkscape:connector-curvature="0"
           style="fill:#000000;stroke-width:0" /><path
           id="path934"
           d="m 1398,136.94 -7.1,-0.55 v -1.55 c 3.5,0 3.9,-0.34 3.9,-2.79 v -25.91 c 0,-2.23 -0.6,-2.23 -3.9,-2.23 v -1.55 c 1.6,0.05 4.3,0.16 5.5,0.16 1.3,0 3.7,-0.11 5.5,-0.16 v 1.55 c -3.3,0 -3.9,0 -3.9,2.23 z"
           inkscape:connector-curvature="0"
           style="fill:#000000;stroke-width:0" /><path
           id="path936"
           d="m 1419.6,106.14 v -0.19 l 0.1,-0.18 v -0.19 -0.18 l 0.1,-0.19 0.1,-0.18 v -0.18 l 0.1,-0.18 0.1,-0.18 v -0.17 l 0.1,-0.17 0.1,-0.17 0.1,-0.16 0.1,-0.16 0.1,-0.15 0.2,-0.15 0.1,-0.14 0.1,-0.14 0.2,-0.13 0.1,-0.12 0.2,-0.11 0.1,-0.11 0.2,-0.1 0.1,-0.09 0.2,-0.08 0.2,-0.07 0.2,-0.06 0.2,-0.05 0.2,-0.04 0.2,-0.03 0.2,-0.02 0.2,-0.01 c 1,0 4.1,0.71 4.1,4.74 v 2.78 h -1.3 v -2.78 c 0,-2.89 -1.2,-3.19 -1.8,-3.19 -1.6,0 -1.8,2.23 -1.8,2.48 v 9.97 c 0,2.1 0,4.03 -1.8,5.88 -1.9,1.94 -4.4,2.73 -6.8,2.73 -4.1,0 -7.5,-2.33 -7.5,-5.62 0,-1.49 1,-2.35 2.3,-2.35 1.3,0 2.3,1 2.3,2.3 0,0.59 -0.3,2.23 -2.6,2.3 1.3,1.73 3.8,2.28 5.4,2.28 2.4,0 5.3,-1.94 5.3,-6.38 v -1.84 -1.05 -4.98 c 0,-4.74 -3.6,-6.42 -5.9,-6.42 -2.4,0 -4.5,1.75 -4.5,4.23 0,2.74 2.1,6.88 10.4,7.17 v 0 1.05 c -2.6,-0.14 -6.1,-0.3 -9.2,-1.8 -3.7,-1.68 -5,-4.28 -5,-6.47 0,-4.03 4.8,-5.28 8,-5.28 3.3,0 5.6,1.99 6.5,4.33 z"
           inkscape:connector-curvature="0"
           style="fill:#000000;stroke-width:0" /><path
           id="path938"
           d="m 1436.3,118.91 v 5.47 l -6.9,-0.55 v -1.55 c 3.5,0 3.9,-0.34 3.9,-2.78 v -13.36 c 0,-2.23 -0.6,-2.23 -3.9,-2.23 v -1.55 c 1.9,0.05 4.3,0.16 5.7,0.16 2,0 4.3,0 6.3,-0.16 v 1.55 h -1.1 c -3.6,0 -3.7,0.54 -3.7,2.34 v 7.67 c 0,4.92 2,9.36 5.8,9.36 0.4,0 0.5,0 0.6,-0.05 -0.2,-0.04 -1.2,-0.64 -1.2,-1.93 0,-1.41 1.1,-2.14 2.2,-2.14 0.9,0 2.1,0.59 2.1,2.18 0,1.6 -1.5,3.04 -3.7,3.04 -3.6,0 -5.4,-3.33 -6.1,-5.47 z"
           inkscape:connector-curvature="0"
           style="fill:#000000;stroke-width:0" /><path
           id="path940"
           d="m 1456.4,124.38 -7,-0.55 v -1.55 c 3.2,0 3.7,-0.3 3.7,-2.73 v -13.41 c 0,-2.23 -0.6,-2.23 -3.9,-2.23 v -1.55 c 1.6,0.05 4.3,0.16 5.5,0.16 1.7,0 3.5,-0.11 5.2,-0.16 v 1.55 c -3.3,0 -3.5,0.25 -3.5,2.18 z"
           inkscape:connector-curvature="0"
           style="fill:#000000;stroke-width:0" /><path
           id="path942"
           d="m 1456.6,133.05 v 0.14 l -0.1,0.15 v 0.14 0.14 0.13 l -0.1,0.13 v 0.13 l -0.1,0.12 v 0.12 l -0.1,0.12 v 0.11 l -0.1,0.1 -0.1,0.11 -0.1,0.09 v 0.1 l -0.1,0.09 -0.1,0.08 -0.1,0.08 -0.1,0.07 -0.1,0.07 -0.1,0.07 -0.2,0.06 -0.1,0.05 -0.1,0.05 -0.1,0.04 -0.1,0.04 -0.1,0.03 -0.2,0.03 -0.1,0.02 -0.1,0.02 h -0.2 l -0.1,0.01 c -1.5,0 -2.6,-1.35 -2.6,-2.64 0,-1.35 1.1,-2.64 2.6,-2.64 1.4,0 2.7,1.04 2.7,2.64 z"
           inkscape:connector-curvature="0"
           style="fill:#000000;stroke-width:0" /><path
           id="path944"
           d="m 1470,122.28 h 7.1 v 1.55 H 1470 V 133 h -1.3 c 0,-4.08 -1.5,-9.42 -6.4,-9.61 v -1.11 h 4.2 v -13.75 c 0,-6.12 4.7,-6.72 6.4,-6.72 3.6,0 5,3.53 5,6.72 v 2.85 h -1.3 v -2.74 c 0,-3.69 -1.5,-5.58 -3.3,-5.58 -3.3,0 -3.3,4.53 -3.3,5.38 z"
           inkscape:connector-curvature="0"
           style="fill:#000000;stroke-width:0" /><path
           id="path946"
           d="m 1499.9,119.09 0.1,0.15 v 0.14 l 0.1,0.14 v 0.13 l 0.1,0.12 0.1,0.13 0.1,0.12 v 0.11 l 0.2,0.22 0.1,0.2 0.2,0.19 0.1,0.18 0.2,0.16 0.2,0.14 0.1,0.14 0.2,0.12 0.2,0.11 0.2,0.1 0.1,0.09 0.2,0.08 0.2,0.08 0.1,0.06 0.2,0.05 0.2,0.05 0.1,0.04 0.2,0.03 0.1,0.03 0.1,0.02 0.2,0.02 0.1,0.02 0.1,0.01 h 0.2 l 0.1,0.01 h 0.1 v 0 h 0.1 v 1.55 c -1.1,-0.1 -2.6,-0.14 -3.7,-0.14 -0.9,0 -3.3,0.09 -4.4,0.14 v -1.55 c 1.6,-0.05 2.4,-0.89 2.4,-2.14 0,-0.5 0,-0.59 -0.3,-1.19 l -5,-12.26 -5.6,13.4 c -0.2,0.5 -0.3,0.71 -0.3,0.91 0,1.28 1.9,1.28 2.8,1.28 v 1.55 c -1.3,-0.05 -4.6,-0.14 -5.4,-0.14 -1.3,0 -3.3,0.04 -4.8,0.14 v -1.55 c 2.4,0 3.3,0 4,-1.73 l 7.5,-18.19 c -0.3,-0.64 -1,-2.3 -1.3,-2.938 -1.1,-2.734 -2.5,-6.188 -5.6,-6.188 -0.3,0 -1.4,0 -2.4,0.907 1.5,0.203 1.9,1.297 1.9,2.093 0,1.297 -0.9,2.094 -2,2.094 -1,0 -2.1,-0.656 -2.1,-2.14 0,-2.25 2.1,-4.047 4.6,-4.047 3.1,0 5.1,2.843 6.3,5.687 z"
           inkscape:connector-curvature="0"
           style="fill:#000000;stroke-width:0" /><path
           id="path948"
           d="m 1532.5,112.03 0.1,-0.02 0.2,-0.02 0.1,-0.03 0.2,-0.04 0.1,-0.04 0.2,-0.04 0.2,-0.05 0.2,-0.06 0.2,-0.06 0.2,-0.07 0.2,-0.08 0.3,-0.08 0.2,-0.1 0.2,-0.1 0.2,-0.11 0.2,-0.12 0.3,-0.14 0.2,-0.14 0.2,-0.15 0.2,-0.16 0.2,-0.18 0.1,-0.19 0.2,-0.19 0.2,-0.22 0.1,-0.22 0.1,-0.12 v -0.12 l 0.1,-0.13 v -0.12 l 0.1,-0.14 v -0.13 l 0.1,-0.14 v -0.14 -0.15 l 0.1,-0.15 v -0.15 -0.16 -0.17 -0.16 c 0,-2.53 -1.7,-4.53 -5.6,-4.53 -4.2,0 -6,2.84 -6.9,7.07 -0.2,0.64 -0.2,0.85 -0.7,0.85 -0.7,0 -0.7,-0.35 -0.7,-1.25 V 103 c 0,-0.84 0,-1.19 0.6,-1.19 0.2,0 0.3,0.05 1.2,1 0.1,0.1 0.1,0.19 1,1.14 2.2,-2.09 4.5,-2.14 5.5,-2.14 5.7,0 8,3.35 8,6.92 0,2.65 -1.5,4.15 -2.1,4.74 -1.6,1.59 -3.6,2 -5.7,2.39 -2.7,0.55 -6.1,1.2 -6.1,4.09 0,1.74 1.3,3.78 5.6,3.78 5.5,0 5.7,-4.48 5.8,-6.03 0.1,-0.45 0.5,-0.45 0.6,-0.45 0.7,0 0.7,0.25 0.7,1.2 v 5.03 c 0,0.85 0,1.19 -0.6,1.19 -0.2,0 -0.3,0 -1,-0.59 -0.1,-0.2 -0.6,-0.64 -0.8,-0.8 -1.9,1.39 -4,1.39 -4.7,1.39 -6.1,0 -8,-3.33 -8,-6.12 0,-1.74 0.8,-3.14 2.1,-4.24 1.7,-1.29 3,-1.59 6.6,-2.28 z"
           inkscape:connector-curvature="0"
           style="fill:#000000;stroke-width:0" /><path
           id="path950"
           d="m 1547.7,113.22 v 0.38 0.36 0.36 0.35 l 0.1,0.34 v 0.34 0.32 l 0.1,0.32 v 0.31 l 0.1,0.3 v 0.29 l 0.1,0.29 0.1,0.55 0.2,0.51 0.1,0.49 0.2,0.46 0.2,0.43 0.2,0.4 0.2,0.38 0.3,0.35 0.2,0.32 0.3,0.31 0.2,0.27 0.3,0.26 0.2,0.23 0.3,0.21 0.3,0.19 0.3,0.16 0.3,0.15 0.2,0.13 0.3,0.12 0.3,0.09 0.3,0.08 0.3,0.06 0.2,0.05 0.3,0.03 0.3,0.02 0.2,0.01 c 0.4,0 3.6,-0.05 5.3,-1.85 -2,-0.15 -2.3,-1.64 -2.3,-2.29 0,-1.3 0.9,-2.3 2.3,-2.3 1.3,0 2.3,0.86 2.3,2.34 0,3.39 -3.8,5.33 -7.7,5.33 -6.2,0 -10.8,-5.37 -10.8,-11.55 0,-6.37 5,-11.31 10.8,-11.31 6.6,0 8.2,5.99 8.2,6.47 0,0.5 -0.5,0.5 -0.6,0.5 -0.5,0 -0.6,-0.19 -0.7,-0.5 -1.4,-4.62 -4.6,-5.22 -6.5,-5.22 -2.6,0 -7,2.14 -7,10.16 z"
           inkscape:connector-curvature="0"
           style="fill:#000000;stroke-width:0" /><path
           id="path952"
           d="m 1587.4,113.02 v 0.59 l -0.1,0.59 v 0.58 l -0.1,0.57 -0.2,0.56 -0.1,0.55 -0.2,0.54 -0.2,0.53 -0.2,0.51 -0.2,0.5 -0.3,0.49 -0.3,0.48 -0.3,0.45 -0.3,0.44 -0.4,0.43 -0.3,0.4 -0.4,0.39 -0.4,0.37 -0.5,0.35 -0.4,0.32 -0.4,0.31 -0.5,0.28 -0.5,0.26 -0.5,0.24 -0.5,0.21 -0.5,0.18 -0.5,0.16 -0.5,0.13 -0.6,0.11 -0.5,0.07 -0.6,0.05 -0.5,0.01 -0.1,-1.09 c 2.2,0 4.4,-1.1 5.7,-3.24 1.3,-2.14 1.3,-5.03 1.3,-6.92 0,-1.8 0,-4.48 -1.1,-6.67 -1.1,-2.25 -3.3,-3.69 -5.8,-3.69 v 0 c -2.2,0 -4.3,1.05 -5.7,3.33 -1.2,2.2 -1.2,5.23 -1.2,7.03 0,1.94 0,4.63 1.2,6.83 1.3,2.28 3.6,3.33 5.6,3.33 l 0.1,1.09 c -6.2,0 -11.1,-5.42 -11.1,-11.65 0,-6.43 5.2,-11.21 11,-11.21 6.1,0 11.1,4.88 11.1,11.21 z"
           inkscape:connector-curvature="0"
           style="fill:#000000;stroke-width:0" /><path
           id="path954"
           d="m 1597.2,118.91 v 5.47 l -6.9,-0.55 v -1.55 c 3.5,0 3.9,-0.34 3.9,-2.78 v -13.36 c 0,-2.23 -0.6,-2.23 -3.9,-2.23 v -1.55 c 1.9,0.05 4.3,0.16 5.7,0.16 1.9,0 4.3,0 6.3,-0.16 v 1.55 h -1.1 c -3.6,0 -3.8,0.54 -3.8,2.34 v 7.67 c 0,4.92 2.1,9.36 5.9,9.36 0.4,0 0.5,0 0.6,-0.05 -0.2,-0.04 -1.2,-0.64 -1.2,-1.93 0,-1.41 1.1,-2.14 2.2,-2.14 0.9,0 2.1,0.59 2.1,2.18 0,1.6 -1.5,3.04 -3.7,3.04 -3.6,0 -5.4,-3.33 -6.1,-5.47 z"
           inkscape:connector-curvature="0"
           style="fill:#000000;stroke-width:0" /><path
           id="path956"
           d="m 1617.3,124.38 -7,-0.55 v -1.55 c 3.2,0 3.7,-0.3 3.7,-2.73 v -13.41 c 0,-2.23 -0.6,-2.23 -3.9,-2.23 v -1.55 c 1.6,0.05 4.3,0.16 5.5,0.16 1.7,0 3.5,-0.11 5.2,-0.16 v 1.55 c -3.3,0 -3.5,0.25 -3.5,2.18 z"
           inkscape:connector-curvature="0"
           style="fill:#000000;stroke-width:0" /><path
           id="path958"
           d="m 1617.5,133.05 v 0.14 l -0.1,0.15 v 0.14 0.14 0.13 l -0.1,0.13 v 0.13 l -0.1,0.12 v 0.12 l -0.1,0.12 v 0.11 l -0.1,0.1 -0.1,0.11 -0.1,0.09 v 0.1 l -0.1,0.09 -0.1,0.08 -0.1,0.08 -0.1,0.07 -0.1,0.07 -0.1,0.07 -0.2,0.06 -0.1,0.05 -0.1,0.05 -0.1,0.04 -0.1,0.04 -0.1,0.03 -0.2,0.03 -0.1,0.02 -0.1,0.02 h -0.2 l -0.1,0.01 c -1.5,0 -2.6,-1.35 -2.6,-2.64 0,-1.35 1.1,-2.64 2.6,-2.64 1.4,0 2.7,1.04 2.7,2.64 z"
           inkscape:connector-curvature="0"
           style="fill:#000000;stroke-width:0" /><path
           id="path960"
           d="m 1627.7,119.5 v -13.36 c 0,-2.23 -0.5,-2.23 -3.9,-2.23 v -1.55 c 1.8,0.05 4.3,0.16 5.7,0.16 1.3,0 3.8,-0.11 5.5,-0.16 v 1.55 c -3.3,0 -3.8,0 -3.8,2.23 v 9.17 c 0,5.19 3.5,7.97 6.7,7.97 3.1,0 3.7,-2.69 3.7,-5.53 v -11.61 c 0,-2.23 -0.6,-2.23 -3.9,-2.23 v -1.55 c 1.7,0.05 4.3,0.16 5.6,0.16 1.3,0 3.9,-0.11 5.6,-0.16 v 1.55 c -2.6,0 -3.8,0 -3.9,1.5 v 9.51 c 0,4.28 0,5.83 -1.5,7.61 -0.7,0.86 -2.4,1.85 -5.3,1.85 -3.6,0 -5.9,-2.15 -7.3,-5.22 v 5.22 l -7.1,-0.55 v -1.55 c 3.5,0 3.9,-0.34 3.9,-2.78 z"
           inkscape:connector-curvature="0"
           style="fill:#000000;stroke-width:0" /><path
           id="path962"
           d="m 1655.2,108.98 v 0.03 0.02 0.04 0.03 0.04 0.05 0.05 l 0.1,0.06 v 0.05 0.07 0.06 0.07 0.07 0.08 0.08 0.08 l 0.1,0.08 v 0.09 0.08 0.09 l 0.1,0.09 v 0.09 l 0.1,0.09 v 0.1 0.09 l 0.1,0.1 0.1,0.09 v 0.1 l 0.1,0.09 v 0.1 l 0.1,0.09 0.1,0.1 c 1.9,-1.39 4,-1.55 4.9,-1.55 v 1.14 c -4.3,0 -4.3,4.99 -4.3,6.14 0,1.35 0,2.94 0.8,4.17 0.4,0.61 1.5,2 3.5,2 4.3,0 4.3,-4.98 4.3,-6.12 0,-1.34 0,-2.94 -0.7,-4.19 -0.4,-0.59 -1.6,-2 -3.6,-2 v 0 -1.14 c 4.7,0 8.1,3.44 8.1,7.28 0,1.85 -0.8,3.69 -2,4.83 1.7,1.69 3.5,1.94 4.4,1.94 0.1,0 0.4,0 0.5,-0.05 -0.5,-0.2 -0.8,-0.75 -0.8,-1.34 0,-0.85 0.7,-1.44 1.5,-1.44 0.5,0 1.4,0.34 1.4,1.48 0,0.85 -0.6,2.44 -2.5,2.44 -1,0 -3.2,-0.3 -5.3,-2.33 -2.1,1.64 -4.2,1.79 -5.3,1.79 -4.6,0 -8.1,-3.44 -8.1,-7.27 0,-2.19 1.1,-4.09 2.4,-5.14 -0.6,-0.74 -1.6,-2.39 -1.6,-4.13 0,-1.54 0.7,-3.43 2.2,-4.43 -3,-0.85 -4.6,-2.99 -4.6,-4.988 0,-3.578 5,-6.328 11.1,-6.328 v 1.14 c -5,0 -8.5,2.547 -8.5,5.188 0,2.298 1.9,4.138 4.1,4.278 h 3 c 4.3,0 9.8,0 9.8,-4.278 0,-2.688 -3.5,-5.188 -8.4,-5.188 v 0 -1.14 c 5.8,0 11,2.547 11,6.422 0,1.754 -0.7,4.294 -3.2,5.684 -2.6,1.39 -5.5,1.39 -8.6,1.39 -1.2,0 -3.4,0 -3.7,0.05 -1.6,0.2 -2.7,1.75 -2.7,3.34 z"
           inkscape:connector-curvature="0"
           style="fill:#000000;stroke-width:0" /><path
           id="path964"
           d="m 2052.2,90.406 v 0.026 0.027 0.014 0.014 0.015 0.016 0.017 0.017 0.019 0.021 0.022 0.023 0.025 l -0.1,0.027 v 0.03 0.031 0.034 l -0.1,0.036 v 0.019 0.02 0.021 0.021 l -0.1,0.022 v 0.022 0.024 0.024 0.025 l -0.1,0.026 v 0.026 0.028 0.028 l -0.1,0.029 v 0.03 0.032 l -0.1,0.032 v 0.032 0.034 l -0.1,0.035 v 0.036 0.037 l -0.1,0.038 V 91.5 c -6.2,6.281 -7.8,15.69 -7.8,23.31 0,8.67 1.9,17.35 8,23.57 0.6,0.6 0.6,0.7 0.6,0.85 0,0.35 -0.1,0.49 -0.4,0.49 -0.5,0 -5,-3.38 -8,-9.7 -2.5,-5.49 -3.1,-11.02 -3.1,-15.21 0,-3.89 0.5,-9.9 3.3,-15.544 3,-6.125 7.3,-9.36 7.8,-9.36 0.3,0 0.4,0.141 0.4,0.5 z"
           inkscape:connector-curvature="0"
           style="fill:#000000;stroke-width:0" /><path
           id="path966"
           d="m 2069.5,119.89 0.4,0.13 0.4,0.15 0.3,0.15 0.4,0.17 0.3,0.18 0.4,0.19 0.3,0.2 0.3,0.22 0.4,0.22 0.3,0.23 0.2,0.24 0.3,0.25 0.3,0.26 0.3,0.27 0.2,0.27 0.2,0.29 0.3,0.29 0.2,0.3 0.2,0.3 0.2,0.32 0.1,0.32 0.2,0.32 0.2,0.33 0.1,0.34 0.1,0.34 0.1,0.34 0.1,0.35 0.1,0.36 v 0.36 l 0.1,0.36 v 0.36 0.37 c 0,4.08 -4.4,6.88 -9.2,6.88 -5,0 -8.8,-3 -8.8,-6.78 0,-1.65 1.1,-2.6 2.6,-2.6 1.5,0 2.5,1.1 2.5,2.55 0,2.48 -2.4,2.48 -3.1,2.48 1.5,2.44 4.8,3.1 6.6,3.1 2.1,0 4.8,-1.1 4.8,-5.58 0,-0.61 -0.1,-3.49 -1.4,-5.69 -1.5,-2.39 -3.2,-2.53 -4.4,-2.59 -0.4,-0.05 -1.6,-0.14 -2,-0.14 -0.3,-0.05 -0.7,-0.1 -0.7,-0.6 0,-0.54 0.4,-0.54 1.2,-0.54 h 2.2 c 4.1,0 5.9,-3.39 5.9,-8.28 0,-6.77 -3.4,-8.22 -5.6,-8.22 -2.2,0 -5.9,0.84 -7.6,3.78 1.7,-0.24 3.3,0.86 3.3,2.75 0,1.79 -1.4,2.78 -2.9,2.78 -1.1,0 -2.7,-0.69 -2.7,-2.89 0,-4.53 4.6,-7.81 10,-7.81 6.1,0 10.6,4.53 10.6,9.61 0,4.09 -3.1,7.96 -8.3,9.01 z"
           inkscape:connector-curvature="0"
           style="fill:#000000;stroke-width:0" /><path
           id="path968"
           d="m 2094.4,114.81 v 0.37 0.39 0.39 0.41 0.84 l -0.1,0.88 -0.1,0.92 -0.1,0.95 -0.1,0.97 -0.2,1.01 -0.2,1.02 -0.2,1.03 -0.3,1.05 -0.3,1.06 -0.3,1.07 -0.4,1.07 -0.2,0.53 -0.3,0.53 -0.2,0.53 -0.3,0.53 c -2.9,6.12 -7.2,9.36 -7.7,9.36 -0.3,0 -0.5,-0.19 -0.5,-0.49 0,-0.15 0,-0.25 0.9,-1.15 4.9,-4.92 7.8,-12.85 7.8,-23.27 0,-8.51 -1.9,-17.279 -8.1,-23.56 -0.6,-0.594 -0.6,-0.703 -0.6,-0.844 0,-0.297 0.2,-0.5 0.5,-0.5 0.5,0 4.9,3.391 7.9,9.719 2.5,5.465 3.1,10.995 3.1,15.185 z"
           inkscape:connector-curvature="0"
           style="fill:#000000;stroke-width:0" /><path
           id="path970"
           d="m 656.71,1.5 0.01,0.0551 0.01,0.0543 0.01,0.0536 0.01,0.0531 0.02,0.1055 0.01,0.0529 0.02,0.0532 0.01,0.0538 0.01,0.0545 v 0.0555 l 0.01,0.0567 0.01,0.058 v 0.0596 l 0.01,0.0305 v 0.0309 0.0315 0.0319 c 0,0.8594 -0.6,1.3594 -1.44,1.3594 -0.5,0 -1.84,-0.3594 -2.05,-2.1562 -0.89,1.8437 -2.64,3.1406 -4.62,3.1406 l 0.04,-1.0938 c 3.29,0 3.99,-4.03122 3.99,-4.28122 0,-0.25 -0.09,-0.54688 -0.16,-0.74998 l -2.39,-9.5154 c -0.29,-1.297 -1.44,-2.532 -2.53,-3.485 -1.04,-0.89 -2.59,-1.797 -4.04,-1.797 -2.49,0 -3.24,2.594 -3.24,4.579 0,2.4059 1.45,8.2809 2.8,10.81212 1.34,2.45308 3.48,4.43748 5.57,4.43748 l -0.04,1.0938 c -5.69,0 -11.86,-6.9688 -11.86,-14.1406 0,-4.9378 3.03,-7.8748 6.62,-7.8748 2.94,0 5.28,2.343 5.78,2.89 l 0.05,-0.047 c -1.05,-4.437 -1.64,-6.484 -1.64,-6.578 -0.2,-0.453 -1.89,-5.39 -7.17,-5.39 -0.95,0 -2.59,0.062 -4,0.5 1.5,0.453 2.05,1.75 2.05,2.594 0,0.796 -0.55,1.75 -1.89,1.75 -1.1,0 -2.69,-0.907 -2.69,-2.891 0,-2.047 1.84,-3.047 6.62,-3.047 6.22,0 9.82,3.891 10.57,6.875 z"
           inkscape:connector-curvature="0"
           style="fill:#000000;stroke-width:0" /><path
           id="path972"
           d="m 675.28,-29.234 v 0.026 0.026 0.014 0.014 l -0.01,0.015 v 0.016 l -0.01,0.017 v 0.018 l -0.01,0.019 -0.01,0.02 -0.02,0.022 -0.01,0.023 -0.02,0.026 -0.01,0.027 -0.03,0.029 -0.02,0.032 -0.03,0.033 -0.02,0.037 -0.02,0.019 -0.02,0.019 -0.01,0.021 -0.02,0.021 -0.02,0.022 -0.02,0.023 -0.02,0.023 -0.02,0.024 -0.03,0.025 -0.02,0.026 -0.03,0.027 -0.02,0.027 -0.03,0.029 -0.03,0.029 -0.02,0.03 -0.03,0.031 -0.03,0.032 -0.04,0.033 -0.03,0.034 -0.03,0.035 -0.04,0.036 -0.04,0.036 -0.03,0.038 -0.04,0.039 c -6.22,6.282 -7.82,15.688 -7.82,23.3129 0,8.6719 1.9,17.3441 8.02,23.5621 0.64,0.61 0.64,0.704 0.64,0.86 0,0.344 -0.19,0.484 -0.48,0.484 -0.5,0 -4.99,-3.375 -7.92,-9.703 -2.55,-5.4844 -3.15,-11.01562 -3.15,-15.2031 0,-3.8907 0.55,-9.9059 3.29,-15.5469 2.98,-6.125 7.28,-9.359 7.78,-9.359 0.29,0 0.48,0.14 0.48,0.5 z"
           inkscape:connector-curvature="0"
           style="fill:#000000;stroke-width:0" /><path
           id="path974"
           d="m 692.41,16.75 v 0.003 0.003 0.008 0.01 0.013 0.015 0.016 l -0.01,0.018 v 0.019 0.021 l -0.01,0.022 -0.01,0.022 v 0.024 l -0.01,0.024 -0.01,0.024 -0.02,0.024 -0.01,0.025 -0.02,0.024 -0.01,0.025 -0.02,0.023 -0.03,0.023 -0.01,0.011 -0.01,0.011 -0.01,0.011 -0.02,0.011 -0.01,0.01 -0.02,0.009 -0.01,0.01 -0.02,0.009 -0.02,0.009 -0.02,0.008 -0.01,0.008 -0.02,0.007 -0.02,0.007 -0.02,0.007 -0.03,0.006 -0.02,0.005 -0.02,0.005 -0.03,0.005 -0.02,0.003 -0.03,0.003 -0.02,0.003 -0.03,0.001 -0.03,0.002 h -0.03 c -1.16,0 -4.78,-0.406 -6.08,-0.5 -0.41,-0.047 -0.95,-0.094 -0.95,-1 0,-0.594 0.45,-0.594 1.2,-0.594 2.39,0 2.49,-0.344 2.49,-0.844 l -0.16,-1 -7.22,-28.703 c -0.2,-0.687 -0.2,-0.797 -0.2,-1.094 0,-1.14 1,-1.39 1.45,-1.39 0.64,0 1.39,0.453 1.69,1.047 0.25,0.453 2.5,9.656 2.79,10.906 1.69,-0.1406 5.79,-0.9375 5.79,-4.234 0,-0.344 0,-0.547 -0.16,-1.047 -0.09,-0.594 -0.2,-1.188 -0.2,-1.735 0,-2.953 2,-4.937 4.59,-4.937 1.48,0 2.83,0.797 3.94,2.64 1.23,2.188 1.78,4.938 1.78,5.032 0,0.4998 -0.44,0.4998 -0.59,0.4998 -0.5,0 -0.55,-0.2032 -0.71,-0.9058 -0.98,-3.626 -2.14,-6.172 -4.32,-6.172 -0.94,0 -1.6,0.546 -1.6,2.343 0,0.844 0.2,1.985 0.41,2.782 0.19,0.859 0.19,1.047 0.19,1.547 0,3.2495 -3.15,4.687 -7.38,5.2339 1.55,0.9062 3.14,2.5 4.3,3.6875 2.39,2.6406 4.67,4.7812 7.12,4.7812 0.3,0 0.34,0 0.44,-0.0468 0.61,-0.0938 0.65,-0.0938 1.05,-0.3907 0.1,-0.0625 0.1,-0.1093 0.2,-0.2031 -2.39,-0.1562 -2.85,-2.09375 -2.85,-2.6875 0,-0.79688 0.55,-1.75 1.9,-1.75 1.29,0 2.75,1.09375 2.75,3.0313 0,1.5 -1.16,3.1406 -3.4,3.1406 -1.38,0 -3.68,-0.3906 -7.28,-4.37502 -1.68,-1.89058 -3.62,-3.89058 -5.51,-4.64058 z"
           inkscape:connector-curvature="0"
           style="fill:#000000;stroke-width:0" /><path
           id="path976"
           d="m 719.98,-4.8281 v 0.3709 0.383 l -0.01,0.3947 -0.01,0.4057 -0.04,0.8431 -0.06,0.8821 -0.09,0.91735 -0.1,0.94885 -0.14,0.9766 -0.16,1.0007 -0.2,1.021 -0.23,1.0377 -0.26,1.0504 -0.31,1.0596 -0.35,1.0651 -0.39,1.0666 -0.21,0.5328 -0.23,0.5319 -0.24,0.53 -0.25,0.529 c -2.98,6.125 -7.26,9.359 -7.76,9.359 -0.3,0 -0.5,-0.187 -0.5,-0.484 0,-0.156 0,-0.25 0.94,-1.156 4.89,-4.922 7.73,-12.8442 7.73,-23.2661 0,-8.5159 -1.84,-17.2809 -8.03,-23.5629 -0.64,-0.593 -0.64,-0.703 -0.64,-0.843 0,-0.297 0.2,-0.5 0.5,-0.5 0.5,0 4.97,3.39 7.92,9.718 2.53,5.469 3.12,11.0004 3.12,15.1879 z"
           inkscape:connector-curvature="0"
           style="fill:#000000;stroke-width:0" /><path
           id="path978"
           d="m 809.06,-0.98438 0.14,2.5e-4 0.15,0.00168 0.14,0.00456 0.07,0.00382 0.08,0.00508 0.07,0.00651 0.07,0.00815 0.07,0.00994 0.07,0.01193 0.07,0.01408 0.06,0.01644 0.07,0.01895 0.06,0.02166 0.06,0.02455 0.06,0.0276 0.06,0.03085 0.05,0.03428 0.05,0.03788 0.05,0.04167 0.04,0.04563 0.04,0.04978 0.02,0.0265 0.02,0.0276 0.01,0.02873 0.02,0.02988 0.01,0.03105 0.01,0.03225 0.02,0.03346 0.01,0.0347 0.01,0.03596 0.01,0.03725 v 0.03855 l 0.01,0.03989 v 0.04123 l 0.01,0.042609 V -0.045425 0 c 0,1 -0.95,1 -1.64,1 h -29.84 c -0.71,0 -1.65,0 -1.65,-1 0,-0.98438 0.94,-0.98438 1.69,-0.98438 z"
           inkscape:connector-curvature="0"
           style="fill:#000000;stroke-width:0" /><path
           id="path980"
           d="m 809.11,-10.656 h 0.06 0.07 l 0.14,0.002 0.14,0.004 0.07,0.004 0.07,0.005 0.07,0.007 0.06,0.008 0.07,0.01 0.07,0.012 0.07,0.015 0.06,0.016 0.07,0.02 0.06,0.022 0.06,0.025 0.05,0.028 0.06,0.031 0.05,0.035 0.05,0.038 0.05,0.043 0.04,0.046 0.02,0.025 0.02,0.026 0.02,0.027 0.02,0.028 0.01,0.029 0.02,0.03 0.01,0.032 0.01,0.032 0.02,0.034 0.01,0.0357 0.01,0.0365 0.01,0.0378 v 0.0392 l 0.01,0.0405 v 0.0419 l 0.01,0.0433 v 0.0447 0.0462 c 0,1 -0.95,1 -1.69,1 h -29.75 c -0.75,0 -1.69,0 -1.69,-1 0,-0.9998 0.94,-0.9998 1.65,-0.9998 z"
           inkscape:connector-curvature="0"
           style="fill:#000000;stroke-width:0" /><path
           id="path982"
           d="m 896.22,-5.8281 0.15,2e-4 0.16,0.0017 0.16,0.0047 0.08,0.0038 0.07,0.0052 0.08,0.0066 0.07,0.0083 0.08,0.0101 0.07,0.0121 0.07,0.0143 0.07,0.0167 0.06,0.0193 0.07,0.022 0.06,0.0249 0.06,0.028 0.05,0.0314 0.05,0.0348 0.05,0.0385 0.05,0.0423 0.04,0.0464 0.04,0.0505 0.02,0.027 0.02,0.028 0.01,0.0292 0.02,0.0303 0.01,0.0316 0.01,0.0327 0.01,0.034 0.01,0.0353 0.01,0.0365 0.01,0.0379 0.01,0.0391 v 0.0405 l 0.01,0.0419 v 0.0433 0.0447 l 0.01,0.0462 c 0,1 -0.91,1 -1.75,1 h -26.96 c -0.84,0 -1.73,0 -1.73,-1 0,-1 0.89,-1 1.73,-1 z"
           inkscape:connector-curvature="0"
           style="fill:#000000;stroke-width:0" /><path
           id="path984"
           d="m 916.78,-9.0625 v -4.3285 c 0,-1.797 -0.09,-2.343 -3.78,-2.343 h -1.04 v -1.547 c 2.04,0.156 4.64,0.156 6.73,0.156 2.09,0 4.74,0 6.77,-0.156 v 1.547 h -1.05 c -3.69,0 -3.78,0.546 -3.78,2.343 v 4.3285 h 4.98 v 1.5469 h -4.98 V 15.156 c 0,1 0,1.297 -0.8,1.297 -0.45,0 -0.59,0 -1,-0.609 l -15.3,-23.3596 h 1.41 L 917.1,11.062 V -7.5156 h -12.16 -1.41 v -1.5469 z"
           inkscape:connector-curvature="0"
           style="fill:#000000;stroke-width:0" /><path
           id="path986"
           d="m 970.85,-5.8281 0.16,2e-4 0.16,0.0017 0.15,0.0047 0.08,0.0038 0.08,0.0052 0.07,0.0066 0.08,0.0083 0.07,0.0101 0.07,0.0121 0.07,0.0143 0.07,0.0167 0.07,0.0193 0.06,0.022 0.06,0.0249 0.06,0.028 0.05,0.0314 0.06,0.0348 0.05,0.0385 0.04,0.0423 0.04,0.0464 0.04,0.0505 0.02,0.027 0.02,0.028 0.01,0.0292 0.02,0.0303 0.01,0.0316 0.02,0.0327 0.01,0.034 0.01,0.0353 0.01,0.0365 v 0.0379 l 0.01,0.0391 0.01,0.0405 v 0.0419 l 0.01,0.0433 v 0.0447 0.0462 c 0,1 -0.91,1 -1.75,1 H 943.9 c -0.85,0 -1.74,0 -1.74,-1 0,-1 0.89,-1 1.74,-1 z"
           inkscape:connector-curvature="0"
           style="fill:#000000;stroke-width:0" /><path
           id="path988"
           d="m 1002.5,14.609 v 0.055 0.054 0.051 0.051 0.048 0.048 0.046 0.044 0.043 0.042 0.04 0.039 0.038 l -0.1,0.036 v 0.035 0.034 0.064 0.059 0.055 0.051 0.046 0.042 l -0.1,0.038 v 0.035 0.031 0.028 l -0.1,0.025 v 0.022 l -0.1,0.019 v 0.009 0.008 0.007 l -0.1,0.007 v 0.006 0.006 l -0.1,0.005 v 0.004 0.005 l -0.1,0.003 v 0.004 0.003 l -0.1,0.002 v 0.002 0.002 l -0.1,0.002 v 10e-4 l -0.1,10e-4 v 0 l -0.1,0.001 v 0 h -0.1 c -3.07,-3.187 -7.45,-3.187 -9.04,-3.187 v -1.547 c 1,0 3.94,0 6.51,1.297 v -25.813 c 0,-1.797 -0.14,-2.39 -4.62,-2.39 h -1.6 v -1.547 c 1.75,0.156 6.08,0.156 8.05,0.156 2,0 6.4,0 8.1,-0.156 v 1.547 h -1.6 c -4.5,0 -4.6,0.546 -4.6,2.39 z"
           inkscape:connector-curvature="0"
           style="fill:#000000;stroke-width:0" /><path
           id="path990"
           d="m 1033.4,-4.8281 v 0.1354 0.1337 l -0.1,0.1318 v 0.1297 0.1276 0.1251 l -0.1,0.1225 v 0.1198 l -0.1,0.1169 v 0.1138 l -0.1,0.1106 -0.1,0.1072 v 0.1035 l -0.1,0.0999 -0.1,0.0959 -0.1,0.0918 -0.1,0.0876 -0.1,0.0831 -0.1,0.0786 -0.1,0.0737 -0.1,0.0689 -0.1,0.0637 -0.1,0.0585 -0.1,0.053 -0.2,0.0475 -0.1,0.0416 -0.1,0.0357 -0.1,0.0296 -0.2,0.0233 -0.1,0.0169 -0.1,0.0102 -0.2,0.0035 c -1.4,0 -2.6,-1.1875 -2.6,-2.6406 0,-1.4375 1.2,-2.6407 2.6,-2.6407 1.5,0 2.7,1.2032 2.7,2.6407 z"
           inkscape:connector-curvature="0"
           style="fill:#000000;stroke-width:0" /><path
           id="path992"
           d="m 1063.1,16.75 v 0.003 0.003 0.008 0.01 0.013 0.015 0.016 0.018 0.019 0.021 0.022 l -0.1,0.022 v 0.024 0.024 0.024 0.024 0.025 0.024 0.025 l -0.1,0.023 v 0.023 0.011 0.011 0.011 0.011 l -0.1,0.01 v 0.009 0.01 0.009 0.009 0.008 l -0.1,0.008 v 0.007 0.007 0.007 0.006 l -0.1,0.005 v 0.005 0.005 0.003 l -0.1,0.003 v 0.003 0.001 0.002 h -0.1 c -1.1,0 -4.7,-0.406 -6.1,-0.5 -0.4,-0.047 -0.9,-0.094 -0.9,-1 0,-0.594 0.4,-0.594 1.2,-0.594 2.4,0 2.5,-0.344 2.5,-0.844 l -0.2,-1 -7.2,-28.703 c -0.2,-0.687 -0.2,-0.797 -0.2,-1.094 0,-1.14 1,-1.39 1.5,-1.39 0.6,0 1.3,0.453 1.7,1.047 0.2,0.453 2.5,9.656 2.7,10.906 1.7,-0.1406 5.8,-0.9375 5.8,-4.234 0,-0.344 0,-0.547 -0.1,-1.047 -0.1,-0.594 -0.2,-1.188 -0.2,-1.735 0,-2.953 2,-4.937 4.6,-4.937 1.4,0 2.8,0.797 3.9,2.64 1.2,2.188 1.8,4.938 1.8,5.032 0,0.4998 -0.5,0.4998 -0.6,0.4998 -0.5,0 -0.6,-0.2032 -0.7,-0.9058 -1,-3.626 -2.2,-6.172 -4.3,-6.172 -1,0 -1.6,0.546 -1.6,2.343 0,0.844 0.2,1.985 0.4,2.782 0.2,0.859 0.2,1.047 0.2,1.547 0,3.2495 -3.2,4.687 -7.4,5.2339 1.5,0.9062 3.1,2.5 4.3,3.6875 2.4,2.6406 4.7,4.7812 7.1,4.7812 0.3,0 0.3,0 0.4,-0.0468 0.7,-0.0938 0.7,-0.0938 1.1,-0.3907 0.1,-0.0625 0.1,-0.1093 0.2,-0.2031 -2.4,-0.1562 -2.9,-2.09375 -2.9,-2.6875 0,-0.79688 0.6,-1.75 1.9,-1.75 1.3,0 2.8,1.09375 2.8,3.0313 0,1.5 -1.2,3.1406 -3.4,3.1406 -1.4,0 -3.7,-0.3906 -7.3,-4.37502 -1.7,-1.89058 -3.6,-3.89058 -5.5,-4.64058 z"
           inkscape:connector-curvature="0"
           style="fill:#000000;stroke-width:0" /><path
           id="path994"
           d="M 1301.7,1.5469 V 1.6823 1.816 1.9478 l -0.1,0.1297 v 0.1276 0.1251 l -0.1,0.1225 v 0.1198 l -0.1,0.1169 v 0.1138 l -0.1,0.1106 -0.1,0.1072 v 0.1035 l -0.1,0.0999 -0.1,0.0959 -0.1,0.0918 -0.1,0.0876 -0.1,0.0831 -0.1,0.0786 -0.1,0.0737 -0.1,0.0689 -0.1,0.0637 -0.1,0.0585 -0.1,0.053 -0.1,0.0475 -0.2,0.0416 -0.1,0.0357 -0.1,0.0296 -0.1,0.0233 -0.2,0.0169 -0.1,0.0102 -0.1,0.0035 c -1.5,0 -2.7,-1.1875 -2.7,-2.6406 0,-1.43752 1.2,-2.6407 2.7,-2.6407 1.4,0 2.6,1.20318 2.6,2.6407 z"
           inkscape:connector-curvature="0"
           style="fill:#000000;stroke-width:0" /><path
           id="path996"
           d="m 1301.7,-14.641 v 0.134 0.133 0.131 l -0.1,0.129 v 0.126 0.125 l -0.1,0.122 v 0.119 l -0.1,0.117 v 0.114 l -0.1,0.11 -0.1,0.108 v 0.103 l -0.1,0.1 -0.1,0.097 -0.1,0.092 -0.1,0.088 -0.1,0.083 -0.1,0.079 -0.1,0.075 -0.1,0.069 -0.1,0.064 -0.1,0.059 -0.1,0.054 -0.1,0.047 -0.2,0.042 -0.1,0.037 -0.1,0.029 -0.1,0.024 -0.2,0.017 -0.1,0.011 -0.1,0.003 c -1.5,0 -2.7,-1.203 -2.7,-2.641 0,-1.437 1.2,-2.64 2.7,-2.64 1.4,0 2.6,1.203 2.6,2.64 z"
           inkscape:connector-curvature="0"
           style="fill:#000000;stroke-width:0" /><path
           id="path998"
           d="m 1344.7,-13.5 v -0.186 l 0.1,-0.187 v -0.186 l 0.1,-0.186 v -0.185 l 0.1,-0.183 v -0.182 l 0.1,-0.179 0.1,-0.177 v -0.174 l 0.1,-0.171 0.1,-0.166 0.1,-0.163 0.1,-0.158 0.1,-0.153 0.2,-0.147 0.1,-0.142 0.1,-0.135 0.2,-0.129 0.1,-0.122 0.2,-0.114 0.1,-0.107 0.2,-0.098 0.1,-0.09 0.2,-0.081 0.2,-0.071 0.2,-0.061 0.2,-0.051 0.2,-0.041 0.2,-0.029 0.2,-0.018 0.2,-0.006 c 1,0 4.1,0.703 4.1,4.734 v 2.782 h -1.3 v -2.782 c 0,-2.89 -1.2,-3.187 -1.8,-3.187 -1.6,0 -1.8,2.234 -1.8,2.484 v 9.9689 c 0,2.0937 0,4.03122 -1.8,5.875 -1.9,1.9375 -4.4,2.7343 -6.8,2.7343 -4.1,0 -7.5,-2.3281 -7.5,-5.62495 0,-1.48435 1,-2.34375 2.3,-2.34375 1.3,0 2.2,1 2.2,2.29688 0,0.593745 -0.2,2.23442 -2.5,2.29682 1.4,1.7344 3.8,2.2813 5.4,2.2813 2.4,0 5.3,-1.9375 5.3,-6.375 v -1.8437 -1.0469 -4.9839 c 0,-4.735 -3.6,-6.422 -5.9,-6.422 -2.4,0 -4.4,1.75 -4.4,4.234 0,2.7344 2,6.875 10.3,7.1719 v 0 1.0469 c -2.6,-0.1407 -6.1,-0.2969 -9.2,-1.7969 -3.7,-1.6875 -5,-4.2809 -5,-6.4689 0,-4.031 4.9,-5.281 8,-5.281 3.3,0 5.6,1.984 6.5,4.328 z"
           inkscape:connector-curvature="0"
           style="fill:#000000;stroke-width:0" /><path
           id="path1000"
           d="m 1383.3,2.6406 0.1,-4e-4 0.1,-0.0015 0.1,-0.0024 0.1,-0.0034 0.1,-0.0044 0.1,-0.0054 0.1,-0.0065 0.1,-0.0075 0.2,-0.0183 0.1,-0.0228 0.2,-0.0273 0.1,-0.0322 0.1,-0.0369 0.2,-0.042 0.1,-0.0472 0.1,-0.0524 0.1,-0.0579 V 2.2087 l 0.1,-0.0692 0.1,-0.075 0.1,-0.0811 V 1.8963 l 0.1,-0.0935 V 1.703 l 0.1,-0.1064 V 1.4834 1.3635 l 0.1,-0.1269 V 1.1025 0.96122 0.81252 0.65628 0.49236 L 1386,0.32062 V 0.14092 -0.046875 -13.5 c 0,-2.234 -0.6,-2.234 -3.9,-2.234 v -1.547 c 1.6,0.047 4.3,0.156 5.5,0.156 1.2,0 3.7,-0.109 5.6,-0.156 v 1.547 c -3.4,0 -3.9,0 -3.9,2.234 V 4.7969 l -2,-0.1563 c -2.4,-0.2031 -2.8,-0.2031 -5.2,-0.4062 -0.1,-0.0469 -0.2,-0.0469 -0.9,-0.0469 h -5.9 v 5.6406 c 0,4.9219 4.3,6.9219 7.4,6.9219 1.5,0 3.3,-0.5 4.3,-1.641 -2.1,-0.109 -2.4,-1.5 -2.4,-2.297 0,-1.64 1.3,-2.296 2.3,-2.296 1.1,0 2.3,0.796 2.3,2.296 0,2.938 -2.8,5.032 -6.5,5.032 -4.4,0 -7.2,-2 -8.1,-2.735 -1.1,1.735 -3.2,2.735 -5.7,2.735 l -0.1,-1.094 c 1.2,0 2.9,-0.25 4.3,-1.641 -2,-0.109 -2.4,-1.297 -2.4,-2.297 0,-1.093 0.6,-1.89 1.5,-2.14 V 4.1875 h -10.7 v 5.6406 c 0,4.9689 4.3,6.9219 7.3,6.9219 l 0.1,1.094 c -4.7,0 -10.5,-2.547 -10.5,-7.969 V 4.1875 h -4 V 2.6406 h 4 V -13.5 c 0,-2.234 -0.6,-2.234 -3.9,-2.234 v -1.547 c 1.6,0.047 4.3,0.156 5.5,0.156 1.3,0 3.7,-0.109 5.5,-0.156 v 1.547 c -3.3,0 -3.8,0 -3.8,2.234 V 2.6406 h 10.5 V -13.5 c 0,-2.234 -0.6,-2.234 -3.9,-2.234 v -1.547 c 1.6,0.047 4.3,0.156 5.5,0.156 1.3,0 3.7,-0.109 5.5,-0.156 v 1.547 c -3.3,0 -3.8,0 -3.8,2.234 V 2.6406 Z"
           inkscape:connector-curvature="0"
           style="fill:#000000;stroke-width:0" /><path
           id="path1002"
           d="M 1400.1,-0.14062 V -13.5 c 0,-2.234 -0.6,-2.234 -3.9,-2.234 v -1.547 c 1.7,0.047 4.3,0.156 5.6,0.156 1.3,0 3.9,-0.109 5.6,-0.156 v 1.547 c -3.3,0 -3.9,0 -3.9,2.234 v 9.1719 c 0,5.18748 3.6,7.9687 6.7,7.9687 3.2,0 3.7,-2.68748 3.7,-5.5312 V -13.5 c 0,-2.234 -0.5,-2.234 -3.9,-2.234 v -1.547 c 1.8,0.047 4.3,0.156 5.7,0.156 1.3,0 3.9,-0.109 5.6,-0.156 v 1.547 c -2.6,0 -3.9,0 -3.9,1.5 v 9.5152 c 0,4.2813 0,5.8282 -1.6,7.6094 -0.7,0.8594 -2.3,1.8438 -5.2,1.8438 -3.6,0 -6,-2.1406 -7.4,-5.21878 V 4.7344 l -7,-0.5469 V 2.6406 c 3.5,0 3.9,-0.3437 3.9,-2.78122 z"
           inkscape:connector-curvature="0"
           style="fill:#000000;stroke-width:0" /><path
           id="path1004"
           d="m 1427.9,-5.7656 v 1.0468 c 0.3,7.4219 4.5,8.6563 6.2,8.6563 5.1,0 5.6,-6.7187 5.6,-8.6563 h -11.8 v -1.0468 h 13.9 c 1.1,0 1.2,0 1.2,1.0468 0,4.92192 -2.7,9.75 -8.9,9.75 -5.8,0 -10.4,-5.12495 -10.4,-11.3593 0,-6.6719 5.2,-11.4999 11,-11.4999 6.1,0 8.3,5.531 8.3,6.469 0,0.5 -0.4,0.609 -0.6,0.609 -0.5,0 -0.6,-0.297 -0.7,-0.703 -1.7,-5.125 -6.2,-5.125 -6.7,-5.125 -2.5,0 -4.5,1.484 -5.6,3.328 -1.5,2.391 -1.5,5.6875 -1.5,7.4844 z"
           inkscape:connector-curvature="0"
           style="fill:#000000;stroke-width:0" /><path
           id="path1006"
           d="m 1466.2,-10.656 v 0.021 0.028 0.032 0.037 0.041 0.047 0.05 l 0.1,0.055 v 0.059 0.062 0.066 0.069 0.072 0.0754 0.0779 0.0805 l 0.1,0.0828 v 0.0849 0.0869 0.0886 l 0.1,0.0902 v 0.0915 l 0.1,0.0927 v 0.0936 0.0944 l 0.1,0.0949 0.1,0.0953 v 0.0954 l 0.1,0.0954 v 0.0952 l 0.1,0.0948 0.1,0.0941 c 1.9,-1.3906 4,-1.5469 4.9,-1.5469 v 1.1406 c -4.3,0 -4.3,4.9844 -4.3,6.1407 0,1.3437 0,2.93748 0.8,4.1719 0.4,0.6093 1.5,2 3.5,2 4.3,0 4.3,-4.9844 4.3,-6.125 0,-1.3438 0,-2.9376 -0.7,-4.1876 -0.4,-0.5937 -1.6,-2 -3.6,-2 v 0 -1.1406 c 4.7,0 8.1,3.4375 8.1,7.2813 0,1.84372 -0.8,3.6875 -2,4.8281 1.7,1.6875 3.5,1.9375 4.4,1.9375 0.1,0 0.4,0 0.5,-0.0469 -0.5,-0.2031 -0.8,-0.75 -0.8,-1.3437 0,-0.8438 0.7,-1.4375 1.5,-1.4375 0.5,0 1.4,0.3437 1.4,1.4844 0,0.8437 -0.6,2.4374 -2.5,2.4374 -1,0 -3.2,-0.2968 -5.3,-2.3281 -2.1,1.6407 -4.2,1.7813 -5.3,1.7813 -4.6,0 -8.1,-3.4375 -8.1,-7.2656 0,-2.1876 1.1,-4.0938 2.4,-5.1407 -0.6,-0.7343 -1.6,-2.3901 -1.6,-4.1251 0,-1.547 0.7,-3.437 2.2,-4.437 -3,-0.844 -4.6,-2.985 -4.6,-4.985 0,-3.578 5,-6.328 11.1,-6.328 v 1.141 c -5,0 -8.5,2.547 -8.5,5.187 0,2.297 1.9,4.141 4.1,4.281 h 3 c 4.3,0 9.8,0 9.8,-4.281 0,-2.687 -3.5,-5.187 -8.4,-5.187 v 0 -1.141 c 5.8,0 11,2.547 11,6.422 0,1.75 -0.7,4.297 -3.2,5.687 -2.6,1.391 -5.5,1.391 -8.6,1.391 -1.2,0 -3.4,0 -3.7,0.047 -1.6,0.203 -2.7,1.75 -2.7,3.344 z"
           inkscape:connector-curvature="0"
           style="fill:#000000;stroke-width:0" /><path
           id="path1008"
           d="m 1502.5,-13.5 v -0.186 l 0.1,-0.187 v -0.186 -0.186 l 0.1,-0.185 v -0.183 l 0.1,-0.182 0.1,-0.179 v -0.177 l 0.1,-0.174 0.1,-0.171 0.1,-0.166 0.1,-0.163 0.1,-0.158 0.1,-0.153 0.2,-0.147 0.1,-0.142 0.1,-0.135 0.1,-0.129 0.2,-0.122 0.1,-0.114 0.2,-0.107 0.2,-0.098 0.1,-0.09 0.2,-0.081 0.2,-0.071 0.2,-0.061 0.2,-0.051 0.2,-0.041 0.2,-0.029 0.2,-0.018 0.2,-0.006 c 1,0 4.1,0.703 4.1,4.734 v 2.782 h -1.3 v -2.782 c 0,-2.89 -1.2,-3.187 -1.8,-3.187 -1.6,0 -1.8,2.234 -1.8,2.484 v 9.9689 c 0,2.0937 0,4.03122 -1.8,5.875 -1.9,1.9375 -4.4,2.7343 -6.8,2.7343 -4.1,0 -7.6,-2.3281 -7.6,-5.62495 0,-1.48435 1,-2.34375 2.4,-2.34375 1.3,0 2.2,1 2.2,2.29688 0,0.593745 -0.2,2.23442 -2.5,2.29682 1.3,1.7344 3.8,2.2813 5.4,2.2813 2.4,0 5.3,-1.9375 5.3,-6.375 v -1.8437 -1.0469 -4.9839 c 0,-4.735 -3.6,-6.422 -5.9,-6.422 -2.4,0 -4.5,1.75 -4.5,4.234 0,2.7344 2.1,6.875 10.4,7.1719 v 0 1.0469 c -2.6,-0.1407 -6.1,-0.2969 -9.2,-1.7969 -3.7,-1.6875 -5,-4.2809 -5,-6.4689 0,-4.031 4.8,-5.281 8,-5.281 3.3,0 5.6,1.984 6.5,4.328 z"
           inkscape:connector-curvature="0"
           style="fill:#000000;stroke-width:0" /><path
           id="path1010"
           d="m 1519.4,1.4531 v 3.2813 l -7.1,-0.5469 V 2.6406 c 3.5,0 3.9,-0.2968 3.9,-2.48435 V -23.156 c 0,-2.25 -0.6,-2.25 -3.9,-2.25 v -1.547 c 1.7,0.062 4.3,0.156 5.5,0.156 1.4,0 3.9,-0.094 5.7,-0.156 v 1.547 c -3.4,0 -3.9,0 -3.9,2.25 v 8.359 0.453 l 0.7,0.656 c -0.7,1.047 -0.7,1.094 -0.7,2.079 v 0 11.12462 C 1521,2.0469 1523.5,3.5 1526,3.5 c 3.7,0 6.7,-4.39062 6.7,-10.0156 0,-6.0314 -3.5,-10.2184 -7.2,-10.2184 -2,0 -3.9,1 -5.2,3.046 l -0.7,-0.656 c 0.2,-0.797 2.3,-3.484 6.1,-3.484 6,0 11.1,4.875 11.1,11.3124 0,6.3281 -4.8,11.25 -10.4,11.25 -3.9,0 -6,-2.1875 -7,-3.2813 z"
           inkscape:connector-curvature="0"
           style="fill:#000000;stroke-width:0" /><path
           id="path1012"
           d="m 1560.9,-6.4219 v 0.3765 0.3677 0.359 0.3505 0.3421 l 0.1,0.3336 v 0.3253 0.3172 l 0.1,0.309 v 0.301 l 0.1,0.2931 0.1,0.2852 0.1,0.5473 0.1,0.5169 0.2,0.48745 0.2,0.45856 0.2,0.430429 0.2,0.403021 0.2,0.37633 0.2,0.35041 0.3,0.3251 0.2,0.3006 0.3,0.2768 0.3,0.2537 0.2,0.2313 0.3,0.2097 0.3,0.1888 0.3,0.1686 0.2,0.1491 0.3,0.1304 0.3,0.1123 0.3,0.095 0.3,0.0784 0.3,0.0625 0.2,0.0474 0.3,0.033 0.2,0.0192 0.3,0.0063 c 0.4,0 3.6,-0.0469 5.3,-1.8438 -2,-0.1562 -2.3,-1.6406 -2.3,-2.29685 0,-1.29685 0.9,-2.29685 2.3,-2.29685 1.3,0 2.3,0.8594 2.3,2.34372 0,3.39068 -3.8,5.32808 -7.7,5.32808 -6.2,0 -10.8,-5.37495 -10.8,-11.5468 0,-6.3754 5,-11.3124 10.7,-11.3124 6.7,0 8.3,5.984 8.3,6.469 0,0.5 -0.5,0.5 -0.6,0.5 -0.5,0 -0.6,-0.188 -0.7,-0.5 -1.4,-4.625 -4.7,-5.219 -6.5,-5.219 -2.7,0 -7,2.14 -7,10.1561 z"
           inkscape:connector-curvature="0"
           style="fill:#000000;stroke-width:0" /><path
           id="path1014"
           d="m 1600.6,-6.625 v 0.5943 l -0.1,0.5872 v 0.5792 l -0.1,0.5705 -0.2,0.561 -0.1,0.5508 -0.2,0.5397 -0.2,0.528 -0.2,0.5155 -0.3,0.5021 -0.2,0.4881 -0.3,0.47322 -0.3,0.45762 -0.4,0.44123 -0.3,0.42413 -0.4,0.4062 -0.3,0.3875 -0.4,0.368 -0.5,0.3479 -0.4,0.3268 -0.4,0.3052 -0.5,0.2826 -0.5,0.2593 -0.5,0.2353 -0.5,0.2105 -0.5,0.1849 -0.5,0.1586 -0.5,0.1315 -0.6,0.1035 -0.5,0.075 -0.6,0.0455 -0.5,0.0153 -0.1,-1.0937 c 2.2,0 4.3,-1.0937 5.6,-3.23438 1.3,-2.14062 1.3,-5.03122 1.3,-6.92192 0,-1.7968 0,-4.4842 -1.1,-6.6722 -1.1,-2.25 -3.2,-3.687 -5.7,-3.687 v 0 c -2.2,0 -4.4,1.047 -5.7,3.328 -1.3,2.203 -1.3,5.2344 -1.3,7.0312 0,1.9376 0,4.625 1.2,6.82818 1.4,2.28122 3.7,3.32812 5.7,3.32812 l 0.1,1.0937 c -6.3,0 -11.1,-5.42182 -11.1,-11.6562 0,-6.422 5.2,-11.203 11,-11.203 6.1,0 11.1,4.875 11.1,11.203 z"
           inkscape:connector-curvature="0"
           style="fill:#000000;stroke-width:0" /><path
           id="path1016"
           d="m 1612.4,-7.6094 0.1,-0.0208 0.2,-0.0248 0.1,-0.029 0.2,-0.0337 0.1,-0.0388 0.2,-0.0443 0.2,-0.0502 0.2,-0.0565 0.2,-0.0632 0.2,-0.0703 0.2,-0.0778 0.3,-0.0858 0.2,-0.094 0.2,-0.1028 0.2,-0.1119 0.2,-0.1215 0.2,-0.1313 0.3,-0.1418 0.2,-0.1524 0.2,-0.1636 0.2,-0.1751 0.1,-0.1871 0.2,-0.1995 0.2,-0.2122 0.1,-0.2252 0.1,-0.118 v -0.121 l 0.1,-0.125 v -0.128 l 0.1,-0.132 v -0.135 l 0.1,-0.139 v -0.143 -0.147 l 0.1,-0.151 v -0.154 -0.158 -0.163 -0.166 c 0,-2.531 -1.7,-4.531 -5.6,-4.531 -4.2,0 -6,2.843 -6.9,7.0778 -0.2,0.6406 -0.2,0.8437 -0.7,0.8437 -0.7,0 -0.7,-0.3437 -0.7,-1.2495 v -6.579 c 0,-0.843 0,-1.187 0.6,-1.187 0.2,0 0.3,0.047 1.2,1 0.1,0.094 0.1,0.187 1,1.14 2.2,-2.093 4.4,-2.14 5.5,-2.14 5.7,0 8,3.344 8,6.922 0,2.6404 -1.5,4.1404 -2.1,4.7341 -1.6,1.5938 -3.6,2 -5.7,2.3907 -2.8,0.5468 -6.1,1.2031 -6.1,4.0937 0,1.7344 1.3,3.7813 5.6,3.7813 5.5,0 5.7,-4.48442 5.8,-6.0313 0.1,-0.4531 0.5,-0.4531 0.6,-0.4531 0.7,0 0.7,0.25 0.7,1.2031 v 5.0313 c 0,0.8437 0,1.1874 -0.6,1.1874 -0.2,0 -0.3,0 -1,-0.5937 -0.1,-0.2031 -0.6,-0.6406 -0.8,-0.7969 -1.9,1.3906 -4,1.3906 -4.7,1.3906 -6.1,0 -8,-3.3281 -8,-6.125 0,-1.7343 0.8,-3.1406 2.1,-4.2343 1.6,-1.2969 3,-1.5938 6.6,-2.2813 z"
           inkscape:connector-curvature="0"
           style="fill:#000000;stroke-width:0" /><path
           id="path1018"
           d="m 1630.4,2.6406 h 7.1 v 1.5469 h -7.1 v 9.1715 h -1.3 c 0,-4.0778 -1.5,-9.4215 -6.4,-9.609 V 2.6406 h 4.2 V -11.109 c 0,-6.125 4.7,-6.719 6.5,-6.719 3.5,0 4.9,3.531 4.9,6.719 v 2.8434 h -1.2 V -11 c 0,-3.688 -1.5,-5.578 -3.4,-5.578 -3.3,0 -3.3,4.531 -3.3,5.375 z"
           inkscape:connector-curvature="0"
           style="fill:#000000;stroke-width:0" /><path
           id="path1020"
           d="m 1681.1,-6.625 v 0.5943 l -0.1,0.5872 v 0.5792 l -0.1,0.5705 -0.2,0.561 -0.1,0.5508 -0.2,0.5397 -0.2,0.528 -0.2,0.5155 -0.2,0.5021 -0.3,0.4881 -0.3,0.47322 -0.3,0.45762 -0.3,0.44123 -0.4,0.42413 -0.4,0.4062 -0.3,0.3875 -0.4,0.368 -0.5,0.3479 -0.4,0.3268 -0.4,0.3052 -0.5,0.2826 -0.5,0.2593 -0.5,0.2353 -0.5,0.2105 -0.5,0.1849 -0.5,0.1586 -0.5,0.1315 -0.6,0.1035 -0.5,0.075 -0.6,0.0455 -0.5,0.0153 -0.1,-1.0937 c 2.2,0 4.4,-1.0937 5.7,-3.23438 1.2,-2.14062 1.2,-5.03122 1.2,-6.92192 0,-1.7968 0,-4.4842 -1,-6.6722 -1.1,-2.25 -3.3,-3.687 -5.8,-3.687 v 0 c -2.2,0 -4.3,1.047 -5.7,3.328 -1.2,2.203 -1.2,5.2344 -1.2,7.0312 0,1.9376 0,4.625 1.1,6.82818 1.4,2.28122 3.7,3.32812 5.7,3.32812 l 0.1,1.0937 c -6.2,0 -11.1,-5.42182 -11.1,-11.6562 0,-6.422 5.2,-11.203 11,-11.203 6.1,0 11.1,4.875 11.1,11.203 z"
           inkscape:connector-curvature="0"
           style="fill:#000000;stroke-width:0" /><path
           id="path1022"
           d="m 1691.3,4.1875 v 5.7813 c 0,4.3902 2.4,6.7812 4.6,6.7812 0.1,0 0.9,0 1.6,-0.359 -0.6,-0.188 -1.5,-0.844 -1.5,-2.079 0,-1.156 0.8,-2.156 2.2,-2.156 1.4,0 2.2,1 2.2,2.203 0,1.844 -1.9,3.485 -4.5,3.485 -3.5,0 -7.7,-2.641 -7.7,-7.9221 V 4.1875 h -4 V 2.6406 h 4 V -13.5 c 0,-2.234 -0.6,-2.234 -3.9,-2.234 v -1.547 c 1.9,0.047 4.3,0.156 5.7,0.156 1.9,0 4.3,0 6.3,-0.156 v 1.547 h -1.1 c -3.6,0 -3.7,0.546 -3.7,2.343 V 2.6406 h 5.6 v 1.5469 z"
           inkscape:connector-curvature="0"
           style="fill:#000000;stroke-width:0" /><path
           id="path1024"
           d="M 1723.2,17.297 1716,16.75 v -1.547 c 3.5,0 3.9,-0.344 3.9,-2.797 V -13.5 c 0,-2.234 -0.5,-2.234 -3.9,-2.234 v -1.547 c 1.7,0.047 4.3,0.156 5.6,0.156 1.2,0 3.6,-0.109 5.5,-0.156 v 1.547 c -3.4,0 -3.9,0 -3.9,2.234 z"
           inkscape:connector-curvature="0"
           style="fill:#000000;stroke-width:0" /><path
           id="path1026"
           d="m 1733.7,-5.7656 0.1,1.0468 c 0.3,7.4219 4.4,8.6563 6.1,8.6563 5.2,0 5.7,-6.7187 5.7,-8.6563 h -11.8 l -0.1,-1.0468 h 13.9 c 1.1,0 1.2,0 1.2,1.0468 0,4.92192 -2.6,9.75 -8.9,9.75 -5.7,0 -10.3,-5.12495 -10.3,-11.3593 0,-6.6719 5.2,-11.4999 10.9,-11.4999 6.1,0 8.3,5.531 8.3,6.469 0,0.5 -0.3,0.609 -0.6,0.609 -0.4,0 -0.5,-0.297 -0.6,-0.703 -1.8,-5.125 -6.3,-5.125 -6.8,-5.125 -2.5,0 -4.5,1.484 -5.6,3.328 -1.5,2.391 -1.5,5.6875 -1.5,7.4844 z"
           inkscape:connector-curvature="0"
           style="fill:#000000;stroke-width:0" /><path
           id="path1028"
           d="M 1755.7,-0.14062 V -13.5 c 0,-2.234 -0.5,-2.234 -3.9,-2.234 v -1.547 c 1.8,0.047 4.3,0.156 5.7,0.156 1.3,0 3.9,-0.109 5.6,-0.156 v 1.547 c -3.4,0 -3.9,0 -3.9,2.234 v 9.1719 c 0,5.18748 3.5,7.9687 6.7,7.9687 3.1,0 3.7,-2.68748 3.7,-5.5312 V -13.5 c 0,-2.234 -0.6,-2.234 -3.9,-2.234 v -1.547 c 1.7,0.047 4.3,0.156 5.6,0.156 1.3,0 3.9,-0.109 5.6,-0.156 v 1.547 c -2.6,0 -3.8,0 -3.9,1.5 v 9.5152 c 0,4.2813 0,5.8282 -1.5,7.6094 -0.7,0.8594 -2.4,1.8438 -5.3,1.8438 -3.6,0 -5.9,-2.1406 -7.3,-5.21878 V 4.7344 l -7.1,-0.5469 V 2.6406 c 3.5,0 3.9,-0.3437 3.9,-2.78122 z"
           inkscape:connector-curvature="0"
           style="fill:#000000;stroke-width:0" /><path
           id="path1030"
           d="m 1783.2,-10.656 0.1,0.021 v 0.028 0.032 0.037 0.041 0.047 0.05 0.055 0.059 0.062 0.066 0.069 0.072 0.0754 0.0779 l 0.1,0.0805 v 0.0828 0.0849 0.0869 l 0.1,0.0886 v 0.0902 0.0915 l 0.1,0.0927 v 0.0936 l 0.1,0.0944 v 0.0949 l 0.1,0.0953 v 0.0954 l 0.1,0.0954 0.1,0.0952 v 0.0948 l 0.1,0.0941 c 2,-1.3906 4,-1.5469 4.9,-1.5469 v 1.1406 c -4.3,0 -4.3,4.9844 -4.3,6.1407 0,1.3437 0.1,2.93748 0.8,4.1719 0.4,0.6093 1.5,2 3.5,2 4.4,0 4.4,-4.9844 4.4,-6.125 0,-1.3438 -0.1,-2.9376 -0.8,-4.1876 -0.4,-0.5937 -1.6,-2 -3.6,-2 v 0 -1.1406 c 4.7,0 8.1,3.4375 8.1,7.2813 0,1.84372 -0.8,3.6875 -2,4.8281 1.7,1.6875 3.5,1.9375 4.5,1.9375 0,0 0.3,0 0.5,-0.0469 -0.6,-0.2031 -0.9,-0.75 -0.9,-1.3437 0,-0.8438 0.7,-1.4375 1.5,-1.4375 0.5,0 1.4,0.3437 1.4,1.4844 0,0.8437 -0.6,2.4374 -2.5,2.4374 -1,0 -3.2,-0.2968 -5.3,-2.3281 -2.1,1.6407 -4.2,1.7813 -5.3,1.7813 -4.6,0 -8,-3.4375 -8,-7.2656 0,-2.1876 1.1,-4.0938 2.3,-5.1407 -0.6,-0.7343 -1.5,-2.3901 -1.5,-4.1251 0,-1.547 0.6,-3.437 2.2,-4.437 -3,-0.844 -4.6,-2.985 -4.6,-4.985 0,-3.578 4.9,-6.328 11,-6.328 v 1.141 c -5,0 -8.4,2.547 -8.4,5.187 0,2.297 1.8,4.141 4.1,4.281 h 2.9 c 4.3,0 9.8,0 9.8,-4.281 0,-2.687 -3.5,-5.187 -8.4,-5.187 v 0 -1.141 c 5.8,0 11,2.547 11,6.422 0,1.75 -0.7,4.297 -3.2,5.687 -2.6,1.391 -5.5,1.391 -8.6,1.391 -1.2,0 -3.4,0 -3.7,0.047 -1.6,0.203 -2.7,1.75 -2.7,3.344 z"
           inkscape:connector-curvature="0"
           style="fill:#000000;stroke-width:0" /><path
           id="path1032"
           d="m 1811.6,2.6406 h 7.1 v 1.5469 h -7.1 v 9.1715 h -1.3 c 0,-4.0778 -1.5,-9.4215 -6.4,-9.609 V 2.6406 h 4.2 V -11.109 c 0,-6.125 4.6,-6.719 6.4,-6.719 3.6,0 5,3.531 5,6.719 v 2.8434 h -1.3 V -11 c 0,-3.688 -1.5,-5.578 -3.3,-5.578 -3.3,0 -3.3,4.531 -3.3,5.375 z"
           inkscape:connector-curvature="0"
           style="fill:#000000;stroke-width:0" /><path
           id="path1034"
           d="m 1827.7,-13.5 v -0.103 -0.1 -0.19 -0.178 -0.167 -0.154 -0.144 l -0.1,-0.133 v -0.123 l -0.1,-0.113 v -0.103 l -0.1,-0.095 v -0.086 l -0.1,-0.078 -0.1,-0.07 -0.1,-0.062 -0.1,-0.056 -0.1,-0.049 -0.1,-0.043 -0.1,-0.038 -0.2,-0.032 -0.1,-0.027 -0.2,-0.022 -0.2,-0.019 v -0.008 l -0.1,-0.006 -0.1,-0.007 -0.1,-0.005 -0.2,-0.005 -0.1,-0.004 -0.1,-0.003 -0.1,-0.003 -0.1,-0.002 -0.1,-0.002 -0.2,-10e-4 -0.1,-0.002 h -0.1 l -0.2,-10e-4 h -0.1 -0.2 -0.1 -0.2 v -1.547 c 1.8,0.047 4.3,0.156 5.7,0.156 1.3,0 3.9,-0.109 5.5,-0.156 v 1.547 c -3.3,0 -3.8,0 -3.8,2.234 v 9.1719 c 0,5.18748 3.5,7.9687 6.7,7.9687 3.1,0 3.7,-2.68748 3.7,-5.5312 V -13.5 c 0,-2.234 -0.6,-2.234 -3.9,-2.234 v -1.547 c 1.7,0.047 4.3,0.156 5.6,0.156 1.3,0 3.9,-0.109 5.6,-0.156 v 1.547 c -2.6,0 -3.8,0 -3.9,1.5 v 9.5152 c 0,4.2813 0,5.8282 -1.5,7.6094 -0.7,0.8594 -2.4,1.8438 -5.3,1.8438 -4.1,0 -6.3,-2.9844 -7.2,-4.87502 V 17.297 l -7.2,-0.547 v -1.547 c 3.5,0 3.9,-0.344 3.9,-2.797 z"
           inkscape:connector-curvature="0"
           style="fill:#000000;stroke-width:0" /><path
           id="path1036"
           d="m 1880.8,16.75 v 0.003 0.003 0.008 0.01 0.013 0.015 0.016 0.018 0.019 0.021 0.022 0.022 0.024 0.024 0.024 0.024 l -0.1,0.025 v 0.024 0.025 0.023 0.023 0.011 l -0.1,0.011 v 0.011 0.011 0.01 0.009 0.01 l -0.1,0.009 v 0.009 0.008 0.008 0.007 0.007 l -0.1,0.007 v 0.006 0.005 0.005 l -0.1,0.005 v 0.003 0.003 0.003 l -0.1,0.001 v 0.002 0 c -1.2,0 -4.8,-0.406 -6.1,-0.5 -0.4,-0.047 -0.9,-0.094 -0.9,-1 0,-0.594 0.4,-0.594 1.2,-0.594 2.4,0 2.4,-0.344 2.4,-0.844 l -0.1,-1 -7.2,-28.703 c -0.2,-0.687 -0.2,-0.797 -0.2,-1.094 0,-1.14 1,-1.39 1.4,-1.39 0.7,0 1.4,0.453 1.7,1.047 0.3,0.453 2.5,9.656 2.8,10.906 1.7,-0.1406 5.8,-0.9375 5.8,-4.234 0,-0.344 0,-0.547 -0.2,-1.047 -0.1,-0.594 -0.2,-1.188 -0.2,-1.735 0,-2.953 2,-4.937 4.6,-4.937 1.5,0 2.8,0.797 4,2.64 1.2,2.188 1.7,4.938 1.7,5.032 0,0.4998 -0.4,0.4998 -0.6,0.4998 -0.5,0 -0.5,-0.2032 -0.7,-0.9058 -0.9,-3.626 -2.1,-6.172 -4.3,-6.172 -0.9,0 -1.6,0.546 -1.6,2.343 0,0.844 0.2,1.985 0.4,2.782 0.2,0.859 0.2,1.047 0.2,1.547 0,3.2495 -3.1,4.687 -7.4,5.2339 1.6,0.9062 3.2,2.5 4.3,3.6875 2.4,2.6406 4.7,4.7812 7.2,4.7812 0.3,0 0.3,0 0.4,-0.0468 0.6,-0.0938 0.6,-0.0938 1,-0.3907 0.1,-0.0625 0.1,-0.1093 0.2,-0.2031 -2.3,-0.1562 -2.8,-2.09375 -2.8,-2.6875 0,-0.79688 0.6,-1.75 1.9,-1.75 1.3,0 2.7,1.09375 2.7,3.0313 0,1.5 -1.1,3.1406 -3.4,3.1406 -1.3,0 -3.6,-0.3906 -7.2,-4.37502 -1.7,-1.89058 -3.7,-3.89058 -5.5,-4.64058 z"
           inkscape:connector-curvature="0"
           style="fill:#000000;stroke-width:0" /><path
           id="path1038"
           d="m 2052.2,-29.234 v 0.026 0.026 0.014 0.014 0.015 0.016 0.017 0.018 0.019 0.02 0.022 l -0.1,0.023 v 0.026 0.027 0.029 0.032 l -0.1,0.033 v 0.037 0.019 0.019 0.021 l -0.1,0.021 v 0.022 0.023 0.023 0.024 l -0.1,0.025 v 0.026 0.027 0.027 l -0.1,0.029 v 0.029 0.03 l -0.1,0.031 v 0.032 0.033 l -0.1,0.034 v 0.035 0.036 l -0.1,0.036 v 0.038 0.039 c -6.3,6.282 -7.8,15.688 -7.8,23.3129 0,8.6719 1.8,17.3441 8,23.5621 0.6,0.61 0.6,0.704 0.6,0.86 0,0.344 -0.2,0.484 -0.5,0.484 -0.5,0 -5,-3.375 -7.9,-9.703 -2.6,-5.4844 -3.1,-11.01562 -3.1,-15.2031 0,-3.8907 0.5,-9.9059 3.2,-15.5469 3,-6.125 7.3,-9.359 7.8,-9.359 0.3,0 0.5,0.14 0.5,0.5 z"
           inkscape:connector-curvature="0"
           style="fill:#000000;stroke-width:0" /><path
           id="path1040"
           d="m 2069.7,-9.0625 v -4.3285 c 0,-1.797 -0.1,-2.343 -3.8,-2.343 h -1 v -1.547 c 2,0.156 4.6,0.156 6.7,0.156 2.1,0 4.7,0 6.8,-0.156 v 1.547 h -1.1 c -3.7,0 -3.8,0.546 -3.8,2.343 v 4.3285 h 5 v 1.5469 h -5 V 15.156 c 0,1 0,1.297 -0.8,1.297 -0.4,0 -0.6,0 -1,-0.609 l -15.3,-23.3596 h 1.4 L 2070,11.062 V -7.5156 h -12.2 -1.4 v -1.5469 z"
           inkscape:connector-curvature="0"
           style="fill:#000000;stroke-width:0" /><path
           id="path1042"
           d="m 2094.4,-4.8281 v 0.3709 0.383 0.3947 0.4057 l -0.1,0.8431 v 0.8821 l -0.1,0.91735 -0.1,0.94885 -0.2,0.9766 -0.1,1.0007 -0.2,1.021 -0.3,1.0377 -0.2,1.0504 -0.3,1.0596 -0.4,1.0651 -0.4,1.0666 -0.2,0.5328 -0.2,0.5319 -0.2,0.53 -0.3,0.529 c -3,6.125 -7.3,9.359 -7.8,9.359 -0.3,0 -0.5,-0.187 -0.5,-0.484 0,-0.156 0,-0.25 1,-1.156 4.9,-4.922 7.7,-12.8442 7.7,-23.2661 0,-8.5159 -1.8,-17.2809 -8,-23.5629 -0.7,-0.593 -0.7,-0.703 -0.7,-0.843 0,-0.297 0.2,-0.5 0.5,-0.5 0.5,0 5,3.39 8,9.718 2.5,5.469 3.1,11.0004 3.1,15.1879 z"
           inkscape:connector-curvature="0"
           style="fill:#000000;stroke-width:0" /></g>    </g>
  </g>
</svg>
