<?xml version="1.0" encoding="UTF-8" standalone="no"?>
<!-- Created with Inkscape (http://www.inkscape.org/) -->

<svg
   xmlns:dc="http://purl.org/dc/elements/1.1/"
   xmlns:cc="http://creativecommons.org/ns#"
   xmlns:rdf="http://www.w3.org/1999/02/22-rdf-syntax-ns#"
   xmlns:svg="http://www.w3.org/2000/svg"
   xmlns="http://www.w3.org/2000/svg"
   xmlns:sodipodi="http://sodipodi.sourceforge.net/DTD/sodipodi-0.dtd"
   xmlns:inkscape="http://www.inkscape.org/namespaces/inkscape"
   width="101.94823mm"
   height="16.741663mm"
   viewBox="0 0 101.94823 16.741663"
   version="1.1"
   id="svg2914"
   inkscape:version="0.92.5 (2060ec1f9f, 2020-04-08)"
   sodipodi:docname="formula-2.svg">
  <defs
     id="defs2908" />
  <sodipodi:namedview
     id="base"
     pagecolor="#ffffff"
     bordercolor="#666666"
     borderopacity="1.0"
     inkscape:pageopacity="1"
     inkscape:pageshadow="2"
     inkscape:zoom="1.4"
     inkscape:cx="19.687043"
     inkscape:cy="74.31723"
     inkscape:document-units="mm"
     inkscape:current-layer="layer1"
     showgrid="false"
     fit-margin-top="0"
     fit-margin-left="0"
     fit-margin-right="0"
     fit-margin-bottom="0"
     inkscape:window-width="1848"
     inkscape:window-height="1016"
     inkscape:window-x="1992"
     inkscape:window-y="27"
     inkscape:window-maximized="1" />
  <metadata
     id="metadata2911">
    <rdf:RDF>
      <cc:Work
         rdf:about="">
        <dc:format>image/svg+xml</dc:format>
        <dc:type
           rdf:resource="http://purl.org/dc/dcmitype/StillImage" />
        <dc:title></dc:title>
      </cc:Work>
    </rdf:RDF>
  </metadata>
  <g
     inkscape:label="Layer 1"
     inkscape:groupmode="layer"
     id="layer1"
     transform="translate(-16.347923,-27.930309)">
    <rect
       style="fill:#ffffff;fill-opacity:1;stroke:none;stroke-width:0.30000001;stroke-miterlimit:4;stroke-dasharray:none;stroke-opacity:1"
       id="rect829"
       width="101.94823"
       height="16.741663"
       x="16.347923"
       y="27.930309" />
    <g
       id="g1055"
       transform="translate(-67.76519,-60.957072)">
      <g
         word-spacing="normal"
         letter-spacing="normal"
         font-size-adjust="none"
         font-stretch="normal"
         font-weight="normal"
         font-variant="normal"
         font-style="normal"
         stroke-miterlimit="10.433"
         xml:space="preserve"
         transform="matrix(0.3,0,0,-0.3,-52.5,222.75)"
         id="g1053"
         style="font-style:normal;font-variant:normal;font-weight:normal;font-stretch:normal;letter-spacing:normal;word-spacing:normal;text-anchor:start;fill:none;fill-opacity:1;fill-rule:evenodd;stroke:#000000;stroke-linecap:butt;stroke-linejoin:miter;stroke-miterlimit:10.43299961;stroke-dasharray:none;stroke-dashoffset:0;stroke-opacity:1"><path
           id="path1031"
           d="m 478.54,423.09 0.02,0.1 0.02,0.11 0.03,0.12 0.03,0.11 0.03,0.12 0.03,0.12 0.06,0.25 0.06,0.25 0.06,0.25 0.06,0.24 0.06,0.25 0.03,0.11 0.03,0.12 0.03,0.11 0.02,0.11 0.03,0.1 0.02,0.1 0.02,0.1 0.02,0.09 0.02,0.08 0.02,0.08 0.01,0.07 0.01,0.06 0.01,0.06 0.01,0.05 v 0.04 l 0.01,0.03 c 0,0.91 -0.71,1.35 -1.46,1.35 -0.59,0 -1.48,-0.39 -1.83,-1.39 -0.15,-0.35 -2.5,-9.86 -2.84,-11.16 -0.36,-1.5 -0.45,-2.39 -0.45,-3.3 0,-0.54 0,-0.64 0.04,-0.89 -1.14,-2.64 -2.64,-4.18 -4.57,-4.18 -3.99,0 -3.99,3.68 -3.99,4.53 0,1.59 0.25,3.54 2.6,9.67 0.54,1.48 0.84,2.19 0.84,3.19 0,2.23 -1.64,4.07 -4.09,4.07 -4.74,0 -6.58,-7.21 -6.58,-7.67 0,-0.5 0.5,-0.5 0.61,-0.5 0.5,0 0.54,0.11 0.79,0.91 1.35,4.62 3.28,6.17 5.03,6.17 0.44,0 1.25,-0.05 1.25,-1.64 0,-1.25 -0.56,-2.64 -0.9,-3.48 -2.19,-5.88 -2.78,-8.18 -2.78,-10.07 0,-4.53 3.33,-6.28 7.06,-6.28 0.86,0 3.19,0 5.19,3.49 1.29,-3.19 4.73,-3.49 6.23,-3.49 3.74,0 5.92,3.14 7.22,6.13 1.69,3.89 3.28,10.56 3.28,12.95 0,2.75 -1.34,3.48 -2.19,3.48 -1.25,0 -2.48,-1.29 -2.48,-2.39 0,-0.64 0.3,-0.93 0.73,-1.34 0.55,-0.55 1.8,-1.84 1.8,-4.23 0,-1.69 -1.44,-6.58 -2.73,-9.11 -1.3,-2.64 -3.05,-4.39 -5.49,-4.39 -2.34,0 -3.69,1.5 -3.69,4.32 0,1.41 0.35,2.96 0.55,3.64 z"
           inkscape:connector-curvature="0"
           style="fill:#000000;stroke-width:0" /><path
           id="path1033"
           d="m 508.96,394.25 v 0.02 0.03 0.01 0.02 l -0.01,0.01 v 0.02 l -0.01,0.01 v 0.02 l -0.01,0.02 -0.01,0.02 -0.02,0.02 -0.01,0.03 -0.02,0.02 -0.01,0.03 -0.03,0.03 -0.02,0.03 -0.03,0.03 -0.03,0.04 -0.01,0.02 -0.02,0.02 -0.01,0.02 -0.02,0.02 -0.02,0.02 -0.02,0.03 -0.02,0.02 -0.03,0.02 -0.02,0.03 -0.02,0.02 -0.03,0.03 -0.02,0.03 -0.03,0.03 -0.03,0.03 -0.02,0.03 -0.03,0.03 -0.04,0.03 -0.03,0.03 -0.03,0.04 -0.03,0.03 -0.04,0.04 -0.04,0.03 -0.03,0.04 -0.04,0.04 c -6.22,6.28 -7.82,15.69 -7.82,23.31 0,8.67 1.9,17.35 8.02,23.56 0.64,0.61 0.64,0.71 0.64,0.86 0,0.35 -0.19,0.49 -0.48,0.49 -0.5,0 -4.99,-3.38 -7.93,-9.7 -2.54,-5.49 -3.14,-11.02 -3.14,-15.21 0,-3.89 0.55,-9.9 3.29,-15.54 2.98,-6.13 7.28,-9.36 7.78,-9.36 0.29,0 0.48,0.14 0.48,0.5 z"
           inkscape:connector-curvature="0"
           style="fill:#000000;stroke-width:0" /><path
           id="path1035"
           d="m 528.43,421.25 0.03,0.13 0.04,0.15 0.04,0.16 0.05,0.18 0.05,0.19 0.06,0.21 0.07,0.22 0.07,0.22 0.08,0.23 0.09,0.24 0.09,0.25 0.1,0.24 0.11,0.25 0.12,0.25 0.13,0.25 0.14,0.25 0.15,0.24 0.16,0.24 0.16,0.23 0.18,0.22 0.19,0.22 0.19,0.2 0.21,0.19 0.22,0.18 0.24,0.16 0.24,0.14 0.13,0.07 0.13,0.06 0.13,0.05 0.14,0.05 0.14,0.05 0.14,0.04 0.14,0.03 0.15,0.03 0.15,0.02 0.16,0.02 0.16,0.01 h 0.16 c 0.25,0 1.44,0 2.48,-0.64 -1.38,-0.25 -2.38,-1.5 -2.38,-2.69 0,-0.79 0.54,-1.75 1.88,-1.75 1.1,0 2.69,0.89 2.69,2.89 0,2.6 -2.94,3.28 -4.62,3.28 -2.89,0 -4.64,-2.64 -5.24,-3.78 -1.25,3.28 -3.93,3.78 -5.37,3.78 -5.19,0 -8.03,-6.42 -8.03,-7.67 0,-0.5 0.5,-0.5 0.61,-0.5 0.39,0 0.54,0.11 0.64,0.55 1.69,5.28 4.98,6.53 6.67,6.53 0.95,0 2.69,-0.44 2.69,-3.33 0,-1.54 -0.85,-4.89 -2.69,-11.86 -0.8,-3.09 -2.53,-5.18 -4.73,-5.18 -0.3,0 -1.44,0 -2.49,0.65 1.25,0.24 2.34,1.28 2.34,2.69 0,1.34 -1.09,1.73 -1.84,1.73 -1.5,0 -2.75,-1.29 -2.75,-2.89 0,-2.28 2.5,-3.28 4.69,-3.28 3.3,0 5.08,3.49 5.23,3.78 0.6,-1.84 2.39,-3.78 5.38,-3.78 5.14,0 7.98,6.42 7.98,7.67 0,0.5 -0.45,0.5 -0.61,0.5 -0.43,0 -0.55,-0.2 -0.64,-0.54 -1.64,-5.33 -5.03,-6.53 -6.62,-6.53 -1.96,0 -2.75,1.59 -2.75,3.29 0,1.1 0.29,2.19 0.86,4.38 z"
           inkscape:connector-curvature="0"
           style="fill:#000000;stroke-width:0" /><path
           id="path1037"
           d="m 550.34,406.25 v 0.3 l -0.01,0.3 -0.02,0.29 -0.03,0.28 -0.03,0.27 -0.04,0.26 -0.04,0.26 -0.05,0.24 -0.06,0.24 -0.07,0.23 -0.07,0.22 -0.07,0.21 -0.09,0.2 -0.09,0.19 -0.09,0.19 -0.1,0.17 -0.11,0.16 -0.11,0.16 -0.12,0.14 -0.12,0.13 -0.13,0.13 -0.13,0.11 -0.14,0.1 -0.15,0.1 -0.14,0.08 -0.16,0.07 -0.16,0.06 -0.16,0.05 -0.17,0.04 -0.17,0.03 -0.18,0.01 -0.18,0.01 c -1.64,0 -2.64,-1.25 -2.64,-2.64 0,-1.34 1,-2.64 2.64,-2.64 0.6,0 1.25,0.2 1.75,0.64 0.14,0.11 0.2,0.16 0.25,0.16 0.05,0 0.1,-0.05 0.1,-0.75 0,-3.69 -1.74,-6.68 -3.4,-8.32 -0.54,-0.54 -0.54,-0.65 -0.54,-0.79 0,-0.36 0.25,-0.55 0.5,-0.55 0.54,0 4.53,3.83 4.53,9.66 z"
           inkscape:connector-curvature="0"
           style="fill:#000000;stroke-width:0" /><path
           id="path1039"
           d="m 586.53,425.18 0.01,0.04 v 0.03 l 0.02,0.06 0.02,0.05 0.01,0.06 0.01,0.05 0.01,0.04 0.02,0.05 0.01,0.04 0.01,0.04 v 0.04 l 0.01,0.04 0.01,0.04 0.01,0.03 v 0.03 l 0.01,0.03 v 0.03 l 0.01,0.03 v 0.03 l 0.01,0.05 v 0.06 0.05 0.05 0.05 0.03 0.03 l 0.01,0.03 v 0.03 c 0,0.91 -0.69,1.35 -1.44,1.35 -0.5,0 -1.3,-0.3 -1.75,-1.05 -0.1,-0.25 -0.5,-1.78 -0.69,-2.69 -0.36,-1.29 -0.7,-2.64 -1,-3.98 l -2.25,-8.97 c -0.19,-0.75 -2.33,-4.23 -5.62,-4.23 -2.54,0 -3.1,2.18 -3.1,4.03 0,2.29 0.86,5.39 2.55,9.76 0.8,2.05 1,2.6 1,3.6 0,2.23 -1.6,4.07 -4.1,4.07 -4.73,0 -6.57,-7.21 -6.57,-7.67 0,-0.5 0.5,-0.5 0.6,-0.5 0.5,0 0.55,0.11 0.8,0.91 1.35,4.69 3.33,6.17 5.03,6.17 0.39,0 1.25,0 1.25,-1.59 0,-1.25 -0.5,-2.53 -0.86,-3.49 -1.98,-5.28 -2.89,-8.12 -2.89,-10.47 0,-4.42 3.14,-5.92 6.08,-5.92 1.96,0 3.64,0.85 5.03,2.24 -0.64,-2.58 -1.23,-5.03 -3.23,-7.68 -1.3,-1.68 -3.19,-3.14 -5.49,-3.14 -0.68,0 -2.93,0.16 -3.78,2.1 0.8,0 1.46,0 2.14,0.61 0.5,0.43 1,1.09 1,2.03 0,1.55 -1.34,1.75 -1.84,1.75 -1.14,0 -2.8,-0.8 -2.8,-3.24 0,-2.5 2.21,-4.34 5.28,-4.34 5.15,0 10.27,4.55 11.68,10.17 z"
           inkscape:connector-curvature="0"
           style="fill:#000000;stroke-width:0" /><path
           id="path1041"
           d="m 602.98,418.65 v 0.37 l -0.01,0.39 -0.01,0.39 -0.01,0.41 -0.04,0.84 -0.06,0.88 -0.08,0.92 -0.11,0.95 -0.13,0.97 -0.17,1.01 -0.19,1.02 -0.23,1.03 -0.27,1.05 -0.31,1.06 -0.35,1.07 -0.39,1.07 -0.21,0.53 -0.23,0.53 -0.23,0.53 -0.25,0.53 c -2.99,6.12 -7.27,9.36 -7.77,9.36 -0.3,0 -0.5,-0.19 -0.5,-0.49 0,-0.15 0,-0.25 0.94,-1.15 4.89,-4.92 7.73,-12.85 7.73,-23.27 0,-8.51 -1.84,-17.28 -8.03,-23.56 -0.64,-0.59 -0.64,-0.7 -0.64,-0.84 0,-0.3 0.2,-0.5 0.5,-0.5 0.5,0 4.97,3.39 7.92,9.71 2.53,5.47 3.13,11 3.13,15.19 z"
           inkscape:connector-curvature="0"
           style="fill:#000000;stroke-width:0" /><path
           id="path1043"
           d="m 656.18,422.5 h 0.14 0.14 0.14 l 0.08,0.01 h 0.07 l 0.07,0.01 0.07,0.01 0.07,0.01 0.07,0.01 0.07,0.01 0.07,0.02 0.06,0.02 0.06,0.02 0.07,0.02 0.05,0.03 0.06,0.03 0.05,0.04 0.05,0.03 0.05,0.05 0.04,0.04 0.04,0.05 0.02,0.03 0.02,0.03 0.01,0.02 0.02,0.03 0.01,0.03 0.02,0.04 0.01,0.03 0.01,0.04 0.01,0.03 0.01,0.04 0.01,0.04 v 0.04 l 0.01,0.04 v 0.04 0.04 0.05 c 0,1 -0.95,1 -1.64,1 h -29.84 c -0.7,0 -1.64,0 -1.64,-1 0,-0.98 0.94,-0.98 1.69,-0.98 z"
           inkscape:connector-curvature="0"
           style="fill:#000000;stroke-width:0" /><path
           id="path1045"
           d="m 656.22,412.82 h 0.07 0.06 l 0.14,0.01 h 0.14 0.07 l 0.07,0.01 0.07,0.01 h 0.07 l 0.07,0.01 0.06,0.02 0.07,0.01 0.07,0.02 0.06,0.02 0.06,0.02 0.06,0.02 0.06,0.03 0.05,0.03 0.06,0.04 0.04,0.04 0.05,0.04 0.04,0.05 0.02,0.02 0.02,0.03 0.02,0.02 0.02,0.03 0.02,0.03 0.01,0.03 0.01,0.03 0.02,0.03 0.01,0.04 0.01,0.03 0.01,0.04 0.01,0.04 0.01,0.04 v 0.04 l 0.01,0.04 v 0.04 0.05 0.04 c 0,1 -0.95,1 -1.68,1 h -29.75 c -0.75,0 -1.69,0 -1.69,-1 0,-1 0.94,-1 1.64,-1 z"
           inkscape:connector-curvature="0"
           style="fill:#000000;stroke-width:0" /><path
           id="path1047"
           d="m 691.14,421.25 0.03,0.13 0.04,0.15 0.04,0.16 0.04,0.18 0.06,0.19 0.06,0.21 0.06,0.22 0.08,0.22 0.08,0.23 0.08,0.24 0.1,0.25 0.1,0.24 0.11,0.25 0.12,0.25 0.13,0.25 0.14,0.25 0.15,0.24 0.15,0.24 0.17,0.23 0.18,0.22 0.18,0.22 0.2,0.2 0.21,0.19 0.22,0.18 0.23,0.16 0.25,0.14 0.12,0.07 0.13,0.06 0.14,0.05 0.13,0.05 0.14,0.05 0.14,0.04 0.15,0.03 0.15,0.03 0.15,0.02 0.16,0.02 0.16,0.01 h 0.16 c 0.25,0 1.44,0 2.48,-0.64 -1.39,-0.25 -2.39,-1.5 -2.39,-2.69 0,-0.79 0.55,-1.75 1.89,-1.75 1.1,0 2.69,0.89 2.69,2.89 0,2.6 -2.94,3.28 -4.63,3.28 -2.89,0 -4.64,-2.64 -5.23,-3.78 -1.25,3.28 -3.94,3.78 -5.37,3.78 -5.19,0 -8.04,-6.42 -8.04,-7.67 0,-0.5 0.5,-0.5 0.61,-0.5 0.39,0 0.55,0.11 0.64,0.55 1.69,5.28 4.99,6.53 6.68,6.53 0.95,0 2.68,-0.44 2.68,-3.33 0,-1.54 -0.84,-4.89 -2.68,-11.86 -0.8,-3.09 -2.53,-5.18 -4.74,-5.18 -0.29,0 -1.44,0 -2.48,0.65 1.25,0.24 2.34,1.28 2.34,2.69 0,1.34 -1.09,1.73 -1.84,1.73 -1.5,0 -2.75,-1.29 -2.75,-2.89 0,-2.28 2.5,-3.28 4.68,-3.28 3.3,0 5.08,3.49 5.24,3.78 0.59,-1.84 2.39,-3.78 5.37,-3.78 5.15,0 7.99,6.42 7.99,7.67 0,0.5 -0.45,0.5 -0.61,0.5 -0.44,0 -0.55,-0.2 -0.64,-0.54 -1.64,-5.33 -5.03,-6.53 -6.63,-6.53 -1.95,0 -2.75,1.59 -2.75,3.29 0,1.1 0.3,2.19 0.86,4.38 z"
           inkscape:connector-curvature="0"
           style="fill:#000000;stroke-width:0" /><path
           id="path1049"
           d="m 734.47,417.65 h 13.91 c 0.69,0 1.64,0 1.64,1 0,1 -0.95,1 -1.64,1 h -13.91 v 13.96 c 0,0.68 0,1.64 -1,1.64 -0.98,0 -0.98,-0.96 -0.98,-1.64 v -13.96 h -13.96 c -0.7,0 -1.63,0 -1.63,-1 0,-1 0.93,-1 1.63,-1 h 13.96 v -13.94 c 0,-0.7 0,-1.65 0.98,-1.65 1,0 1,0.95 1,1.65 z"
           inkscape:connector-curvature="0"
           style="fill:#000000;stroke-width:0" /><path
           id="path1051"
           d="m 788.11,425.18 0.01,0.04 0.01,0.03 0.02,0.06 0.01,0.05 0.02,0.06 0.01,0.05 0.01,0.04 0.01,0.05 0.01,0.04 0.01,0.04 0.01,0.04 0.01,0.04 0.01,0.04 v 0.03 l 0.01,0.03 v 0.03 l 0.01,0.03 v 0.03 l 0.01,0.03 v 0.05 l 0.01,0.06 v 0.05 0.05 0.05 0.03 0.03 0.03 0.03 c 0,0.91 -0.69,1.35 -1.44,1.35 -0.5,0 -1.29,-0.3 -1.75,-1.05 -0.09,-0.25 -0.5,-1.78 -0.68,-2.69 -0.36,-1.29 -0.71,-2.64 -1,-3.98 l -2.25,-8.97 c -0.19,-0.75 -2.33,-4.23 -5.63,-4.23 -2.53,0 -3.09,2.18 -3.09,4.03 0,2.29 0.86,5.39 2.54,9.76 0.8,2.05 1,2.6 1,3.6 0,2.23 -1.59,4.07 -4.09,4.07 -4.73,0 -6.58,-7.21 -6.58,-7.67 0,-0.5 0.5,-0.5 0.61,-0.5 0.5,0 0.55,0.11 0.8,0.91 1.34,4.69 3.33,6.17 5.03,6.17 0.39,0 1.25,0 1.25,-1.59 0,-1.25 -0.5,-2.53 -0.86,-3.49 -1.98,-5.28 -2.89,-8.12 -2.89,-10.47 0,-4.42 3.14,-5.92 6.08,-5.92 1.95,0 3.64,0.85 5.03,2.24 -0.64,-2.58 -1.23,-5.03 -3.23,-7.68 -1.3,-1.68 -3.19,-3.14 -5.49,-3.14 -0.69,0 -2.94,0.16 -3.78,2.1 0.8,0 1.45,0 2.14,0.61 0.5,0.43 1,1.09 1,2.03 0,1.55 -1.34,1.75 -1.84,1.75 -1.15,0 -2.8,-0.8 -2.8,-3.24 0,-2.5 2.2,-4.34 5.28,-4.34 5.14,0 10.27,4.55 11.67,10.17 z"
           inkscape:connector-curvature="0"
           style="fill:#000000;stroke-width:0" /></g>    </g>
  </g>
</svg>
