<?xml version="1.0" encoding="UTF-8" standalone="no"?>
<!-- Created with Inkscape (http://www.inkscape.org/) -->

<svg
   xmlns:dc="http://purl.org/dc/elements/1.1/"
   xmlns:cc="http://creativecommons.org/ns#"
   xmlns:rdf="http://www.w3.org/1999/02/22-rdf-syntax-ns#"
   xmlns:svg="http://www.w3.org/2000/svg"
   xmlns="http://www.w3.org/2000/svg"
   xmlns:sodipodi="http://sodipodi.sourceforge.net/DTD/sodipodi-0.dtd"
   xmlns:inkscape="http://www.inkscape.org/namespaces/inkscape"
   width="150.85855mm"
   height="45.606773mm"
   viewBox="0 0 150.85855 45.606773"
   version="1.1"
   id="svg4232"
   inkscape:version="0.92.5 (2060ec1f9f, 2020-04-08)"
   sodipodi:docname="formula-4.svg">
  <defs
     id="defs4226" />
  <sodipodi:namedview
     id="base"
     pagecolor="#ffffff"
     bordercolor="#666666"
     borderopacity="1.0"
     inkscape:pageopacity="1"
     inkscape:pageshadow="2"
     inkscape:zoom="0.7"
     inkscape:cx="248.39039"
     inkscape:cy="97.871284"
     inkscape:document-units="mm"
     inkscape:current-layer="layer1"
     showgrid="false"
     fit-margin-top="0"
     fit-margin-left="0"
     fit-margin-right="0"
     fit-margin-bottom="0"
     inkscape:window-width="1848"
     inkscape:window-height="1016"
     inkscape:window-x="1992"
     inkscape:window-y="27"
     inkscape:window-maximized="1" />
  <metadata
     id="metadata4229">
    <rdf:RDF>
      <cc:Work
         rdf:about="">
        <dc:format>image/svg+xml</dc:format>
        <dc:type
           rdf:resource="http://purl.org/dc/dcmitype/StillImage" />
        <dc:title></dc:title>
      </cc:Work>
    </rdf:RDF>
  </metadata>
  <g
     inkscape:label="Layer 1"
     inkscape:groupmode="layer"
     id="layer1"
     transform="translate(-6.7132897,-25.50732)">
    <rect
       style="fill:#ffffff;fill-opacity:1;stroke:none;stroke-width:0.30000001;stroke-miterlimit:4;stroke-dasharray:none;stroke-opacity:1"
       id="rect829-3"
       width="150.85855"
       height="45.606773"
       x="6.7132897"
       y="25.50732" />
    <g
       id="g2111"
       transform="translate(-77.541643,-60.083333)">
      <g
         word-spacing="normal"
         letter-spacing="normal"
         font-size-adjust="none"
         font-stretch="normal"
         font-weight="normal"
         font-variant="normal"
         font-style="normal"
         stroke-miterlimit="10.433"
         xml:space="preserve"
         transform="matrix(0.3,0,0,-0.3,-52.5,222.75)"
         id="g2109"
         style="font-style:normal;font-variant:normal;font-weight:normal;font-stretch:normal;letter-spacing:normal;word-spacing:normal;text-anchor:start;fill:none;fill-opacity:1;fill-rule:evenodd;stroke:#000000;stroke-linecap:butt;stroke-linejoin:miter;stroke-miterlimit:10.43299961;stroke-dasharray:none;stroke-dashoffset:0;stroke-opacity:1"><path
           id="path2063"
           d="m 478.54,385.65 0.02,0.11 0.02,0.11 0.03,0.11 0.03,0.11 0.03,0.12 0.03,0.12 0.06,0.25 0.06,0.25 0.06,0.25 0.06,0.25 0.06,0.24 0.03,0.12 0.03,0.11 0.03,0.11 0.02,0.11 0.03,0.11 0.02,0.1 0.02,0.09 0.02,0.09 0.02,0.08 0.02,0.08 0.01,0.07 0.01,0.07 0.01,0.05 0.01,0.05 v 0.04 l 0.01,0.04 c 0,0.9 -0.71,1.34 -1.46,1.34 -0.59,0 -1.48,-0.39 -1.83,-1.39 -0.15,-0.34 -2.5,-9.86 -2.84,-11.16 -0.36,-1.5 -0.45,-2.39 -0.45,-3.29 0,-0.55 0,-0.64 0.04,-0.89 -1.14,-2.64 -2.64,-4.19 -4.57,-4.19 -3.99,0 -3.99,3.69 -3.99,4.53 0,1.59 0.25,3.55 2.6,9.67 0.54,1.49 0.84,2.19 0.84,3.19 0,2.23 -1.64,4.08 -4.09,4.08 -4.74,0 -6.58,-7.22 -6.58,-7.67 0,-0.5 0.5,-0.5 0.61,-0.5 0.5,0 0.54,0.1 0.79,0.9 1.35,4.63 3.28,6.17 5.03,6.17 0.44,0 1.25,-0.04 1.25,-1.64 0,-1.25 -0.56,-2.64 -0.9,-3.48 -2.19,-5.88 -2.78,-8.17 -2.78,-10.06 0,-4.54 3.33,-6.29 7.06,-6.29 0.86,0 3.19,0 5.19,3.49 1.29,-3.19 4.73,-3.49 6.23,-3.49 3.74,0 5.92,3.15 7.22,6.13 1.69,3.89 3.28,10.56 3.28,12.95 0,2.75 -1.34,3.49 -2.19,3.49 -1.25,0 -2.48,-1.3 -2.48,-2.39 0,-0.64 0.3,-0.94 0.73,-1.35 0.55,-0.54 1.8,-1.84 1.8,-4.23 0,-1.69 -1.44,-6.58 -2.73,-9.11 -1.3,-2.64 -3.05,-4.39 -5.49,-4.39 -2.34,0 -3.69,1.5 -3.69,4.33 0,1.4 0.35,2.95 0.55,3.64 z"
           inkscape:connector-curvature="0"
           style="fill:#000000;stroke-width:0" /><path
           id="path2065"
           d="m 508.96,356.81 v 0.03 0.02 0.02 0.01 l -0.01,0.01 v 0.02 l -0.01,0.02 v 0.01 l -0.01,0.02 -0.01,0.02 -0.02,0.03 -0.01,0.02 -0.02,0.02 -0.01,0.03 -0.03,0.03 -0.02,0.03 -0.03,0.04 -0.03,0.03 -0.01,0.02 -0.02,0.02 -0.01,0.02 -0.02,0.02 -0.02,0.03 -0.02,0.02 -0.02,0.02 -0.03,0.03 -0.02,0.02 -0.02,0.03 -0.03,0.02 -0.02,0.03 -0.03,0.03 -0.03,0.03 -0.02,0.03 -0.03,0.03 -0.04,0.03 -0.03,0.03 -0.03,0.04 -0.03,0.03 -0.04,0.04 -0.04,0.04 -0.03,0.03 -0.04,0.04 c -6.22,6.28 -7.82,15.69 -7.82,23.31 0,8.68 1.9,17.35 8.02,23.57 0.64,0.61 0.64,0.7 0.64,0.86 0,0.34 -0.19,0.48 -0.48,0.48 -0.5,0 -4.99,-3.37 -7.93,-9.7 -2.54,-5.49 -3.14,-11.02 -3.14,-15.21 0,-3.89 0.55,-9.9 3.29,-15.54 2.98,-6.13 7.28,-9.36 7.78,-9.36 0.29,0 0.48,0.14 0.48,0.5 z"
           inkscape:connector-curvature="0"
           style="fill:#000000;stroke-width:0" /><path
           id="path2067"
           d="m 528.43,383.81 0.03,0.13 0.04,0.15 0.04,0.16 0.05,0.18 0.05,0.2 0.06,0.2 0.07,0.22 0.07,0.22 0.08,0.24 0.09,0.24 0.09,0.24 0.1,0.25 0.11,0.25 0.12,0.25 0.13,0.25 0.14,0.24 0.15,0.25 0.16,0.23 0.16,0.23 0.18,0.23 0.19,0.21 0.19,0.2 0.21,0.19 0.22,0.18 0.24,0.16 0.24,0.14 0.13,0.07 0.13,0.06 0.13,0.05 0.14,0.05 0.14,0.05 0.14,0.04 0.14,0.03 0.15,0.03 0.15,0.02 0.16,0.02 0.16,0.01 h 0.16 c 0.25,0 1.44,0 2.48,-0.64 -1.38,-0.25 -2.38,-1.5 -2.38,-2.68 0,-0.8 0.54,-1.75 1.88,-1.75 1.1,0 2.69,0.89 2.69,2.89 0,2.59 -2.94,3.28 -4.62,3.28 -2.89,0 -4.64,-2.64 -5.24,-3.78 -1.25,3.28 -3.93,3.78 -5.37,3.78 -5.19,0 -8.03,-6.42 -8.03,-7.67 0,-0.5 0.5,-0.5 0.61,-0.5 0.39,0 0.54,0.1 0.64,0.54 1.69,5.28 4.98,6.53 6.67,6.53 0.95,0 2.69,-0.43 2.69,-3.32 0,-1.55 -0.85,-4.9 -2.69,-11.86 -0.8,-3.1 -2.53,-5.19 -4.73,-5.19 -0.3,0 -1.44,0 -2.49,0.65 1.25,0.24 2.34,1.29 2.34,2.69 0,1.35 -1.09,1.74 -1.84,1.74 -1.5,0 -2.75,-1.3 -2.75,-2.89 0,-2.29 2.5,-3.29 4.69,-3.29 3.3,0 5.08,3.49 5.23,3.79 0.6,-1.85 2.39,-3.79 5.38,-3.79 5.14,0 7.98,6.43 7.98,7.68 0,0.5 -0.45,0.5 -0.61,0.5 -0.43,0 -0.55,-0.21 -0.64,-0.55 -1.64,-5.33 -5.03,-6.53 -6.62,-6.53 -1.96,0 -2.75,1.59 -2.75,3.3 0,1.09 0.29,2.18 0.86,4.37 z"
           inkscape:connector-curvature="0"
           style="fill:#000000;stroke-width:0" /><path
           id="path2069"
           d="m 550.34,368.81 v 0.3 l -0.01,0.3 -0.02,0.29 -0.03,0.28 -0.03,0.27 -0.04,0.27 -0.04,0.25 -0.05,0.25 -0.06,0.23 -0.07,0.23 -0.07,0.22 -0.07,0.21 -0.09,0.2 -0.09,0.2 -0.09,0.18 -0.1,0.17 -0.11,0.17 -0.11,0.15 -0.12,0.14 -0.12,0.14 -0.13,0.12 -0.13,0.11 -0.14,0.11 -0.15,0.09 -0.14,0.08 -0.16,0.07 -0.16,0.06 -0.16,0.05 -0.17,0.04 -0.17,0.03 -0.18,0.02 h -0.18 c -1.64,0 -2.64,-1.25 -2.64,-2.64 0,-1.34 1,-2.64 2.64,-2.64 0.6,0 1.25,0.2 1.75,0.64 0.14,0.11 0.2,0.16 0.25,0.16 0.05,0 0.1,-0.05 0.1,-0.75 0,-3.69 -1.74,-6.67 -3.4,-8.31 -0.54,-0.55 -0.54,-0.66 -0.54,-0.8 0,-0.36 0.25,-0.55 0.5,-0.55 0.54,0 4.53,3.83 4.53,9.66 z"
           inkscape:connector-curvature="0"
           style="fill:#000000;stroke-width:0" /><path
           id="path2071"
           d="m 586.53,387.75 0.01,0.03 v 0.03 l 0.02,0.06 0.02,0.05 0.01,0.06 0.01,0.05 0.01,0.05 0.02,0.04 0.01,0.05 0.01,0.04 v 0.04 l 0.01,0.03 0.01,0.04 0.01,0.03 v 0.03 l 0.01,0.04 v 0.03 l 0.01,0.02 v 0.03 l 0.01,0.06 v 0.05 0.05 0.05 0.06 0.03 0.03 l 0.01,0.03 v 0.03 c 0,0.9 -0.69,1.34 -1.44,1.34 -0.5,0 -1.3,-0.3 -1.75,-1.05 -0.1,-0.25 -0.5,-1.78 -0.69,-2.68 -0.36,-1.3 -0.7,-2.64 -1,-3.99 l -2.25,-8.97 c -0.19,-0.75 -2.33,-4.23 -5.62,-4.23 -2.54,0 -3.1,2.19 -3.1,4.03 0,2.3 0.86,5.39 2.55,9.77 0.8,2.04 1,2.59 1,3.59 0,2.23 -1.6,4.08 -4.1,4.08 -4.73,0 -6.57,-7.22 -6.57,-7.67 0,-0.5 0.5,-0.5 0.6,-0.5 0.5,0 0.55,0.1 0.8,0.9 1.35,4.69 3.33,6.17 5.03,6.17 0.39,0 1.25,0 1.25,-1.59 0,-1.25 -0.5,-2.53 -0.86,-3.48 -1.98,-5.29 -2.89,-8.13 -2.89,-10.47 0,-4.43 3.14,-5.93 6.08,-5.93 1.96,0 3.64,0.85 5.03,2.24 -0.64,-2.58 -1.23,-5.03 -3.23,-7.67 -1.3,-1.69 -3.19,-3.14 -5.49,-3.14 -0.68,0 -2.93,0.15 -3.78,2.09 0.8,0 1.46,0 2.14,0.61 0.5,0.44 1,1.09 1,2.03 0,1.55 -1.34,1.75 -1.84,1.75 -1.14,0 -2.8,-0.8 -2.8,-3.23 0,-2.5 2.21,-4.35 5.28,-4.35 5.15,0 10.27,4.55 11.68,10.17 z"
           inkscape:connector-curvature="0"
           style="fill:#000000;stroke-width:0" /><path
           id="path2073"
           d="m 602.98,381.21 v 0.38 l -0.01,0.38 -0.01,0.39 -0.01,0.41 -0.04,0.84 -0.06,0.88 -0.08,0.92 -0.11,0.95 -0.13,0.98 -0.17,1 -0.19,1.02 -0.23,1.04 -0.27,1.05 -0.31,1.06 -0.35,1.06 -0.39,1.07 -0.21,0.53 -0.23,0.53 -0.23,0.53 -0.25,0.53 c -2.99,6.13 -7.27,9.36 -7.77,9.36 -0.3,0 -0.5,-0.19 -0.5,-0.48 0,-0.16 0,-0.25 0.94,-1.16 4.89,-4.92 7.73,-12.84 7.73,-23.27 0,-8.51 -1.84,-17.28 -8.03,-23.56 -0.64,-0.59 -0.64,-0.7 -0.64,-0.84 0,-0.3 0.2,-0.5 0.5,-0.5 0.5,0 4.97,3.39 7.92,9.72 2.53,5.47 3.13,11 3.13,15.18 z"
           inkscape:connector-curvature="0"
           style="fill:#000000;stroke-width:0" /><path
           id="path2075"
           d="m 656.18,385.06 h 0.14 0.14 l 0.14,0.01 h 0.08 0.07 l 0.07,0.01 0.07,0.01 0.07,0.01 0.07,0.01 0.07,0.01 0.07,0.02 0.06,0.02 0.06,0.02 0.07,0.03 0.05,0.02 0.06,0.03 0.05,0.04 0.05,0.04 0.05,0.04 0.04,0.04 0.04,0.05 0.02,0.03 0.02,0.03 0.01,0.03 0.02,0.03 0.01,0.03 0.02,0.03 0.01,0.03 0.01,0.04 0.01,0.03 0.01,0.04 0.01,0.04 v 0.04 l 0.01,0.04 v 0.04 0.05 0.04 c 0,1 -0.95,1 -1.64,1 h -29.84 c -0.7,0 -1.64,0 -1.64,-1 0,-0.98 0.94,-0.98 1.69,-0.98 z"
           inkscape:connector-curvature="0"
           style="fill:#000000;stroke-width:0" /><path
           id="path2077"
           d="m 656.22,375.39 h 0.07 0.06 0.14 0.14 l 0.07,0.01 h 0.07 l 0.07,0.01 0.07,0.01 0.07,0.01 0.06,0.01 0.07,0.01 0.07,0.02 0.06,0.02 0.06,0.02 0.06,0.03 0.06,0.02 0.05,0.04 0.06,0.03 0.04,0.04 0.05,0.04 0.04,0.05 0.02,0.02 0.02,0.03 0.02,0.03 0.02,0.02 0.02,0.03 0.01,0.03 0.01,0.03 0.02,0.04 0.01,0.03 0.01,0.04 0.01,0.03 0.01,0.04 0.01,0.04 v 0.04 l 0.01,0.04 v 0.05 0.04 0.05 c 0,1 -0.95,1 -1.68,1 h -29.75 c -0.75,0 -1.69,0 -1.69,-1 0,-1 0.94,-1 1.64,-1 z"
           inkscape:connector-curvature="0"
           style="fill:#000000;stroke-width:0" /><path
           id="path2079"
           d="m 696.99,362.93 -0.01,0.52 -0.04,0.54 -0.05,0.55 -0.08,0.57 -0.1,0.58 -0.13,0.59 -0.15,0.6 -0.17,0.6 -0.19,0.62 -0.22,0.62 -0.25,0.62 -0.27,0.63 -0.29,0.63 -0.32,0.63 -0.34,0.63 -0.37,0.63 -0.39,0.62 -0.42,0.62 -0.44,0.62 -0.47,0.6 -0.5,0.6 -0.52,0.59 -0.55,0.58 -0.58,0.57 -0.6,0.55 -0.64,0.54 -0.65,0.52 -0.69,0.51 -0.71,0.48 -0.75,0.47 -0.77,0.44 -0.8,0.43 c 5.38,2.89 11.82,8.72 12.41,18.03 l 0.05,0.29 v 34.54 c 0,4.07 0,4.98 0.41,6.87 0.88,3.99 3.28,8.92 9.6,12.66 0.4,0.25 0.46,0.29 0.46,1.18 0,1.1 -0.06,1.16 -1.16,1.16 -0.89,0 -0.98,0 -2.34,-0.8 -11.16,-6.32 -11.8,-15.59 -11.8,-17.34 V 402.4 c 0,-3.6 0,-7.63 -2.59,-12.2 -2.3,-4.1 -4.99,-6.15 -7.13,-7.58 -0.7,-0.46 -0.75,-0.5 -0.75,-1.35 0,-0.9 0.05,-0.95 0.46,-1.2 4.23,-2.78 8.76,-7.22 9.85,-15.34 0.16,-1.1 0.16,-1.19 0.16,-1.8 v -38.25 c 0,-4.05 2.49,-12.41 12.11,-17.5 1.14,-0.64 1.23,-0.64 2.03,-0.64 1.1,0 1.16,0.05 1.16,1.14 0,0.91 -0.06,0.95 -0.25,1.05 -2.14,1.34 -8.68,5.28 -10.02,13.95 -0.2,1.3 -0.2,1.39 -0.2,2.05 z"
           inkscape:connector-curvature="0"
           style="fill:#000000;stroke-width:0" /><path
           id="path2081"
           d="m 729.36,434.73 v 0.05 0.06 0.05 0.05 0.05 0.05 0.04 0.05 0.04 l -0.01,0.04 v 0.04 0.04 0.04 0.03 l -0.01,0.04 v 0.03 l -0.01,0.07 -0.01,0.06 -0.01,0.05 -0.01,0.05 -0.02,0.05 -0.02,0.04 -0.02,0.04 -0.02,0.03 -0.03,0.04 -0.03,0.02 -0.04,0.03 -0.04,0.02 -0.04,0.02 -0.03,0.01 -0.02,0.01 h -0.03 l -0.02,0.01 -0.03,0.01 h -0.03 l -0.03,0.01 h -0.03 l -0.04,0.01 h -0.03 -0.04 l -0.04,0.01 h -0.03 -0.04 -0.05 -0.04 -0.04 l -0.05,0.01 h -0.05 -0.05 -0.05 -0.05 c -3.1,-3.19 -7.47,-3.19 -9.06,-3.19 v -1.55 c 1,0 3.93,0 6.51,1.3 v -25.81 c 0,-1.8 -0.14,-2.39 -4.62,-2.39 h -1.6 v -1.55 c 1.75,0.16 6.08,0.16 8.07,0.16 2,0 6.32,0 8.07,-0.16 v 1.55 H 734 c -4.48,0 -4.64,0.54 -4.64,2.39 z"
           inkscape:connector-curvature="0"
           style="fill:#000000;stroke-width:0" /><path
           id="path2083"
           d="m 798.17,424.86 -6.97,-0.55 v -1.55 c 3.23,0 3.69,-0.3 3.69,-2.73 v -13.41 c 0,-2.23 -0.55,-2.23 -3.89,-2.23 v -1.55 c 1.59,0.05 4.28,0.16 5.48,0.16 1.75,0 3.49,-0.11 5.19,-0.16 v 1.55 c -3.3,0 -3.5,0.25 -3.5,2.18 z"
           inkscape:connector-curvature="0"
           style="fill:#000000;stroke-width:0" /><path
           id="path2085"
           d="m 798.37,433.53 v 0.14 l -0.01,0.15 -0.02,0.14 -0.03,0.14 -0.03,0.13 -0.03,0.13 -0.05,0.13 -0.05,0.12 -0.05,0.12 -0.06,0.12 -0.07,0.11 -0.07,0.1 -0.07,0.11 -0.08,0.09 -0.09,0.1 -0.09,0.09 -0.09,0.08 -0.1,0.08 -0.1,0.07 -0.1,0.07 -0.11,0.07 -0.11,0.06 -0.11,0.05 -0.12,0.05 -0.12,0.04 -0.12,0.04 -0.12,0.03 -0.13,0.03 -0.12,0.02 -0.13,0.02 h -0.13 l -0.13,0.01 c -1.55,0 -2.64,-1.35 -2.64,-2.64 0,-1.35 1.09,-2.64 2.64,-2.64 1.39,0 2.64,1.04 2.64,2.64 z"
           inkscape:connector-curvature="0"
           style="fill:#000000;stroke-width:0" /><path
           id="path2087"
           d="m 811.87,424.31 v 5.78 c 0,4.39 2.39,6.78 4.58,6.78 0.15,0 0.9,0 1.65,-0.36 -0.6,-0.19 -1.5,-0.84 -1.5,-2.08 0,-1.15 0.8,-2.15 2.15,-2.15 1.43,0 2.18,1 2.18,2.2 0,1.84 -1.84,3.48 -4.48,3.48 -3.48,0 -7.72,-2.64 -7.72,-7.92 v -5.73 h -3.94 v -1.55 h 3.94 v -16.14 c 0,-2.23 -0.55,-2.23 -3.89,-2.23 v -1.55 c 1.95,0.05 4.3,0.16 5.69,0.16 1.98,0 4.32,0 6.32,-0.16 v 1.55 h -1.04 c -3.69,0 -3.78,0.54 -3.78,2.34 v 16.03 h 5.67 v 1.55 z"
           inkscape:connector-curvature="0"
           style="fill:#000000;stroke-width:0" /><path
           id="path2089"
           d="m 851.71,417.89 0.03,0.13 0.04,0.15 0.04,0.16 0.04,0.18 0.06,0.2 0.06,0.2 0.06,0.22 0.08,0.22 0.08,0.24 0.08,0.23 0.1,0.25 0.1,0.25 0.11,0.25 0.12,0.25 0.13,0.24 0.14,0.25 0.15,0.24 0.15,0.24 0.17,0.23 0.18,0.23 0.18,0.21 0.2,0.2 0.21,0.19 0.22,0.18 0.23,0.16 0.25,0.14 0.12,0.07 0.13,0.06 0.14,0.05 0.13,0.05 0.14,0.05 0.14,0.04 0.15,0.03 0.15,0.03 0.15,0.02 0.16,0.02 0.16,0.01 h 0.16 c 0.25,0 1.44,0 2.48,-0.64 -1.39,-0.25 -2.39,-1.5 -2.39,-2.69 0,-0.79 0.55,-1.75 1.89,-1.75 1.1,0 2.69,0.89 2.69,2.89 0,2.6 -2.94,3.29 -4.62,3.29 -2.9,0 -4.65,-2.65 -5.24,-3.79 -1.25,3.29 -3.94,3.79 -5.37,3.79 -5.19,0 -8.04,-6.43 -8.04,-7.68 0,-0.5 0.5,-0.5 0.61,-0.5 0.39,0 0.55,0.11 0.64,0.55 1.69,5.28 4.99,6.53 6.68,6.53 0.95,0 2.68,-0.44 2.68,-3.33 0,-1.54 -0.84,-4.89 -2.68,-11.86 -0.8,-3.09 -2.53,-5.18 -4.74,-5.18 -0.29,0 -1.44,0 -2.48,0.65 1.25,0.24 2.34,1.28 2.34,2.69 0,1.34 -1.09,1.73 -1.84,1.73 -1.5,0 -2.75,-1.29 -2.75,-2.89 0,-2.28 2.5,-3.28 4.69,-3.28 3.29,0 5.07,3.49 5.23,3.78 0.59,-1.84 2.39,-3.78 5.37,-3.78 5.15,0 7.99,6.42 7.99,7.67 0,0.5 -0.45,0.5 -0.61,0.5 -0.44,0 -0.55,-0.2 -0.64,-0.54 -1.64,-5.33 -5.03,-6.53 -6.63,-6.53 -1.95,0 -2.75,1.59 -2.75,3.29 0,1.1 0.3,2.19 0.86,4.38 z"
           inkscape:connector-curvature="0"
           style="fill:#000000;stroke-width:0" /><path
           id="path2091"
           d="m 908.7,436.57 0.02,0.04 0.01,0.03 0.02,0.03 0.02,0.03 0.01,0.02 0.02,0.03 0.01,0.03 0.02,0.03 0.01,0.02 0.02,0.03 0.01,0.02 0.01,0.02 0.01,0.03 0.01,0.02 0.01,0.02 0.02,0.02 0.01,0.04 0.02,0.04 0.02,0.03 0.01,0.04 0.02,0.03 0.01,0.03 0.01,0.02 0.01,0.03 0.01,0.02 0.01,0.02 v 0.03 l 0.01,0.01 v 0.02 l 0.01,0.02 v 0.02 0.01 l 0.01,0.02 v 0.01 0.03 0.03 0.02 c 0,0.36 -0.3,1 -0.99,1 -0.6,0 -0.75,-0.3 -1.1,-1 l -22.36,-43.48 c -0.41,-0.71 -0.41,-0.8 -0.41,-0.96 0,-0.39 0.36,-1 1,-1 0.59,0 0.75,0.3 1.09,1 z"
           inkscape:connector-curvature="0"
           style="fill:#000000;stroke-width:0" /><path
           id="path2093"
           d="m 911.54,419.14 h 0.14 0.15 0.14 l 0.07,0.01 h 0.08 l 0.07,0.01 0.07,0.01 0.07,0.01 0.07,0.01 0.07,0.01 0.06,0.02 0.07,0.02 0.06,0.02 0.06,0.02 0.06,0.03 0.06,0.03 0.05,0.04 0.05,0.04 0.05,0.04 0.04,0.04 0.04,0.05 0.02,0.03 0.02,0.03 0.01,0.02 0.02,0.03 0.01,0.04 0.01,0.03 0.02,0.03 0.01,0.04 0.01,0.03 0.01,0.04 v 0.04 l 0.01,0.04 v 0.04 l 0.01,0.04 v 0.05 0.04 c 0,1 -0.95,1 -1.64,1 h -29.84 c -0.71,0 -1.65,0 -1.65,-1 0,-0.98 0.94,-0.98 1.69,-0.98 z"
           inkscape:connector-curvature="0"
           style="fill:#000000;stroke-width:0" /><path
           id="path2095"
           d="m 911.59,409.46 0.07,0.01 h 0.06 0.14 0.14 l 0.07,0.01 h 0.07 l 0.07,0.01 0.06,0.01 0.07,0.01 0.07,0.01 0.07,0.01 0.06,0.02 0.07,0.02 0.06,0.02 0.06,0.02 0.05,0.03 0.06,0.03 0.05,0.04 0.05,0.04 0.05,0.04 0.04,0.05 0.02,0.02 0.02,0.03 0.02,0.02 0.02,0.03 0.01,0.03 0.02,0.03 0.01,0.03 0.01,0.04 0.02,0.03 0.01,0.03 0.01,0.04 0.01,0.04 v 0.04 l 0.01,0.04 v 0.04 l 0.01,0.04 v 0.05 0.04 c 0,1 -0.95,1 -1.69,1 h -29.75 c -0.75,0 -1.69,0 -1.69,-1 0,-1 0.94,-1 1.65,-1 z"
           inkscape:connector-curvature="0"
           style="fill:#000000;stroke-width:0" /><path
           id="path2097"
           d="m 954.09,421.82 v 0.04 l 0.01,0.03 0.02,0.06 0.01,0.05 0.02,0.06 0.01,0.05 0.01,0.05 0.01,0.04 0.01,0.04 0.01,0.05 0.01,0.03 0.01,0.04 0.01,0.04 v 0.03 l 0.01,0.03 v 0.03 l 0.01,0.03 v 0.03 l 0.01,0.03 v 0.05 l 0.01,0.06 v 0.05 0.05 0.06 0.02 0.03 0.03 0.03 c 0,0.91 -0.68,1.35 -1.43,1.35 -0.5,0 -1.3,-0.3 -1.75,-1.05 -0.1,-0.25 -0.5,-1.78 -0.69,-2.69 -0.36,-1.29 -0.7,-2.64 -1,-3.98 l -2.25,-8.97 c -0.19,-0.75 -2.33,-4.23 -5.63,-4.23 -2.53,0 -3.09,2.18 -3.09,4.03 0,2.29 0.86,5.39 2.55,9.76 0.79,2.05 1,2.6 1,3.6 0,2.23 -1.6,4.08 -4.1,4.08 -4.73,0 -6.58,-7.22 -6.58,-7.68 0,-0.5 0.5,-0.5 0.61,-0.5 0.5,0 0.55,0.11 0.8,0.91 1.34,4.69 3.33,6.17 5.03,6.17 0.39,0 1.25,0 1.25,-1.59 0,-1.25 -0.5,-2.53 -0.86,-3.49 -1.98,-5.28 -2.89,-8.12 -2.89,-10.47 0,-4.42 3.14,-5.92 6.08,-5.92 1.95,0 3.64,0.85 5.03,2.24 -0.64,-2.58 -1.23,-5.03 -3.23,-7.67 -1.3,-1.69 -3.19,-3.15 -5.49,-3.15 -0.68,0 -2.93,0.16 -3.78,2.1 0.8,0 1.45,0 2.14,0.61 0.5,0.44 1,1.09 1,2.03 0,1.55 -1.34,1.75 -1.84,1.75 -1.14,0 -2.8,-0.8 -2.8,-3.24 0,-2.5 2.2,-4.34 5.28,-4.34 5.14,0 10.27,4.55 11.67,10.17 z"
           inkscape:connector-curvature="0"
           style="fill:#000000;stroke-width:0" /><path
           id="path2099"
           d="m 737.64,347.02 v 0.74 l -0.01,0.75 -0.02,0.75 -0.04,0.74 -0.04,0.75 -0.06,0.74 -0.08,0.74 -0.09,0.73 -0.12,0.73 -0.14,0.73 -0.16,0.72 -0.19,0.72 -0.21,0.71 -0.25,0.71 -0.28,0.7 -0.15,0.35 -0.16,0.34 c -2.28,4.8 -6.37,5.6 -8.47,5.6 -2.98,0 -6.62,-1.3 -8.67,-5.94 -1.59,-3.44 -1.84,-7.33 -1.84,-11.31 0,-3.74 0.2,-8.22 2.25,-12 2.14,-4.04 5.78,-5.04 8.21,-5.04 v 1.1 c -1.93,0 -4.89,1.25 -5.78,6.03 -0.54,2.98 -0.54,7.56 -0.54,10.51 0,3.19 0,6.47 0.4,9.16 0.94,5.94 4.68,6.38 5.92,6.38 1.65,0 4.94,-0.89 5.88,-5.83 0.5,-2.78 0.5,-6.58 0.5,-9.71 0,-3.74 0,-7.12 -0.55,-10.31 -0.75,-4.73 -3.59,-6.23 -5.83,-6.23 v 0 -1.1 c 2.69,0 6.47,1.05 8.68,5.79 1.59,3.43 1.84,7.31 1.84,11.25 z"
           inkscape:connector-curvature="0"
           style="fill:#000000;stroke-width:0" /><path
           id="path2101"
           d="m 794.89,342.59 0.04,1.05 c 0.3,7.42 4.49,8.66 6.19,8.66 5.13,0 5.63,-6.72 5.63,-8.66 h -11.82 l -0.04,-1.05 h 13.9 c 1.1,0 1.24,0 1.24,1.05 0,4.92 -2.69,9.75 -8.91,9.75 -5.78,0 -10.37,-5.12 -10.37,-11.36 0,-6.67 5.23,-11.5 10.97,-11.5 6.07,0 8.31,5.53 8.31,6.47 0,0.5 -0.39,0.61 -0.64,0.61 -0.46,0 -0.55,-0.3 -0.66,-0.7 -1.73,-5.13 -6.22,-5.13 -6.72,-5.13 -2.5,0 -4.48,1.49 -5.62,3.33 -1.5,2.39 -1.5,5.69 -1.5,7.48 z"
           inkscape:connector-curvature="0"
           style="fill:#000000;stroke-width:0" /><path
           id="path2103"
           d="m 820.25,365.66 -7.18,-0.55 v -1.55 c 3.49,0 3.9,-0.34 3.9,-2.79 v -25.91 c 0,-2.24 -0.55,-2.24 -3.9,-2.24 v -1.54 c 1.65,0.04 4.28,0.15 5.53,0.15 1.25,0 3.69,-0.11 5.54,-0.15 v 1.54 c -3.35,0 -3.89,0 -3.89,2.24 z"
           inkscape:connector-curvature="0"
           style="fill:#000000;stroke-width:0" /><path
           id="path2105"
           d="m 835.59,340.75 0.11,-0.02 0.13,-0.03 0.14,-0.02 0.16,-0.04 0.17,-0.04 0.17,-0.04 0.19,-0.05 0.2,-0.06 0.21,-0.06 0.21,-0.07 0.21,-0.08 0.22,-0.09 0.22,-0.09 0.22,-0.1 0.22,-0.11 0.22,-0.13 0.22,-0.13 0.21,-0.14 0.21,-0.15 0.19,-0.16 0.19,-0.18 0.18,-0.19 0.17,-0.2 0.16,-0.21 0.14,-0.22 0.07,-0.12 0.06,-0.12 0.06,-0.13 0.05,-0.13 0.05,-0.13 0.05,-0.13 0.04,-0.14 0.03,-0.15 0.04,-0.14 0.02,-0.15 0.02,-0.16 0.02,-0.16 v -0.16 l 0.01,-0.16 c 0,-2.54 -1.75,-4.54 -5.63,-4.54 -4.18,0 -5.98,2.85 -6.93,7.08 -0.15,0.64 -0.19,0.85 -0.69,0.85 -0.66,0 -0.66,-0.35 -0.66,-1.25 v -6.58 c 0,-0.84 0,-1.19 0.55,-1.19 0.25,0 0.3,0.05 1.25,1 0.09,0.09 0.09,0.19 1,1.14 2.18,-2.09 4.43,-2.14 5.48,-2.14 5.72,0 8.02,3.35 8.02,6.92 0,2.64 -1.5,4.14 -2.1,4.74 -1.64,1.59 -3.59,2 -5.68,2.39 -2.79,0.54 -6.13,1.2 -6.13,4.09 0,1.74 1.3,3.78 5.58,3.78 5.48,0 5.73,-4.48 5.83,-6.03 0.06,-0.45 0.5,-0.45 0.61,-0.45 0.64,0 0.64,0.25 0.64,1.2 v 5.03 c 0,0.85 0,1.19 -0.55,1.19 -0.25,0 -0.34,0 -1,-0.59 -0.14,-0.21 -0.64,-0.64 -0.84,-0.8 -1.89,1.39 -3.94,1.39 -4.69,1.39 -6.08,0 -7.97,-3.33 -7.97,-6.12 0,-1.74 0.8,-3.15 2.14,-4.24 1.59,-1.3 3,-1.59 6.58,-2.28 z"
           inkscape:connector-curvature="0"
           style="fill:#000000;stroke-width:0" /><path
           id="path2107"
           d="m 850.44,342.59 0.05,1.05 c 0.29,7.42 4.48,8.66 6.19,8.66 5.12,0 5.62,-6.72 5.62,-8.66 h -11.81 l -0.05,-1.05 h 13.91 c 1.09,0 1.23,0 1.23,1.05 0,4.92 -2.68,9.75 -8.9,9.75 -5.78,0 -10.38,-5.12 -10.38,-11.36 0,-6.67 5.23,-11.5 10.97,-11.5 6.08,0 8.31,5.53 8.31,6.47 0,0.5 -0.39,0.61 -0.64,0.61 -0.45,0 -0.54,-0.3 -0.66,-0.7 -1.73,-5.13 -6.21,-5.13 -6.71,-5.13 -2.5,0 -4.49,1.49 -5.63,3.33 -1.5,2.39 -1.5,5.69 -1.5,7.48 z"
           inkscape:connector-curvature="0"
           style="fill:#000000;stroke-width:0" /></g>    </g>
  </g>
</svg>
