<?xml version="1.0" encoding="UTF-8" standalone="no"?>
<!-- Created with Inkscape (http://www.inkscape.org/) -->

<svg
   width="45.699226mm"
   height="16.913006mm"
   viewBox="0 0 45.699226 16.913006"
   version="1.1"
   id="svg155566"
   sodipodi:docname="sheet8-exercise1-P.svg"
   inkscape:version="1.1.1 (1:1.1+202109281949+c3084ef5ed)"
   xmlns:inkscape="http://www.inkscape.org/namespaces/inkscape"
   xmlns:sodipodi="http://sodipodi.sourceforge.net/DTD/sodipodi-0.dtd"
   xmlns:xlink="http://www.w3.org/1999/xlink"
   xmlns="http://www.w3.org/2000/svg"
   xmlns:svg="http://www.w3.org/2000/svg">
  <sodipodi:namedview
     id="namedview155568"
     pagecolor="#ffffff"
     bordercolor="#666666"
     borderopacity="1.0"
     inkscape:pageshadow="2"
     inkscape:pageopacity="0.0"
     inkscape:pagecheckerboard="0"
     inkscape:document-units="mm"
     showgrid="false"
     inkscape:zoom="1.5037598"
     inkscape:cx="247.71243"
     inkscape:cy="221.44494"
     inkscape:window-width="1920"
     inkscape:window-height="1043"
     inkscape:window-x="1920"
     inkscape:window-y="0"
     inkscape:window-maximized="1"
     inkscape:current-layer="layer1"
     fit-margin-top="0"
     fit-margin-left="0"
     fit-margin-right="0"
     fit-margin-bottom="0" />
  <defs
     id="defs155563">
    <g
       id="g1201">
      <symbol
         overflow="visible"
         id="symbol6915">
        <path
           style="stroke:none"
           d=""
           id="path2708" />
      </symbol>
      <symbol
         overflow="visible"
         id="symbol3124">
        <path
           style="stroke:none"
           d="M 0.453125,1.21875 C 0.375,1.5625 0.34375,1.625 -0.09375,1.625 c -0.109375,0 -0.21875,0 -0.21875,0.1875 0,0.078125 0.046875,0.125 0.125,0.125 0.265625,0 0.5625,-0.03125 0.828125,-0.03125 0.34375,0 0.671875,0.03125 1,0.03125 0.046875,0 0.171875,0 0.171875,-0.203125 C 1.8125,1.625 1.71875,1.625 1.578125,1.625 c -0.5,0 -0.5,-0.0625 -0.5,-0.15625 0,-0.125 0.421875,-1.75 0.484375,-2 0.125,0.296875 0.40625,0.640625 0.921875,0.640625 1.15625,0 2.40625,-1.453125 2.40625,-2.921875 0,-0.9375 -0.578125,-1.59375 -1.328125,-1.59375 -0.5,0 -0.984375,0.359375 -1.3125,0.75 -0.09375,-0.546875 -0.53125,-0.75 -0.890625,-0.75 -0.46875,0 -0.65625,0.390625 -0.734375,0.5625 C 0.4375,-3.5 0.3125,-2.90625 0.3125,-2.875 c 0,0.109375 0.09375,0.109375 0.109375,0.109375 0.109375,0 0.109375,-0.015625 0.171875,-0.234375 0.171875,-0.703125 0.375,-1.1875 0.734375,-1.1875 0.171875,0 0.3125,0.078125 0.3125,0.453125 0,0.234375 -0.03125,0.34375 -0.078125,0.515625 z m 1.75,-4.328125 C 2.265625,-3.375 2.546875,-3.65625 2.71875,-3.8125 c 0.359375,-0.296875 0.640625,-0.375 0.8125,-0.375 0.390625,0 0.640625,0.34375 0.640625,0.9375 0,0.59375 -0.328125,1.734375 -0.515625,2.109375 -0.34375,0.703125 -0.8125,1.03125 -1.1875,1.03125 C 1.8125,-0.109375 1.6875,-0.9375 1.6875,-1 c 0,-0.015625 0,-0.03125 0.03125,-0.15625 z m 0,0"
           id="path6964" />
      </symbol>
      <symbol
         overflow="visible"
         id="symbol2503">
        <path
           style="stroke:none"
           d=""
           id="path7067" />
      </symbol>
      <symbol
         overflow="visible"
         id="symbol2414">
        <path
           style="stroke:none"
           d="M 1.734375,-0.734375 C 1.671875,-0.5 1.4375,-0.125 1.078125,-0.125 c -0.015625,0 -0.234375,0 -0.375,-0.09375 0.28125,-0.09375 0.3125,-0.34375 0.3125,-0.390625 0,-0.15625 -0.125,-0.25 -0.28125,-0.25 -0.203125,0 -0.40625,0.15625 -0.40625,0.421875 0,0.34375 0.390625,0.5 0.734375,0.5 0.328125,0 0.609375,-0.1875 0.78125,-0.484375 C 2.015625,-0.0625 2.390625,0.0625 2.671875,0.0625 c 0.8125,0 1.234375,-0.859375 1.234375,-1.0625 0,-0.09375 -0.09375,-0.09375 -0.109375,-0.09375 -0.109375,0 -0.109375,0.046875 -0.140625,0.125 -0.140625,0.484375 -0.5625,0.84375 -0.953125,0.84375 -0.28125,0 -0.421875,-0.1875 -0.421875,-0.453125 0,-0.1875 0.171875,-0.8125 0.359375,-1.59375 C 2.78125,-2.703125 3.09375,-2.875 3.328125,-2.875 c 0.015625,0 0.21875,0 0.375,0.09375 -0.21875,0.0625 -0.3125,0.265625 -0.3125,0.390625 0,0.140625 0.125,0.25 0.28125,0.25 0.15625,0 0.390625,-0.125 0.390625,-0.421875 0,-0.390625 -0.453125,-0.515625 -0.71875,-0.515625 -0.359375,0 -0.640625,0.234375 -0.78125,0.5 -0.125,-0.28125 -0.453125,-0.5 -0.84375,-0.5 C 0.9375,-3.078125 0.5,-2.21875 0.5,-2 c 0,0.078125 0.09375,0.078125 0.109375,0.078125 0.09375,0 0.09375,-0.015625 0.140625,-0.109375 C 0.921875,-2.578125 1.359375,-2.875 1.703125,-2.875 1.9375,-2.875 2.125,-2.75 2.125,-2.421875 2.125,-2.28125 2.03125,-1.9375 1.96875,-1.6875 Z m 0,0"
           id="path4592" />
      </symbol>
      <symbol
         overflow="visible"
         id="symbol9625">
        <path
           style="stroke:none"
           d="M 3.875,-2.625 C 3.90625,-2.71875 3.90625,-2.734375 3.90625,-2.78125 3.90625,-2.921875 3.796875,-3 3.671875,-3 3.59375,-3 3.46875,-2.96875 3.390625,-2.84375 3.359375,-2.796875 3.3125,-2.578125 3.28125,-2.4375 L 3.125,-1.859375 c -0.03125,0.171875 -0.25,1.046875 -0.28125,1.125 0,0 -0.3125,0.609375 -0.84375,0.609375 -0.484375,0 -0.484375,-0.453125 -0.484375,-0.578125 0,-0.375 0.15625,-0.8125 0.375,-1.359375 C 1.96875,-2.28125 2,-2.359375 2,-2.484375 2,-2.8125 1.71875,-3.078125 1.34375,-3.078125 0.640625,-3.078125 0.328125,-2.125 0.328125,-2 c 0,0.078125 0.09375,0.078125 0.125,0.078125 0.09375,0 0.09375,-0.03125 0.125,-0.109375 C 0.75,-2.609375 1.046875,-2.875 1.328125,-2.875 1.4375,-2.875 1.5,-2.796875 1.5,-2.640625 c 0,0.171875 -0.0625,0.3125 -0.09375,0.40625 C 1.0625,-1.375 1,-1.125 1,-0.8125 1,-0.703125 1,-0.375 1.265625,-0.140625 1.484375,0.03125 1.78125,0.0625 1.96875,0.0625 2.25,0.0625 2.5,-0.03125 2.71875,-0.25 2.640625,0.140625 2.5625,0.4375 2.265625,0.78125 2.078125,1 1.796875,1.21875 1.421875,1.21875 c -0.046875,0 -0.375,0 -0.515625,-0.21875 0.375,-0.046875 0.375,-0.375 0.375,-0.390625 0,-0.21875 -0.203125,-0.265625 -0.265625,-0.265625 -0.171875,0 -0.40625,0.140625 -0.40625,0.46875 0,0.34375 0.328125,0.609375 0.828125,0.609375 C 2.140625,1.421875 3,0.875 3.21875,0 Z m 0,0"
           id="path5159" />
      </symbol>
      <symbol
         overflow="visible"
         id="symbol9650">
        <path
           style="stroke:none"
           d="m 1.5625,-1.59375 c 0.1875,0 0.75,-0.015625 1.125,-0.140625 0.515625,-0.1875 0.609375,-0.515625 0.609375,-0.71875 0,-0.390625 -0.390625,-0.625 -0.859375,-0.625 -0.84375,0 -1.96875,0.640625 -1.96875,1.84375 0,0.703125 0.4375,1.296875 1.25,1.296875 1.1875,0 1.734375,-0.6875 1.734375,-0.78125 0,-0.046875 -0.0625,-0.125 -0.125,-0.125 -0.03125,0 -0.046875,0.015625 -0.109375,0.078125 C 2.671875,-0.125 1.859375,-0.125 1.734375,-0.125 1.3125,-0.125 1.03125,-0.40625 1.03125,-0.96875 c 0,-0.09375 0,-0.234375 0.09375,-0.625 z M 1.171875,-1.78125 C 1.46875,-2.796875 2.234375,-2.875 2.4375,-2.875 2.734375,-2.875 3,-2.71875 3,-2.453125 3,-1.78125 1.8125,-1.78125 1.515625,-1.78125 Z m 0,0"
           id="path4534" />
      </symbol>
      <symbol
         overflow="visible"
         id="symbol877">
        <path
           style="stroke:none"
           d="m 1.640625,-1.40625 c 0,-0.046875 0.171875,-0.671875 0.171875,-0.703125 0.015625,-0.0625 0.21875,-0.40625 0.453125,-0.578125 0.0625,-0.046875 0.25,-0.1875 0.5625,-0.1875 0.0625,0 0.234375,0 0.375,0.09375 -0.21875,0.0625 -0.296875,0.265625 -0.296875,0.390625 0,0.140625 0.109375,0.25 0.265625,0.25 0.171875,0 0.390625,-0.125 0.390625,-0.421875 0,-0.359375 -0.375,-0.515625 -0.734375,-0.515625 -0.359375,0 -0.671875,0.15625 -0.984375,0.5 -0.125,-0.421875 -0.546875,-0.5 -0.71875,-0.5 -0.25,0 -0.421875,0.171875 -0.546875,0.359375 -0.15625,0.265625 -0.25,0.671875 -0.25,0.71875 0,0.078125 0.09375,0.078125 0.125,0.078125 0.09375,0 0.09375,-0.015625 0.140625,-0.203125 0.109375,-0.421875 0.25,-0.75 0.515625,-0.75 0.1875,0 0.234375,0.15625 0.234375,0.34375 0,0.125 -0.0625,0.390625 -0.125,0.578125 -0.046875,0.1875 -0.109375,0.46875 -0.140625,0.625 L 0.84375,-0.4375 C 0.828125,-0.34375 0.78125,-0.171875 0.78125,-0.15625 0.78125,0 0.90625,0.0625 1.015625,0.0625 1.125,0.0625 1.265625,0 1.3125,-0.125 1.328125,-0.171875 1.40625,-0.484375 1.453125,-0.65625 Z m 0,0"
           id="path1322" />
      </symbol>
      <symbol
         overflow="visible"
         id="symbol4406">
        <path
           style="stroke:none"
           d=""
           id="path4858" />
      </symbol>
      <symbol
         overflow="visible"
         id="symbol2085">
        <path
           style="stroke:none"
           d="m 6.84375,-3.265625 c 0.15625,0 0.34375,0 0.34375,-0.1875 C 7.1875,-3.65625 7,-3.65625 6.859375,-3.65625 h -5.96875 c -0.140625,0 -0.328125,0 -0.328125,0.203125 0,0.1875 0.1875,0.1875 0.328125,0.1875 z m 0.015625,1.9375 c 0.140625,0 0.328125,0 0.328125,-0.203125 0,-0.1875 -0.1875,-0.1875 -0.34375,-0.1875 H 0.890625 c -0.140625,0 -0.328125,0 -0.328125,0.1875 0,0.203125 0.1875,0.203125 0.328125,0.203125 z m 0,0"
           id="path2818" />
      </symbol>
      <symbol
         overflow="visible"
         id="symbol9952">
        <path
           style="stroke:none"
           d=""
           id="path9199" />
      </symbol>
      <symbol
         overflow="visible"
         id="symbol6309">
        <path
           style="stroke:none"
           d="m 3.09375,-1.953125 c -0.234375,0.0625 -0.234375,0.28125 -0.234375,0.296875 0,0.078125 0.0625,0.203125 0.234375,0.203125 0.140625,0 0.3125,-0.125 0.3125,-0.34375 0,-0.296875 -0.328125,-0.40625 -0.59375,-0.40625 -0.328125,0 -0.546875,0.203125 -0.640625,0.34375 -0.15625,-0.28125 -0.484375,-0.34375 -0.65625,-0.34375 -0.625,0 -0.984375,0.59375 -0.984375,0.765625 0,0.078125 0.078125,0.078125 0.109375,0.078125 0.046875,0 0.078125,0 0.109375,-0.0625 0.140625,-0.484375 0.546875,-0.609375 0.734375,-0.609375 0.171875,0 0.359375,0.0625 0.359375,0.328125 0,0.125 -0.09375,0.46875 -0.265625,1.140625 -0.0625,0.28125 -0.296875,0.453125 -0.515625,0.453125 -0.03125,0 -0.171875,0 -0.296875,-0.078125 0.21875,-0.09375 0.21875,-0.28125 0.21875,-0.296875 0,-0.140625 -0.109375,-0.203125 -0.21875,-0.203125 -0.125,0 -0.296875,0.09375 -0.296875,0.328125 0,0.3125 0.328125,0.421875 0.59375,0.421875 0.265625,0 0.5,-0.171875 0.609375,-0.34375 C 1.875,0.015625 2.1875,0.0625 2.34375,0.0625 c 0.625,0 0.984375,-0.59375 0.984375,-0.78125 0,-0.0625 -0.078125,-0.0625 -0.109375,-0.0625 -0.078125,0 -0.09375,0.03125 -0.109375,0.0625 C 2.96875,-0.265625 2.59375,-0.109375 2.375,-0.109375 c -0.15625,0 -0.359375,-0.0625 -0.359375,-0.34375 0,-0.0625 0,-0.09375 0.03125,-0.265625 0.09375,-0.34375 0.21875,-0.890625 0.265625,-0.984375 0.0625,-0.125 0.234375,-0.328125 0.484375,-0.328125 0.015625,0 0.1875,0 0.296875,0.078125 z m 0,0"
           id="path1118" />
      </symbol>
      <symbol
         overflow="visible"
         id="symbol2323">
        <path
           style="stroke:none"
           d="M 3.296875,-1.859375 C 3.3125,-1.9375 3.3125,-1.96875 3.3125,-1.96875 c 0,-0.109375 -0.078125,-0.171875 -0.171875,-0.171875 -0.203125,0 -0.25,0.171875 -0.28125,0.296875 L 2.75,-1.421875 l -0.140625,0.625 c -0.03125,0.0625 -0.046875,0.15625 -0.0625,0.1875 0,0.03125 -0.265625,0.5 -0.6875,0.5 -0.234375,0 -0.40625,-0.109375 -0.40625,-0.4375 0,-0.265625 0.140625,-0.640625 0.28125,-1 0.03125,-0.046875 0.0625,-0.140625 0.0625,-0.21875 0,-0.25 -0.234375,-0.4375 -0.546875,-0.4375 -0.515625,0 -0.796875,0.640625 -0.796875,0.765625 0,0.078125 0.078125,0.078125 0.109375,0.078125 0.078125,0 0.078125,-0.03125 0.109375,-0.09375 0.109375,-0.34375 0.34375,-0.578125 0.5625,-0.578125 0.09375,0 0.15625,0.046875 0.15625,0.1875 0,0.09375 -0.03125,0.171875 -0.0625,0.265625 -0.25,0.59375 -0.296875,0.765625 -0.296875,0.96875 0,0.546875 0.46875,0.671875 0.796875,0.671875 0.28125,0 0.5,-0.140625 0.625,-0.25 -0.078125,0.28125 -0.125,0.5 -0.359375,0.734375 -0.125,0.109375 -0.359375,0.3125 -0.65625,0.3125 -0.09375,0 -0.28125,-0.015625 -0.390625,-0.125 0.21875,-0.0625 0.25,-0.25 0.25,-0.296875 0,-0.140625 -0.125,-0.203125 -0.21875,-0.203125 -0.15625,0 -0.328125,0.109375 -0.328125,0.34375 0,0.25 0.265625,0.4375 0.6875,0.4375 C 2,1.015625 2.671875,0.640625 2.828125,0 Z m 0,0"
           id="path2133" />
      </symbol>
    </g>
  </defs>
  <g
     inkscape:label="Layer 1"
     inkscape:groupmode="layer"
     id="layer1"
     transform="translate(-40.677074,-11.642444)">
    <rect
       style="fill:#ffffff;stroke-width:0.600001"
       id="rect155786"
       width="45.699226"
       height="16.913006"
       x="40.677074"
       y="11.642444" />
    <g
       inkscape:label=""
       transform="translate(-49.084264,-60.218599)"
       id="g155698">
      <g
         id="g9005">
        <g
           style="fill:#000000;fill-opacity:1"
           id="g1690">
          <use
             xlink:href="#symbol3124"
             x="91.925003"
             y="81.962997"
             id="use6139"
             width="100%"
             height="100%" />
        </g>
        <g
           style="fill:#000000;fill-opacity:1"
           id="g2946">
          <use
             xlink:href="#symbol2414"
             x="96.938004"
             y="83.457001"
             id="use7021"
             width="100%"
             height="100%" />
          <use
             xlink:href="#symbol9625"
             x="101.45563"
             y="83.457001"
             id="use7043"
             width="100%"
             height="100%" />
        </g>
        <g
           style="fill:#000000;fill-opacity:1"
           id="g8198">
          <use
             xlink:href="#symbol2085"
             x="109.012"
             y="81.962997"
             id="use2020"
             width="100%"
             height="100%" />
        </g>
        <g
           style="fill:#000000;fill-opacity:1"
           id="g3148">
          <use
             xlink:href="#symbol9650"
             x="120.723"
             y="76.910004"
             id="use6911"
             width="100%"
             height="100%" />
        </g>
        <g
           style="fill:#000000;fill-opacity:1"
           id="g7192">
          <use
             xlink:href="#symbol6309"
             x="124.503"
             y="77.905998"
             id="use7401"
             width="100%"
             height="100%" />
          <use
             xlink:href="#symbol2323"
             x="128.4467"
             y="77.905998"
             id="use4967"
             width="100%"
             height="100%" />
        </g>
        <path
           style="fill:none;stroke:#000000;stroke-width:0.398;stroke-linecap:butt;stroke-linejoin:miter;stroke-miterlimit:10;stroke-opacity:1"
           d="M -3.4375e-4,-6.5625e-4 H 12.038719"
           transform="matrix(1,0,0,-1,120.723,79.472)"
           id="path3827" />
        <g
           style="fill:#000000;fill-opacity:1"
           id="g457">
          <use
             xlink:href="#symbol877"
             x="122.673"
             y="85.398003"
             id="use510"
             width="100%"
             height="100%" />
        </g>
        <g
           style="fill:#000000;fill-opacity:1"
           id="g9991">
          <use
             xlink:href="#symbol6309"
             x="126.372"
             y="86.394997"
             id="use6011"
             width="100%"
             height="100%" />
        </g>
      </g>
    </g>
  </g>
</svg>
