<?xml version="1.0" encoding="UTF-8" standalone="no"?>
<!-- Created with Inkscape (http://www.inkscape.org/) -->

<svg
   width="62.287785mm"
   height="19.278511mm"
   viewBox="0 0 62.287785 19.278511"
   version="1.1"
   id="svg139303"
   sodipodi:docname="sheet8-exercise1-r.svg"
   inkscape:version="1.1.1 (1:1.1+202109281949+c3084ef5ed)"
   xmlns:inkscape="http://www.inkscape.org/namespaces/inkscape"
   xmlns:sodipodi="http://sodipodi.sourceforge.net/DTD/sodipodi-0.dtd"
   xmlns:xlink="http://www.w3.org/1999/xlink"
   xmlns="http://www.w3.org/2000/svg"
   xmlns:svg="http://www.w3.org/2000/svg">
  <sodipodi:namedview
     id="namedview139305"
     pagecolor="#ffffff"
     bordercolor="#666666"
     borderopacity="1.0"
     inkscape:pageshadow="2"
     inkscape:pageopacity="0.0"
     inkscape:pagecheckerboard="0"
     inkscape:document-units="mm"
     showgrid="false"
     inkscape:zoom="1.5037598"
     inkscape:cx="177.88745"
     inkscape:cy="75.144979"
     inkscape:window-width="1920"
     inkscape:window-height="1043"
     inkscape:window-x="1920"
     inkscape:window-y="0"
     inkscape:window-maximized="1"
     inkscape:current-layer="layer1"
     fit-margin-top="0"
     fit-margin-left="0"
     fit-margin-right="0"
     fit-margin-bottom="0" />
  <defs
     id="defs139300">
    <g
       id="g6863">
      <symbol
         overflow="visible"
         id="symbol2686">
        <path
           style="stroke:none"
           d=""
           id="path8170" />
      </symbol>
      <symbol
         overflow="visible"
         id="symbol8461">
        <path
           style="stroke:none"
           d="m 0.875,-0.59375 c -0.03125,0.15625 -0.09375,0.390625 -0.09375,0.4375 0,0.171875 0.140625,0.265625 0.296875,0.265625 0.125,0 0.296875,-0.078125 0.375,-0.28125 C 1.46875,-0.203125 1.796875,-1.5625 1.84375,-1.75 c 0.078125,-0.328125 0.265625,-1.015625 0.3125,-1.296875 0.046875,-0.125 0.328125,-0.59375 0.5625,-0.8125 0.078125,-0.0625 0.375,-0.328125 0.796875,-0.328125 0.265625,0 0.40625,0.125 0.421875,0.125 -0.296875,0.046875 -0.515625,0.28125 -0.515625,0.546875 0,0.15625 0.109375,0.34375 0.375,0.34375 0.265625,0 0.546875,-0.234375 0.546875,-0.59375 0,-0.34375 -0.3125,-0.640625 -0.828125,-0.640625 C 2.875,-4.40625 2.4375,-3.921875 2.25,-3.640625 2.15625,-4.09375 1.796875,-4.40625 1.328125,-4.40625 0.875,-4.40625 0.6875,-4.015625 0.59375,-3.84375 0.421875,-3.5 0.296875,-2.90625 0.296875,-2.875 c 0,0.109375 0.09375,0.109375 0.109375,0.109375 0.109375,0 0.109375,-0.015625 0.171875,-0.234375 0.171875,-0.703125 0.375,-1.1875 0.734375,-1.1875 0.15625,0 0.296875,0.078125 0.296875,0.453125 0,0.21875 -0.03125,0.328125 -0.15625,0.84375 z m 0,0"
           id="path4623" />
      </symbol>
      <symbol
         overflow="visible"
         id="symbol3416">
        <path
           style="stroke:none"
           d=""
           id="path8122" />
      </symbol>
      <symbol
         overflow="visible"
         id="symbol1213">
        <path
           style="stroke:none"
           d="M 1.734375,-0.734375 C 1.671875,-0.5 1.4375,-0.125 1.078125,-0.125 c -0.015625,0 -0.234375,0 -0.375,-0.09375 0.28125,-0.09375 0.3125,-0.34375 0.3125,-0.390625 0,-0.15625 -0.125,-0.25 -0.28125,-0.25 -0.203125,0 -0.40625,0.15625 -0.40625,0.421875 0,0.34375 0.390625,0.5 0.734375,0.5 0.328125,0 0.609375,-0.1875 0.78125,-0.484375 C 2.015625,-0.0625 2.390625,0.0625 2.671875,0.0625 c 0.8125,0 1.234375,-0.859375 1.234375,-1.0625 0,-0.09375 -0.09375,-0.09375 -0.109375,-0.09375 -0.109375,0 -0.109375,0.046875 -0.140625,0.125 -0.140625,0.484375 -0.5625,0.84375 -0.953125,0.84375 -0.28125,0 -0.421875,-0.1875 -0.421875,-0.453125 0,-0.1875 0.171875,-0.8125 0.359375,-1.59375 C 2.78125,-2.703125 3.09375,-2.875 3.328125,-2.875 c 0.015625,0 0.21875,0 0.375,0.09375 -0.21875,0.0625 -0.3125,0.265625 -0.3125,0.390625 0,0.140625 0.125,0.25 0.28125,0.25 0.15625,0 0.390625,-0.125 0.390625,-0.421875 0,-0.390625 -0.453125,-0.515625 -0.71875,-0.515625 -0.359375,0 -0.640625,0.234375 -0.78125,0.5 -0.125,-0.28125 -0.453125,-0.5 -0.84375,-0.5 C 0.9375,-3.078125 0.5,-2.21875 0.5,-2 c 0,0.078125 0.09375,0.078125 0.109375,0.078125 0.09375,0 0.09375,-0.015625 0.140625,-0.109375 C 0.921875,-2.578125 1.359375,-2.875 1.703125,-2.875 1.9375,-2.875 2.125,-2.75 2.125,-2.421875 2.125,-2.28125 2.03125,-1.9375 1.96875,-1.6875 Z m 0,0"
           id="path1145" />
      </symbol>
      <symbol
         overflow="visible"
         id="symbol5069">
        <path
           style="stroke:none"
           d="m 2.9375,-2.65625 c -0.140625,-0.234375 -0.375,-0.421875 -0.71875,-0.421875 -0.890625,0 -1.796875,0.984375 -1.796875,1.984375 0,0.6875 0.453125,1.15625 1.0625,1.15625 0.375,0 0.703125,-0.203125 0.984375,-0.484375 C 2.59375,0 3,0.0625 3.1875,0.0625 c 0.25,0 0.421875,-0.140625 0.546875,-0.359375 0.15625,-0.28125 0.25,-0.671875 0.25,-0.703125 0,-0.09375 -0.09375,-0.09375 -0.109375,-0.09375 -0.109375,0 -0.109375,0.03125 -0.15625,0.21875 C 3.625,-0.53125 3.5,-0.125 3.203125,-0.125 3.03125,-0.125 2.96875,-0.28125 2.96875,-0.46875 c 0,-0.109375 0.0625,-0.375 0.109375,-0.546875 0.046875,-0.1875 0.125,-0.46875 0.15625,-0.625 L 3.375,-2.171875 C 3.421875,-2.359375 3.5,-2.6875 3.5,-2.71875 3.5,-2.875 3.375,-2.9375 3.265625,-2.9375 c -0.125,0 -0.28125,0.078125 -0.328125,0.28125 z M 2.5,-0.875 C 2.453125,-0.671875 2.296875,-0.53125 2.140625,-0.40625 2.078125,-0.34375 1.796875,-0.125 1.5,-0.125 c -0.265625,0 -0.515625,-0.1875 -0.515625,-0.671875 0,-0.375 0.203125,-1.140625 0.375,-1.421875 0.3125,-0.5625 0.671875,-0.65625 0.859375,-0.65625 0.484375,0 0.625,0.53125 0.625,0.609375 0,0.015625 -0.015625,0.078125 -0.015625,0.09375 z m 0,0"
           id="path2468" />
      </symbol>
      <symbol
         overflow="visible"
         id="symbol593">
        <path
           style="stroke:none"
           d=""
           id="path7051" />
      </symbol>
      <symbol
         overflow="visible"
         id="symbol5036">
        <path
           style="stroke:none"
           d="m 6.84375,-3.265625 c 0.15625,0 0.34375,0 0.34375,-0.1875 C 7.1875,-3.65625 7,-3.65625 6.859375,-3.65625 h -5.96875 c -0.140625,0 -0.328125,0 -0.328125,0.203125 0,0.1875 0.1875,0.1875 0.328125,0.1875 z m 0.015625,1.9375 c 0.140625,0 0.328125,0 0.328125,-0.203125 0,-0.1875 -0.1875,-0.1875 -0.34375,-0.1875 H 0.890625 c -0.140625,0 -0.328125,0 -0.328125,0.1875 0,0.203125 0.1875,0.203125 0.328125,0.203125 z m 0,0"
           id="path7336" />
      </symbol>
      <symbol
         overflow="visible"
         id="symbol2799">
        <path
           style="stroke:none"
           d=""
           id="path3572" />
      </symbol>
      <symbol
         overflow="visible"
         id="symbol2419">
        <path
           style="stroke:none"
           d="M 2.46875,-5.21875 C 1.15625,-4.296875 0.796875,-2.8125 0.796875,-1.75 c 0,0.984375 0.296875,2.515625 1.671875,3.484375 0.0625,0 0.140625,0 0.140625,-0.078125 0,-0.046875 -0.015625,-0.0625 -0.0625,-0.109375 C 1.609375,0.703125 1.28125,-0.46875 1.28125,-1.734375 1.28125,-3.625 2,-4.546875 2.5625,-5.0625 2.59375,-5.09375 2.609375,-5.109375 2.609375,-5.140625 2.609375,-5.21875 2.53125,-5.21875 2.46875,-5.21875 Z m 0,0"
           id="path5386" />
      </symbol>
      <symbol
         overflow="visible"
         id="symbol2075">
        <path
           style="stroke:none"
           d="m 4.03125,-0.8125 h 1.75 c 0.09375,0 0.265625,0 0.265625,-0.15625 0,-0.1875 -0.171875,-0.1875 -0.265625,-0.1875 H 4.140625 L 4.5,-2.34375 h 1.28125 c 0.09375,0 0.265625,0 0.265625,-0.171875 C 6.046875,-2.6875 5.875,-2.6875 5.78125,-2.6875 h -1.1875 l 0.5625,-1.84375 C 5.171875,-4.578125 5.1875,-4.625 5.1875,-4.671875 5.1875,-4.75 5.109375,-4.84375 5.015625,-4.84375 c -0.125,0 -0.15625,0.109375 -0.1875,0.203125 L 4.25,-2.6875 H 2.84375 l 0.5625,-1.84375 C 3.421875,-4.578125 3.4375,-4.625 3.4375,-4.671875 3.4375,-4.75 3.359375,-4.84375 3.265625,-4.84375 c -0.125,0 -0.15625,0.109375 -0.1875,0.203125 L 2.5,-2.6875 H 0.75 c -0.09375,0 -0.265625,0 -0.265625,0.171875 0,0.171875 0.15625,0.171875 0.265625,0.171875 H 2.390625 L 2.03125,-1.15625 H 0.75 c -0.109375,0 -0.265625,0 -0.265625,0.1875 0,0.15625 0.171875,0.15625 0.265625,0.15625 H 1.9375 L 1.375,1.046875 C 1.359375,1.09375 1.34375,1.140625 1.34375,1.1875 c 0,0.078125 0.078125,0.171875 0.171875,0.171875 0.125,0 0.15625,-0.109375 0.1875,-0.203125 L 2.28125,-0.8125 H 3.671875 L 3.125,1.046875 C 3.109375,1.09375 3.09375,1.140625 3.09375,1.1875 c 0,0.078125 0.0625,0.171875 0.171875,0.171875 0.125,0 0.15625,-0.109375 0.1875,-0.203125 z M 2.390625,-1.15625 2.75,-2.34375 h 1.390625 l -0.359375,1.1875 z m 0,0"
           id="path8912" />
      </symbol>
      <symbol
         overflow="visible"
         id="symbol430">
        <path
           style="stroke:none"
           d="m 0.625,-5.21875 c -0.046875,0 -0.125,0 -0.125,0.078125 0,0.03125 0.015625,0.046875 0.0625,0.109375 0.59375,0.546875 1.265625,1.484375 1.265625,3.28125 0,1.453125 -0.453125,2.5625 -1.203125,3.234375 -0.125,0.125 -0.125,0.125 -0.125,0.171875 0,0.03125 0.015625,0.078125 0.078125,0.078125 0.09375,0 0.75,-0.453125 1.21875,-1.328125 0.296875,-0.578125 0.5,-1.328125 0.5,-2.140625 C 2.296875,-2.71875 2,-4.25 0.625,-5.21875 Z m 0,0"
           id="path314" />
      </symbol>
      <symbol
         overflow="visible"
         id="symbol6506">
        <path
           style="stroke:none"
           d=""
           id="path5834" />
      </symbol>
      <symbol
         overflow="visible"
         id="symbol5809">
        <path
           style="stroke:none"
           d="m 4.328125,-1.578125 c 0.109375,0 0.28125,0 0.28125,-0.15625 0,-0.1875 -0.15625,-0.1875 -0.28125,-0.1875 H 1.09375 c 0.109375,-1 0.953125,-1.75 2.046875,-1.75 h 1.1875 c 0.109375,0 0.28125,0 0.28125,-0.171875 0,-0.171875 -0.15625,-0.171875 -0.28125,-0.171875 H 3.109375 C 1.8125,-4.015625 0.75,-3 0.75,-1.75 c 0,1.28125 1.078125,2.28125 2.359375,2.28125 h 1.21875 c 0.109375,0 0.28125,0 0.28125,-0.171875 0,-0.171875 -0.15625,-0.171875 -0.28125,-0.171875 h -1.1875 c -1.09375,0 -1.9375,-0.75 -2.046875,-1.765625 z m 0,0"
           id="path3498" />
      </symbol>
      <symbol
         overflow="visible"
         id="symbol5521">
        <path
           style="stroke:none"
           d="m 1.359375,-4.953125 c 0,-0.109375 0,-0.265625 -0.171875,-0.265625 -0.171875,0 -0.171875,0.15625 -0.171875,0.265625 V 1.46875 c 0,0.109375 0,0.265625 0.15625,0.265625 0.1875,0 0.1875,-0.15625 0.1875,-0.265625 z m 0,0"
           id="path8901" />
      </symbol>
      <symbol
         overflow="visible"
         id="symbol319">
        <path
           style="stroke:none"
           d=""
           id="path5872" />
      </symbol>
      <symbol
         overflow="visible"
         id="symbol6130">
        <path
           style="stroke:none"
           d="m 1.796875,-2.3125 c 0,-0.015625 0.046875,-0.109375 0.046875,-0.1875 0,-0.171875 -0.15625,-0.28125 -0.3125,-0.28125 -0.203125,0 -0.25,0.15625 -0.28125,0.21875 L 0.484375,-0.40625 C 0.46875,-0.34375 0.46875,-0.328125 0.46875,-0.3125 c 0,0.078125 0.203125,0.125 0.203125,0.125 0.046875,0 0.0625,-0.03125 0.09375,-0.09375 z m 0,0"
           id="path9688" />
      </symbol>
    </g>
  </defs>
  <g
     inkscape:label="Layer 1"
     inkscape:groupmode="layer"
     id="layer1"
     transform="translate(-58.529514,-15.736403)">
    <rect
       style="fill:#ffffff;stroke-width:0.600001"
       id="rect140426"
       width="62.287785"
       height="19.278511"
       x="58.529514"
       y="15.736403" />
    <g
       inkscape:label=""
       transform="translate(-32.392755,-54.794778)"
       id="g140316">
      <g
         id="g979">
        <g
           style="fill:#000000;fill-opacity:1"
           id="g8443">
          <use
             xlink:href="#symbol8461"
             x="91.925003"
             y="82.606003"
             id="use9242"
             width="100%"
             height="100%" />
        </g>
        <g
           style="fill:#000000;fill-opacity:1"
           id="g6426">
          <use
             xlink:href="#symbol1213"
             x="96.419998"
             y="84.099998"
             id="use5909"
             width="100%"
             height="100%" />
        </g>
        <g
           style="fill:#000000;fill-opacity:1"
           id="g7835">
          <use
             xlink:href="#symbol5036"
             x="104.203"
             y="82.606003"
             id="use498"
             width="100%"
             height="100%" />
        </g>
        <g
           style="fill:#000000;fill-opacity:1"
           id="g5717">
          <use
             xlink:href="#symbol2419"
             x="115.915"
             y="77.774002"
             id="use445"
             width="100%"
             height="100%" />
          <use
             xlink:href="#symbol2075"
             x="119.02811"
             y="77.774002"
             id="use7828"
             width="100%"
             height="100%" />
        </g>
        <g
           style="fill:#000000;fill-opacity:1"
           id="g6519">
          <use
             xlink:href="#symbol1213"
             x="125.573"
             y="77.774002"
             id="use9225"
             width="100%"
             height="100%" />
        </g>
        <g
           style="fill:#000000;fill-opacity:1"
           id="g4084">
          <use
             xlink:href="#symbol5809"
             x="130.091"
             y="77.774002"
             id="use7587"
             width="100%"
             height="100%" />
        </g>
        <g
           style="fill:#000000;fill-opacity:1"
           id="g9758">
          <use
             xlink:href="#symbol2419"
             x="135.46001"
             y="77.774002"
             id="use4237"
             width="100%"
             height="100%" />
        </g>
        <g
           style="fill:#000000;fill-opacity:1"
           id="g9499">
          <use
             xlink:href="#symbol5069"
             x="138.573"
             y="77.774002"
             id="use5646"
             width="100%"
             height="100%" />
        </g>
        <g
           style="fill:#000000;fill-opacity:1"
           id="g2517">
          <use
             xlink:href="#symbol6130"
             x="142.894"
             y="74.767998"
             id="use5489"
             width="100%"
             height="100%" />
        </g>
        <g
           style="fill:#000000;fill-opacity:1"
           id="g3833">
          <use
             xlink:href="#symbol430"
             x="145.589"
             y="77.774002"
             id="use885"
             width="100%"
             height="100%" />
          <use
             xlink:href="#symbol430"
             x="148.7021"
             y="77.774002"
             id="use5335"
             width="100%"
             height="100%" />
        </g>
        <path
           style="fill:none;stroke:#000000;stroke-width:0.398;stroke-linecap:butt;stroke-linejoin:miter;stroke-miterlimit:10;stroke-opacity:1"
           d="M -9.375e-4,0.00171875 H 35.901406"
           transform="matrix(1,0,0,-1,115.915,80.115)"
           id="path8200" />
        <g
           style="fill:#000000;fill-opacity:1"
           id="g9018">
          <use
             xlink:href="#symbol5521"
             x="127.991"
             y="86.042"
             id="use1715"
             width="100%"
             height="100%" />
        </g>
        <g
           style="fill:#000000;fill-opacity:1"
           id="g4188">
          <use
             xlink:href="#symbol5069"
             x="130.35699"
             y="86.042"
             id="use5484"
             width="100%"
             height="100%" />
        </g>
        <g
           style="fill:#000000;fill-opacity:1"
           id="g7633">
          <use
             xlink:href="#symbol6130"
             x="134.679"
             y="84.049004"
             id="use3523"
             width="100%"
             height="100%" />
        </g>
        <g
           style="fill:#000000;fill-opacity:1"
           id="g3290">
          <use
             xlink:href="#symbol5521"
             x="137.373"
             y="86.042"
             id="use1399"
             width="100%"
             height="100%" />
        </g>
      </g>
    </g>
  </g>
</svg>
