<?xml version="1.0" encoding="UTF-8" standalone="no"?>
<!-- Created with Inkscape (http://www.inkscape.org/) -->

<svg
   xmlns:dc="http://purl.org/dc/elements/1.1/"
   xmlns:cc="http://creativecommons.org/ns#"
   xmlns:rdf="http://www.w3.org/1999/02/22-rdf-syntax-ns#"
   xmlns:svg="http://www.w3.org/2000/svg"
   xmlns="http://www.w3.org/2000/svg"
   xmlns:sodipodi="http://sodipodi.sourceforge.net/DTD/sodipodi-0.dtd"
   xmlns:inkscape="http://www.inkscape.org/namespaces/inkscape"
   width="214.19293mm"
   height="45.104713mm"
   viewBox="0 0 214.19293 45.104713"
   version="1.1"
   id="svg8"
   inkscape:version="0.92.5 (2060ec1f9f, 2020-04-08)"
   sodipodi:docname="exercise1_scoring.svg">
  <defs
     id="defs2" />
  <sodipodi:namedview
     id="base"
     pagecolor="#ffffff"
     bordercolor="#666666"
     borderopacity="1.0"
     inkscape:pageopacity="0.0"
     inkscape:pageshadow="2"
     inkscape:zoom="0.98994949"
     inkscape:cx="255.15169"
     inkscape:cy="89.584744"
     inkscape:document-units="mm"
     inkscape:current-layer="layer1"
     showgrid="false"
     inkscape:window-width="1848"
     inkscape:window-height="1016"
     inkscape:window-x="1992"
     inkscape:window-y="27"
     inkscape:window-maximized="1"
     fit-margin-top="0"
     fit-margin-left="0"
     fit-margin-right="0"
     fit-margin-bottom="0" />
  <metadata
     id="metadata5">
    <rdf:RDF>
      <cc:Work
         rdf:about="">
        <dc:format>image/svg+xml</dc:format>
        <dc:type
           rdf:resource="http://purl.org/dc/dcmitype/StillImage" />
        <dc:title></dc:title>
      </cc:Work>
    </rdf:RDF>
  </metadata>
  <g
     inkscape:label="Layer 1"
     inkscape:groupmode="layer"
     id="layer1"
     transform="translate(-0.38505532,-8.6931767)">
    <g
       id="g1226"
       transform="matrix(0.51142611,0,0,0.51142611,-79.911401,-53.982093)"
       style="stroke-width:1.95531666">
      <g
         word-spacing="normal"
         letter-spacing="normal"
         font-size-adjust="none"
         font-stretch="normal"
         font-weight="normal"
         font-variant="normal"
         font-style="normal"
         stroke-miterlimit="10.433"
         xml:space="preserve"
         transform="matrix(0.3,0,0,-0.3,-52.5,222.75)"
         id="g1224"
         style="font-style:normal;font-variant:normal;font-weight:normal;font-stretch:normal;letter-spacing:normal;word-spacing:normal;text-anchor:start;fill:none;fill-opacity:1;fill-rule:evenodd;stroke:#000000;stroke-width:1.95531666;stroke-linecap:butt;stroke-linejoin:miter;stroke-miterlimit:10.43299961;stroke-dasharray:none;stroke-dashoffset:0;stroke-opacity:1"><path
           id="path1072"
           d="m 813.94,331.27 v 0.01 0.02 0.01 0.02 l -0.01,0.02 v 0.02 l -0.01,0.02 v 0.02 l -0.01,0.02 -0.01,0.02 -0.01,0.02 -0.01,0.02 -0.01,0.02 -0.01,0.02 -0.01,0.02 -0.02,0.02 -0.01,0.02 -0.02,0.02 -0.02,0.02 -0.02,0.02 -0.02,0.02 -0.02,0.01 -0.03,0.02 -0.03,0.01 -0.02,0.01 -0.03,0.01 -0.02,0.01 h -0.01 l -0.02,0.01 h -0.02 -0.01 l -0.02,0.01 h -0.02 -0.02 -0.02 -0.01 l -0.02,0.01 h -0.02 c -0.25,0 -0.32,-0.05 -0.91,-0.75 l -2.39,-2.85 c -1.3,2.35 -3.89,3.6 -7.13,3.6 -6.32,0 -12.29,-5.74 -12.29,-11.77 0,-4.03 2.64,-6.33 5.17,-7.06 l 5.33,-1.41 c 1.84,-0.44 4.59,-1.19 4.59,-5.28 0,-4.48 -4.09,-9.16 -8.97,-9.16 -3.19,0 -8.72,1.1 -8.72,7.27 0,1.2 0.25,2.39 0.3,2.69 0.05,0.2 0.09,0.25 0.09,0.36 0,0.5 -0.34,0.54 -0.59,0.54 -0.25,0 -0.35,-0.04 -0.5,-0.2 -0.2,-0.2 -2.98,-11.56 -2.98,-11.7 0,-0.3 0.25,-0.5 0.54,-0.5 0.25,0 0.3,0.04 0.89,0.75 l 2.45,2.82 c 2.15,-2.89 5.52,-3.57 8.41,-3.57 6.78,0 12.66,6.62 12.66,12.79 0,3.44 -1.69,5.14 -2.44,5.83 -1.14,1.16 -1.89,1.35 -6.33,2.5 -1.09,0.3 -2.89,0.8 -3.34,0.89 -1.34,0.46 -3.03,1.89 -3.03,4.53 0,4.05 3.98,8.29 8.72,8.29 4.14,0 7.17,-2.15 7.17,-7.74 0,-1.59 -0.2,-2.48 -0.2,-2.78 0,-0.05 0,-0.5 0.6,-0.5 0.5,0 0.55,0.16 0.74,1 z"
           inkscape:connector-curvature="0"
           style="fill:#000000;stroke-width:0" /><path
           id="path1074"
           d="m 824.07,311.23 v 0.05 0.04 0.04 0.04 0.04 0.04 0.04 0.03 l -0.01,0.03 v 0.04 0.03 0.03 0.03 l -0.01,0.03 v 0.02 l -0.01,0.03 v 0.03 0.02 l -0.01,0.02 v 0.03 l -0.02,0.04 -0.01,0.03 -0.02,0.04 -0.02,0.03 -0.02,0.03 -0.02,0.02 -0.03,0.03 -0.03,0.02 -0.04,0.01 -0.03,0.02 -0.04,0.01 -0.05,0.01 -0.02,0.01 h -0.03 l -0.02,0.01 h -0.03 -0.03 l -0.02,0.01 h -0.03 -0.03 -0.04 -0.03 -0.03 l -0.04,0.01 h -0.04 -0.03 -0.04 -0.04 -0.04 -0.05 -0.04 -0.05 c -2.23,-2.2 -5.39,-2.24 -6.82,-2.24 v -1.25 c 0.84,0 3.14,0 5.04,0.97 v -17.76 c 0,-1.16 0,-1.61 -3.48,-1.61 h -1.31 v -1.25 c 0.62,0.03 4.9,0.14 6.2,0.14 1.08,0 5.47,-0.11 6.23,-0.14 v 1.25 h -1.33 c -3.48,0 -3.48,0.45 -3.48,1.61 z"
           inkscape:connector-curvature="0"
           style="fill:#000000;stroke-width:0" /><path
           id="path1076"
           d="m 918.75,312.94 h 0.14 0.15 0.14 l 0.07,0.01 h 0.08 l 0.07,0.01 0.07,0.01 0.07,0.01 0.07,0.01 0.07,0.01 0.06,0.02 0.07,0.02 0.06,0.02 0.06,0.03 0.06,0.02 0.06,0.03 0.05,0.04 0.05,0.04 0.05,0.04 0.04,0.04 0.04,0.05 0.02,0.03 0.02,0.03 0.01,0.03 0.02,0.03 0.01,0.03 0.02,0.03 0.01,0.03 0.01,0.04 0.01,0.03 0.01,0.04 v 0.04 l 0.01,0.04 v 0.04 l 0.01,0.04 v 0.05 0.04 c 0,1 -0.95,1 -1.64,1 h -29.84 c -0.71,0 -1.64,0 -1.64,-1 0,-0.98 0.93,-0.98 1.68,-0.98 z"
           inkscape:connector-curvature="0"
           style="fill:#000000;stroke-width:0" /><path
           id="path1078"
           d="m 918.8,303.27 h 0.07 0.06 0.14 0.14 l 0.07,0.01 h 0.07 l 0.07,0.01 0.07,0.01 0.06,0.01 0.07,0.01 0.07,0.01 0.06,0.02 0.07,0.02 0.06,0.02 0.06,0.03 0.06,0.02 0.05,0.04 0.05,0.03 0.05,0.04 0.05,0.04 0.04,0.05 0.02,0.02 0.02,0.03 0.02,0.02 0.02,0.03 0.01,0.03 0.02,0.03 0.01,0.03 0.02,0.04 0.01,0.03 0.01,0.04 0.01,0.03 0.01,0.04 v 0.04 l 0.01,0.04 v 0.04 l 0.01,0.05 v 0.04 0.05 c 0,1 -0.95,1 -1.69,1 H 889 c -0.75,0 -1.68,0 -1.68,-1 0,-1 0.93,-1 1.64,-1 z"
           inkscape:connector-curvature="0"
           style="fill:#000000;stroke-width:0" /><path
           id="path1080"
           d="m 987.88,324.05 h 6.57 v -2.64 c 0,-0.96 0,-2.05 1.69,-2.05 1.75,0 1.75,1.05 1.75,2.05 v 3.62 c 0,1.55 -0.3,2.05 -2,2.05 h -19.47 c -1.65,0 -2.04,-0.39 -2.04,-2.05 v -3.62 c 0,-0.96 0,-2.05 1.68,-2.05 1.75,0 1.75,1.05 1.75,2.05 v 2.64 h 6.63 v -24.36 h -2.6 c -0.75,0 -1.98,0 -1.98,-1.5 0,-1.55 1.19,-1.55 1.98,-1.55 h 8.63 c 0.75,0 1.98,0 1.98,1.5 0,1.55 -1.18,1.55 -1.98,1.55 h -2.59 z"
           inkscape:connector-curvature="0"
           style="fill:#000000;stroke-width:0" /><path
           id="path1082"
           d="m 1023.3,325.59 v 0.08 0.08 0.08 0.08 0.17 0.08 0.09 0.08 0.09 0.08 0.09 l -0.1,0.08 v 0.08 0.08 0.08 l -0.1,0.07 v 0.08 l -0.1,0.07 v 0.06 l -0.1,0.07 v 0.05 l -0.1,0.03 v 0.03 0.03 l -0.1,0.02 v 0.02 l -0.1,0.03 v 0.02 l -0.1,0.02 v 0.01 0.02 l -0.1,0.02 -0.1,0.01 v 0.01 l -0.1,0.01 v 0.01 l -0.1,0.01 v 0.01 h -0.1 -0.1 v 0 c -0.9,0 -1.2,-0.5 -1.4,-0.84 -0.1,-0.2 -0.1,-0.3 -0.8,-1.55 -1.6,1.41 -3.9,2.39 -6.5,2.39 -6.4,0 -12,-6.67 -12,-15.73 0,-9.12 5.6,-15.8 12.1,-15.8 5.8,0 10,4.44 10,8.93 0,1.64 -1.1,1.64 -1.7,1.64 -0.4,0 -1.6,0 -1.7,-1.46 -0.3,-4.87 -4.4,-6.08 -6.4,-6.08 -4.5,0 -8.8,5.29 -8.8,12.77 0,7.42 4.3,12.7 8.7,12.7 3,0 5.8,-2.29 6.5,-6.32 0.1,-0.85 0.2,-1.65 1.7,-1.65 1.7,0 1.7,1.05 1.7,2.04 z"
           inkscape:connector-curvature="0"
           style="fill:#000000;stroke-width:0" /><path
           id="path1084"
           d="m 1049.5,325.59 v 0.08 0.08 0.08 0.08 0.17 0.08 0.09 0.08 0.09 l -0.1,0.08 v 0.09 0.08 0.08 l -0.1,0.08 v 0.08 0.07 l -0.1,0.08 v 0.07 l -0.1,0.06 v 0.07 l -0.1,0.05 v 0.03 0.03 l -0.1,0.03 v 0.02 l -0.1,0.02 v 0.03 0.02 l -0.1,0.02 v 0.01 l -0.1,0.02 v 0.02 l -0.1,0.01 v 0.01 l -0.1,0.01 -0.1,0.01 v 0.01 l -0.1,0.01 v 0 h -0.1 -0.1 c -0.9,0 -1.1,-0.5 -1.4,-0.84 -0.1,-0.2 -0.1,-0.3 -0.7,-1.55 -1.7,1.41 -4,2.39 -6.5,2.39 -6.4,0 -12,-6.67 -12,-15.73 0,-9.12 5.6,-15.8 12,-15.8 5.8,0 10.1,4.44 10.1,8.93 0,1.64 -1.2,1.64 -1.7,1.64 -0.5,0 -1.6,0 -1.7,-1.46 -0.4,-4.87 -4.4,-6.08 -6.5,-6.08 -4.5,0 -8.8,5.29 -8.8,12.77 0,7.42 4.4,12.7 8.8,12.7 3,0 5.7,-2.29 6.4,-6.32 0.2,-0.85 0.3,-1.65 1.8,-1.65 1.7,0 1.7,1.05 1.7,2.04 z"
           inkscape:connector-curvature="0"
           style="fill:#000000;stroke-width:0" /><path
           id="path1086"
           d="m 1073.9,307.05 h 0.2 0.3 0.1 l 0.1,0.01 h 0.1 l 0.1,0.01 0.1,0.01 0.1,0.01 0.1,0.02 0.1,0.02 0.1,0.02 0.1,0.03 0.1,0.03 v 0.03 l 0.1,0.04 0.1,0.04 0.1,0.05 v 0.05 l 0.1,0.06 0.1,0.07 v 0.07 0.04 l 0.1,0.04 v 0.04 0.04 0.05 l 0.1,0.05 v 0.05 0.05 0.05 0.05 0.06 0.06 0.06 l 0.1,0.06 v 0.07 0.06 0.07 0.07 c 0,1.5 -1.3,1.5 -2.1,1.5 h -5.9 c -0.7,0 -2,0 -2,-1.5 0,-1.54 1.2,-1.54 2,-1.54 h 2.1 c -0.6,-5.58 -3.1,-7.93 -5.7,-7.93 -4,0 -7.8,5.4 -7.8,12.72 0,7.61 4,12.75 7.9,12.75 1.7,0 4.8,-1.15 5.7,-6.53 0.1,-0.84 0.4,-1.44 1.7,-1.44 1.7,0 1.7,1.05 1.7,2.04 v 6.93 c 0,0.8 0,2.03 -1.5,2.03 -1,0 -1.3,-0.54 -2,-2.23 -1.8,1.49 -3.8,2.23 -5.8,2.23 -6,0 -11.2,-6.71 -11.2,-15.73 0,-9.17 5.2,-15.8 11.2,-15.8 2.8,0 4.9,1.5 5.9,2.64 0,-1.09 0,-2.09 1.7,-2.09 1.7,0 1.7,1.09 1.7,2.05 z"
           inkscape:connector-curvature="0"
           style="fill:#000000;stroke-width:0" /><path
           id="path1088"
           d="m 1093.4,325.73 v 0.09 0.09 0.08 0.08 l -0.1,0.07 v 0.08 0.07 0.07 l -0.1,0.13 v 0.13 l -0.1,0.11 v 0.1 l -0.1,0.1 -0.1,0.09 v 0.08 l -0.1,0.08 -0.1,0.07 v 0.06 l -0.1,0.05 -0.1,0.05 -0.1,0.05 -0.1,0.03 v 0.04 l -0.1,0.03 -0.1,0.02 -0.1,0.02 -0.1,0.02 -0.1,0.02 -0.1,0.01 -0.2,0.01 h -0.1 l -0.1,0.01 h -0.1 -0.2 -0.1 -0.1 c -1.5,0 -2.3,0 -2.7,-1.89 l -6.1,-26.09 c -0.7,0 -1.8,0 -2.1,-0.11 -0.6,-0.3 -0.8,-0.8 -0.8,-1.44 0,-1.5 1.2,-1.5 2.1,-1.5 h 5.1 c 0.9,0 2.1,0 2.1,1.5 0,1.55 -1,1.55 -2.8,1.55 l 1.1,5.17 0.8,3.05 3.3,15.73 v 0 l 3.3,-15.73 h -6.6 l -0.8,-3.05 h 8.1 l 1.1,-5.17 c -1.8,0 -2.8,0 -2.8,-1.55 0,-1.5 1.2,-1.5 2.1,-1.5 h 5.1 c 0.9,0 2.2,0 2.2,1.5 0,0.64 -0.3,1.14 -0.9,1.39 -0.3,0.16 -1.4,0.16 -2.1,0.16 z"
           inkscape:connector-curvature="0"
           style="fill:#000000;stroke-width:0" /><path
           id="path1090"
           d="m 2052.3,284.69 v 0.02 0.03 0.01 0.02 0.01 l -0.1,0.02 v 0.02 0.01 0.02 0.02 0.02 0.03 0.02 0.03 l -0.1,0.03 v 0.03 0.04 0.03 l -0.1,0.02 v 0.02 0.02 0.02 0.02 l -0.1,0.03 v 0.02 0.02 0.03 0.03 l -0.1,0.02 v 0.03 0.03 0.03 l -0.1,0.03 v 0.03 0.03 l -0.1,0.03 v 0.04 0.03 l -0.1,0.04 v 0.03 0.04 l -0.1,0.04 c -6.2,6.28 -7.8,15.69 -7.8,23.31 0,8.68 1.9,17.35 8,23.57 0.7,0.61 0.7,0.7 0.7,0.86 0,0.34 -0.2,0.48 -0.5,0.48 -0.5,0 -5,-3.38 -7.9,-9.7 -2.6,-5.49 -3.2,-11.02 -3.2,-15.21 0,-3.89 0.6,-9.9 3.3,-15.54 3,-6.13 7.3,-9.36 7.8,-9.36 0.3,0 0.5,0.14 0.5,0.5 z"
           inkscape:connector-curvature="0"
           style="fill:#000000;stroke-width:0" /><path
           id="path1092"
           d="m 2069.7,328.53 v 0.06 0.05 0.05 0.05 0.05 0.05 0.04 0.05 0.04 0.04 0.04 0.04 0.04 0.04 0.03 0.03 0.07 0.06 0.05 0.05 0.05 l -0.1,0.04 v 0.04 0.03 0.04 l -0.1,0.02 v 0.03 0.02 l -0.1,0.02 v 0.01 0.01 h -0.1 v 0.01 0.01 h -0.1 v 0.01 0 0.01 h -0.1 v 0 l -0.1,0.01 v 0 0 h -0.1 v 0 l -0.1,0.01 v 0 h -0.1 v 0 h -0.1 v 0 c -3.1,-3.19 -7.5,-3.19 -9.1,-3.19 v -1.55 c 1,0 4,0 6.6,1.3 v -25.81 c 0,-1.8 -0.2,-2.39 -4.7,-2.39 h -1.6 v -1.55 c 1.8,0.16 6.1,0.16 8.1,0.16 2,0 6.3,0 8.1,-0.16 v 1.55 h -1.6 c -4.5,0 -4.7,0.54 -4.7,2.39 z"
           inkscape:connector-curvature="0"
           style="fill:#000000;stroke-width:0" /><path
           id="path1094"
           d="m 2094.4,309.09 v 0.37 0.39 0.39 0.41 0.84 l -0.1,0.88 -0.1,0.92 -0.1,0.95 -0.1,0.98 -0.2,1 -0.2,1.02 -0.2,1.04 -0.3,1.05 -0.3,1.06 -0.3,1.06 -0.4,1.07 -0.2,0.53 -0.3,0.53 -0.2,0.53 -0.2,0.53 c -3,6.13 -7.3,9.36 -7.8,9.36 -0.3,0 -0.5,-0.19 -0.5,-0.48 0,-0.16 0,-0.25 0.9,-1.16 4.9,-4.92 7.8,-12.84 7.8,-23.27 0,-8.51 -1.9,-17.28 -8.1,-23.56 -0.6,-0.59 -0.6,-0.7 -0.6,-0.84 0,-0.3 0.2,-0.5 0.5,-0.5 0.5,0 5,3.39 7.9,9.72 2.6,5.47 3.1,11 3.1,15.18 z"
           inkscape:connector-curvature="0"
           style="fill:#000000;stroke-width:0" /><path
           id="path1096"
           d="m 813.94,256.5 v 0.02 0.02 0.01 0.02 l -0.01,0.02 v 0.02 l -0.01,0.02 v 0.02 l -0.01,0.02 -0.01,0.02 -0.01,0.02 -0.01,0.02 -0.01,0.02 -0.01,0.02 -0.01,0.02 -0.02,0.02 -0.01,0.02 -0.02,0.02 -0.02,0.02 -0.02,0.02 -0.02,0.01 -0.02,0.02 -0.03,0.01 -0.03,0.02 -0.02,0.01 -0.03,0.01 -0.02,0.01 h -0.01 l -0.02,0.01 h -0.02 -0.01 l -0.02,0.01 h -0.02 -0.02 -0.02 -0.01 -0.02 -0.02 c -0.25,0 -0.32,-0.04 -0.91,-0.75 l -2.39,-2.84 c -1.3,2.34 -3.89,3.59 -7.13,3.59 -6.32,0 -12.29,-5.73 -12.29,-11.76 0,-4.03 2.64,-6.33 5.17,-7.06 l 5.33,-1.41 c 1.84,-0.44 4.59,-1.19 4.59,-5.28 0,-4.49 -4.09,-9.16 -8.97,-9.16 -3.19,0 -8.72,1.1 -8.72,7.27 0,1.2 0.25,2.39 0.3,2.69 0.05,0.2 0.09,0.25 0.09,0.36 0,0.5 -0.34,0.54 -0.59,0.54 -0.25,0 -0.35,-0.04 -0.5,-0.2 -0.2,-0.2 -2.98,-11.56 -2.98,-11.7 0,-0.3 0.25,-0.5 0.54,-0.5 0.25,0 0.3,0.04 0.89,0.75 l 2.45,2.82 c 2.15,-2.89 5.52,-3.57 8.41,-3.57 6.78,0 12.66,6.62 12.66,12.79 0,3.44 -1.69,5.14 -2.44,5.83 -1.14,1.16 -1.89,1.34 -6.33,2.5 -1.09,0.3 -2.89,0.8 -3.34,0.89 -1.34,0.45 -3.03,1.89 -3.03,4.53 0,4.05 3.98,8.28 8.72,8.28 4.14,0 7.17,-2.14 7.17,-7.73 0,-1.59 -0.2,-2.48 -0.2,-2.78 0,-0.05 0,-0.5 0.6,-0.5 0.5,0 0.55,0.15 0.74,1 z"
           inkscape:connector-curvature="0"
           style="fill:#000000;stroke-width:0" /><path
           id="path1098"
           d="m 829.99,220.79 h -1.19 c -0.09,-0.77 -0.45,-2.83 -0.9,-3.18 -0.27,-0.2 -2.95,-0.2 -3.44,-0.2 h -6.42 c 3.66,3.24 4.87,4.2 6.97,5.84 2.58,2.07 4.98,4.22 4.98,7.54 0,4.21 -3.69,6.79 -8.15,6.79 -4.32,0 -7.25,-3.03 -7.25,-6.23 0,-1.78 1.5,-1.95 1.86,-1.95 0.82,0 1.84,0.59 1.84,1.84 0,0.62 -0.25,1.84 -2.06,1.84 1.07,2.47 3.45,3.24 5.09,3.24 3.48,0 5.3,-2.71 5.3,-5.53 0,-3.04 -2.16,-5.44 -3.28,-6.69 l -8.39,-8.3 c -0.36,-0.31 -0.36,-0.39 -0.36,-1.36 h 14.36 z"
           inkscape:connector-curvature="0"
           style="fill:#000000;stroke-width:0" /><path
           id="path1100"
           d="m 918.75,238.18 h 0.14 0.15 0.14 l 0.07,0.01 h 0.08 l 0.07,0.01 0.07,0.01 0.07,0.01 0.07,0.01 0.07,0.01 0.06,0.02 0.07,0.02 0.06,0.02 0.06,0.02 0.06,0.03 0.06,0.03 0.05,0.04 0.05,0.03 0.05,0.05 0.04,0.04 0.04,0.05 0.02,0.03 0.02,0.03 0.01,0.02 0.02,0.03 0.01,0.03 0.02,0.04 0.01,0.03 0.01,0.04 0.01,0.03 0.01,0.04 v 0.04 l 0.01,0.04 v 0.04 l 0.01,0.04 v 0.04 0.05 c 0,1 -0.95,1 -1.64,1 h -29.84 c -0.71,0 -1.64,0 -1.64,-1 0,-0.98 0.93,-0.98 1.68,-0.98 z"
           inkscape:connector-curvature="0"
           style="fill:#000000;stroke-width:0" /><path
           id="path1102"
           d="m 918.8,228.5 h 0.07 0.06 l 0.14,0.01 h 0.14 0.07 l 0.07,0.01 0.07,0.01 h 0.07 l 0.06,0.01 0.07,0.02 0.07,0.01 0.06,0.02 0.07,0.02 0.06,0.02 0.06,0.02 0.06,0.03 0.05,0.03 0.05,0.04 0.05,0.04 0.05,0.04 0.04,0.05 0.02,0.02 0.02,0.03 0.02,0.02 0.02,0.03 0.01,0.03 0.02,0.03 0.01,0.03 0.02,0.03 0.01,0.04 0.01,0.03 0.01,0.04 0.01,0.04 v 0.04 l 0.01,0.04 v 0.04 l 0.01,0.04 v 0.05 0.04 c 0,1 -0.95,1 -1.69,1 H 889 c -0.75,0 -1.68,0 -1.68,-1 0,-1 0.93,-1 1.64,-1 z"
           inkscape:connector-curvature="0"
           style="fill:#000000;stroke-width:0" /><path
           id="path1104"
           d="m 987.88,249.29 h 6.57 v -2.64 c 0,-0.96 0,-2.05 1.69,-2.05 1.75,0 1.75,1.05 1.75,2.05 v 3.62 c 0,1.55 -0.3,2.05 -2,2.05 h -19.47 c -1.65,0 -2.04,-0.39 -2.04,-2.05 v -3.62 c 0,-0.96 0,-2.05 1.68,-2.05 1.75,0 1.75,1.05 1.75,2.05 v 2.64 h 6.63 v -24.36 h -2.6 c -0.75,0 -1.98,0 -1.98,-1.5 0,-1.55 1.19,-1.55 1.98,-1.55 h 8.63 c 0.75,0 1.98,0 1.98,1.5 0,1.55 -1.18,1.55 -1.98,1.55 h -2.59 z"
           inkscape:connector-curvature="0"
           style="fill:#000000;stroke-width:0" /><path
           id="path1106"
           d="m 1015,250.97 v 0.09 l -0.1,0.08 v 0.09 0.08 0.07 l -0.1,0.08 v 0.07 0.07 l -0.1,0.13 v 0.12 l -0.1,0.12 v 0.1 l -0.1,0.1 v 0.09 l -0.1,0.08 -0.1,0.08 v 0.06 l -0.1,0.07 -0.1,0.05 -0.1,0.05 v 0.04 l -0.1,0.04 -0.1,0.04 -0.1,0.03 -0.1,0.02 -0.1,0.02 -0.1,0.02 -0.1,0.01 -0.1,0.01 -0.1,0.01 -0.2,0.01 h -0.1 l -0.1,0.01 h -0.1 -0.2 -0.1 c -1.5,0 -2.3,0 -2.7,-1.89 l -6,-26.09 c -0.7,0 -1.9,0 -2.2,-0.11 -0.5,-0.3 -0.8,-0.8 -0.8,-1.44 0,-1.5 1.3,-1.5 2.1,-1.5 h 5.1 c 0.9,0 2.1,0 2.1,1.5 0,1.55 -1,1.55 -2.8,1.55 l 1.1,5.17 0.8,3.05 3.3,15.73 v 0 l 3.3,-15.73 h -6.6 l -0.8,-3.05 h 8.1 l 1.2,-5.17 c -1.8,0 -2.8,0 -2.8,-1.55 0,-1.5 1.2,-1.5 2.1,-1.5 h 5.1 c 0.8,0 2.1,0 2.1,1.5 0,0.64 -0.2,1.14 -0.8,1.39 -0.4,0.16 -1.4,0.16 -2.2,0.16 z"
           inkscape:connector-curvature="0"
           style="fill:#000000;stroke-width:0" /><path
           id="path1108"
           d="m 1049.5,250.83 v 0.08 0.08 0.08 0.08 0.17 0.08 0.09 0.08 0.09 l -0.1,0.08 v 0.08 0.09 0.08 l -0.1,0.08 v 0.08 0.07 l -0.1,0.07 v 0.07 l -0.1,0.07 v 0.06 l -0.1,0.06 v 0.03 0.03 l -0.1,0.02 v 0.03 l -0.1,0.02 v 0.02 0.02 l -0.1,0.02 v 0.02 l -0.1,0.02 v 0.01 l -0.1,0.02 v 0.01 l -0.1,0.01 -0.1,0.01 v 0.01 l -0.1,0.01 v 0 h -0.1 -0.1 c -0.9,0 -1.1,-0.5 -1.4,-0.84 -0.1,-0.2 -0.1,-0.3 -0.7,-1.55 -1.7,1.41 -4,2.39 -6.5,2.39 -6.4,0 -12,-6.67 -12,-15.73 0,-9.13 5.6,-15.8 12,-15.8 5.8,0 10.1,4.44 10.1,8.92 0,1.65 -1.2,1.65 -1.7,1.65 -0.5,0 -1.6,0 -1.7,-1.46 -0.4,-4.87 -4.4,-6.08 -6.5,-6.08 -4.5,0 -8.8,5.29 -8.8,12.77 0,7.42 4.4,12.7 8.8,12.7 3,0 5.7,-2.29 6.4,-6.33 0.2,-0.84 0.3,-1.64 1.8,-1.64 1.7,0 1.7,1.05 1.7,2.04 z"
           inkscape:connector-curvature="0"
           style="fill:#000000;stroke-width:0" /><path
           id="path1110"
           d="m 1073.9,232.29 h 0.2 0.3 0.1 l 0.1,0.01 h 0.1 l 0.1,0.01 0.1,0.01 0.1,0.01 0.1,0.02 0.1,0.02 0.1,0.02 0.1,0.02 0.1,0.03 v 0.04 l 0.1,0.04 0.1,0.04 0.1,0.05 v 0.05 l 0.1,0.06 0.1,0.07 v 0.07 0.04 l 0.1,0.04 v 0.04 0.04 0.05 l 0.1,0.04 v 0.05 0.05 0.06 0.05 0.06 0.06 0.06 l 0.1,0.06 v 0.06 0.07 0.07 0.07 c 0,1.5 -1.3,1.5 -2.1,1.5 h -5.9 c -0.7,0 -2,0 -2,-1.5 0,-1.54 1.2,-1.54 2,-1.54 h 2.1 c -0.6,-5.58 -3.1,-7.93 -5.7,-7.93 -4,0 -7.8,5.39 -7.8,12.72 0,7.61 4,12.75 7.9,12.75 1.7,0 4.8,-1.15 5.7,-6.53 0.1,-0.84 0.4,-1.44 1.7,-1.44 1.7,0 1.7,1.05 1.7,2.04 v 6.93 c 0,0.8 0,2.03 -1.5,2.03 -1,0 -1.3,-0.54 -2,-2.23 -1.8,1.48 -3.8,2.23 -5.8,2.23 -6,0 -11.2,-6.71 -11.2,-15.73 0,-9.17 5.2,-15.8 11.2,-15.8 2.8,0 4.9,1.5 5.9,2.64 0,-1.09 0,-2.09 1.7,-2.09 1.7,0 1.7,1.09 1.7,2.05 z"
           inkscape:connector-curvature="0"
           style="fill:#000000;stroke-width:0" /><path
           id="path1112"
           d="m 1101.8,250.83 v 0.08 0.08 0.08 0.08 0.17 0.08 0.09 0.08 0.09 l -0.1,0.08 v 0.08 0.09 0.08 0.08 l -0.1,0.08 v 0.07 l -0.1,0.07 v 0.07 l -0.1,0.07 v 0.06 l -0.1,0.06 v 0.03 0.03 l -0.1,0.02 v 0.03 l -0.1,0.02 v 0.02 0.02 l -0.1,0.02 v 0.02 l -0.1,0.02 v 0.01 l -0.1,0.02 v 0.01 l -0.1,0.01 v 0.01 l -0.1,0.01 -0.1,0.01 v 0 h -0.1 -0.1 c -0.9,0 -1.1,-0.5 -1.4,-0.84 -0.1,-0.2 -0.1,-0.3 -0.7,-1.55 -1.7,1.41 -4,2.39 -6.5,2.39 -6.4,0 -12,-6.67 -12,-15.73 0,-9.13 5.6,-15.8 12.1,-15.8 5.7,0 10,4.44 10,8.92 0,1.65 -1.2,1.65 -1.7,1.65 -0.5,0 -1.6,0 -1.7,-1.46 -0.4,-4.87 -4.4,-6.08 -6.5,-6.08 -4.5,0 -8.8,5.29 -8.8,12.77 0,7.42 4.4,12.7 8.8,12.7 3,0 5.7,-2.29 6.4,-6.33 0.2,-0.84 0.3,-1.64 1.8,-1.64 1.7,0 1.7,1.05 1.7,2.04 z"
           inkscape:connector-curvature="0"
           style="fill:#000000;stroke-width:0" /><path
           id="path1114"
           d="m 1119.6,250.97 v 0.09 0.08 l -0.1,0.09 v 0.08 0.07 0.08 0.07 l -0.1,0.07 v 0.13 l -0.1,0.12 v 0.12 l -0.1,0.1 v 0.1 l -0.1,0.09 -0.1,0.08 v 0.08 l -0.1,0.06 -0.1,0.07 -0.1,0.05 v 0.05 l -0.1,0.04 -0.1,0.04 -0.1,0.04 -0.1,0.03 -0.1,0.02 -0.1,0.02 -0.1,0.02 -0.1,0.01 -0.1,0.01 -0.1,0.01 -0.1,0.01 h -0.2 l -0.1,0.01 h -0.1 -0.1 -0.2 c -1.4,0 -2.2,0 -2.7,-1.89 l -6,-26.09 c -0.7,0 -1.9,0 -2.1,-0.11 -0.6,-0.3 -0.9,-0.8 -0.9,-1.44 0,-1.5 1.3,-1.5 2.1,-1.5 h 5.1 c 0.9,0 2.1,0 2.1,1.5 0,1.55 -1,1.55 -2.8,1.55 l 1.2,5.17 0.7,3.05 3.3,15.73 h 0.1 l 3.2,-15.73 h -6.6 l -0.7,-3.05 h 8 l 1.2,-5.17 c -1.8,0 -2.8,0 -2.8,-1.55 0,-1.5 1.2,-1.5 2.1,-1.5 h 5.1 c 0.8,0 2.1,0 2.1,1.5 0,0.64 -0.2,1.14 -0.8,1.39 -0.3,0.16 -1.4,0.16 -2.2,0.16 z"
           inkscape:connector-curvature="0"
           style="fill:#000000;stroke-width:0" /><path
           id="path1116"
           d="m 1152.4,232.29 h 0.2 0.2 0.1 l 0.1,0.01 h 0.2 l 0.1,0.01 0.1,0.01 0.1,0.01 0.1,0.02 0.1,0.02 v 0.02 l 0.1,0.02 0.1,0.03 0.1,0.04 0.1,0.04 0.1,0.04 v 0.05 l 0.1,0.05 0.1,0.06 v 0.07 l 0.1,0.07 v 0.04 0.04 l 0.1,0.04 v 0.04 0.05 0.04 0.05 0.05 l 0.1,0.06 v 0.05 0.06 0.06 0.06 0.06 0.06 0.07 0.07 0.07 c 0,1.5 -1.3,1.5 -2,1.5 h -5.9 c -0.8,0 -2,0 -2,-1.5 0,-1.54 1.1,-1.54 2,-1.54 h 2 c -0.6,-5.58 -3,-7.93 -5.6,-7.93 -4.1,0 -7.9,5.39 -7.9,12.72 0,7.61 4,12.75 7.9,12.75 1.8,0 4.9,-1.15 5.7,-6.53 0.2,-0.84 0.4,-1.44 1.7,-1.44 1.8,0 1.8,1.05 1.8,2.04 v 6.93 c 0,0.8 0,2.03 -1.5,2.03 -1.1,0 -1.3,-0.54 -2.1,-2.23 -1.7,1.48 -3.7,2.23 -5.8,2.23 -5.9,0 -11.1,-6.71 -11.1,-15.73 0,-9.17 5.2,-15.8 11.1,-15.8 2.9,0 4.9,1.5 5.9,2.64 0,-1.09 0,-2.09 1.8,-2.09 1.7,0 1.7,1.09 1.7,2.05 z"
           inkscape:connector-curvature="0"
           style="fill:#000000;stroke-width:0" /><path
           id="path1118"
           d="m 1171.9,250.97 v 0.09 0.08 0.09 l -0.1,0.08 v 0.07 0.08 0.07 l -0.1,0.07 v 0.13 l -0.1,0.12 v 0.12 l -0.1,0.1 v 0.1 l -0.1,0.09 -0.1,0.08 v 0.08 l -0.1,0.06 -0.1,0.07 v 0.05 l -0.1,0.05 -0.1,0.04 -0.1,0.04 -0.1,0.04 -0.1,0.03 -0.1,0.02 -0.1,0.02 -0.1,0.02 -0.1,0.01 -0.1,0.01 -0.1,0.01 -0.1,0.01 h -0.1 l -0.2,0.01 h -0.1 -0.1 -0.2 c -1.4,0 -2.2,0 -2.7,-1.89 l -6,-26.09 c -0.7,0 -1.8,0 -2.1,-0.11 -0.6,-0.3 -0.9,-0.8 -0.9,-1.44 0,-1.5 1.3,-1.5 2.2,-1.5 h 5 c 0.9,0 2.1,0 2.1,1.5 0,1.55 -1,1.55 -2.7,1.55 l 1.1,5.17 0.7,3.05 3.3,15.73 h 0.1 l 3.2,-15.73 h -6.6 l -0.7,-3.05 h 8.1 l 1.1,-5.17 c -1.8,0 -2.8,0 -2.8,-1.55 0,-1.5 1.2,-1.5 2.1,-1.5 h 5.1 c 0.8,0 2.1,0 2.1,1.5 0,0.64 -0.2,1.14 -0.8,1.39 -0.3,0.16 -1.4,0.16 -2.2,0.16 z"
           inkscape:connector-curvature="0"
           style="fill:#000000;stroke-width:0" /><path
           id="path1120"
           d="m 2052.2,209.93 v 0.02 0.03 0.01 0.02 0.01 0.02 0.01 0.02 0.02 0.02 0.02 0.03 0.02 l -0.1,0.03 v 0.03 0.03 0.03 l -0.1,0.04 v 0.02 0.02 0.02 0.02 0.02 l -0.1,0.03 v 0.02 0.02 0.03 l -0.1,0.02 v 0.03 0.03 0.03 l -0.1,0.03 v 0.03 0.03 0.03 l -0.1,0.03 v 0.04 0.03 l -0.1,0.04 v 0.03 l -0.1,0.04 v 0.04 c -6.2,6.28 -7.8,15.69 -7.8,23.31 0,8.67 1.9,17.35 8,23.56 0.6,0.61 0.6,0.71 0.6,0.86 0,0.35 -0.1,0.49 -0.4,0.49 -0.5,0 -5,-3.38 -8,-9.7 -2.5,-5.49 -3.1,-11.02 -3.1,-15.21 0,-3.89 0.5,-9.9 3.3,-15.54 3,-6.13 7.3,-9.36 7.8,-9.36 0.3,0 0.4,0.14 0.4,0.5 z"
           inkscape:connector-curvature="0"
           style="fill:#000000;stroke-width:0" /><path
           id="path1122"
           d="m 2061.4,225.72 5.3,5.13 c 7.8,6.87 10.8,9.56 10.8,14.55 0,5.68 -4.5,9.67 -10.6,9.67 -5.6,0 -9.3,-4.6 -9.3,-9.03 0,-2.79 2.5,-2.79 2.6,-2.79 0.9,0 2.6,0.6 2.6,2.65 0,1.29 -0.9,2.59 -2.6,2.59 -0.4,0 -0.5,0 -0.7,-0.05 1.2,3.24 3.9,5.08 6.7,5.08 4.6,0 6.7,-4.05 6.7,-8.12 0,-3.99 -2.5,-7.93 -5.2,-11.02 l -9.6,-10.66 c -0.5,-0.54 -0.5,-0.64 -0.5,-1.84 h 18.5 l 1.4,8.67 h -1.3 c -0.2,-1.5 -0.6,-3.69 -1.1,-4.44 -0.3,-0.39 -3.6,-0.39 -4.7,-0.39 z"
           inkscape:connector-curvature="0"
           style="fill:#000000;stroke-width:0" /><path
           id="path1124"
           d="m 2094.4,234.33 v 0.37 0.39 0.39 0.41 0.84 l -0.1,0.88 -0.1,0.92 -0.1,0.95 -0.1,0.97 -0.2,1.01 -0.2,1.02 -0.2,1.03 -0.3,1.05 -0.3,1.06 -0.3,1.07 -0.4,1.07 -0.2,0.53 -0.3,0.53 -0.2,0.53 -0.3,0.53 c -2.9,6.12 -7.2,9.36 -7.7,9.36 -0.3,0 -0.5,-0.19 -0.5,-0.49 0,-0.15 0,-0.25 0.9,-1.15 4.9,-4.92 7.8,-12.85 7.8,-23.27 0,-8.51 -1.9,-17.28 -8.1,-23.56 -0.6,-0.59 -0.6,-0.7 -0.6,-0.84 0,-0.3 0.2,-0.5 0.5,-0.5 0.5,0 5,3.39 7.9,9.72 2.5,5.46 3.1,11 3.1,15.18 z"
           inkscape:connector-curvature="0"
           style="fill:#000000;stroke-width:0" /><path
           id="path1126"
           d="m 715.25,121 -0.13,-0.01 -0.13,-0.01 -0.13,-0.02 -0.12,-0.03 -0.12,-0.03 -0.12,-0.04 -0.11,-0.04 -0.11,-0.04 -0.11,-0.05 -0.1,-0.06 -0.1,-0.06 -0.1,-0.06 -0.09,-0.07 -0.09,-0.07 -0.09,-0.07 -0.08,-0.08 -0.07,-0.08 -0.08,-0.08 -0.07,-0.09 -0.06,-0.08 -0.06,-0.09 -0.05,-0.1 -0.05,-0.09 -0.05,-0.1 -0.04,-0.09 -0.03,-0.1 -0.04,-0.1 -0.02,-0.1 -0.02,-0.1 -0.01,-0.11 -0.01,-0.1 -0.01,-0.1 c 0,-0.7 0.44,-1.44 1.55,-1.44 1.1,0 2.28,0.85 2.28,2.78 0,2.25 -2.14,4.29 -5.92,4.29 -6.58,0 -8.42,-5.08 -8.42,-7.27 0,-3.89 3.69,-4.64 5.13,-4.94 2.59,-0.5 5.18,-1.05 5.18,-3.78 0,-1.3 -1.14,-5.48 -7.12,-5.48 -0.71,0 -4.53,0 -5.69,2.64 1.91,-0.25 3.14,1.25 3.14,2.64 0,1.14 -0.8,1.75 -1.84,1.75 -1.3,0 -2.79,-1.05 -2.79,-3.3 0,-2.84 2.85,-4.83 7.13,-4.83 8.06,0 10.02,6.03 10.02,8.27 0,1.8 -0.96,3.04 -1.55,3.64 -1.35,1.39 -2.8,1.64 -4.98,2.09 -1.8,0.39 -3.79,0.75 -3.79,2.99 0,1.45 1.19,4.48 5.58,4.48 1.24,0 3.74,-0.34 4.49,-2.28 z"
           inkscape:connector-curvature="0"
           style="fill:#000000;stroke-width:0" /><path
           id="path1128"
           d="m 735.65,90.406 -0.01,0.026 v 0.027 0.014 0.014 0.015 l -0.01,0.016 v 0.017 l -0.01,0.017 -0.01,0.019 -0.01,0.021 -0.01,0.022 -0.02,0.023 -0.01,0.025 -0.02,0.027 -0.02,0.03 -0.03,0.031 -0.02,0.034 -0.03,0.036 -0.02,0.019 -0.01,0.02 -0.02,0.021 -0.02,0.021 -0.02,0.022 -0.02,0.022 -0.02,0.024 -0.02,0.024 -0.02,0.025 -0.03,0.026 -0.02,0.026 -0.03,0.028 -0.02,0.028 -0.03,0.029 -0.03,0.03 -0.03,0.032 -0.03,0.032 -0.03,0.032 -0.04,0.034 -0.03,0.035 -0.04,0.036 -0.03,0.037 -0.04,0.038 -0.04,0.039 c -6.22,6.281 -7.81,15.69 -7.81,23.31 0,8.67 1.89,17.35 8.01,23.57 0.65,0.6 0.65,0.7 0.65,0.85 0,0.35 -0.19,0.49 -0.49,0.49 -0.5,0 -4.98,-3.38 -7.92,-9.7 -2.55,-5.49 -3.14,-11.02 -3.14,-15.21 0,-3.89 0.55,-9.9 3.28,-15.544 2.98,-6.125 7.28,-9.36 7.78,-9.36 0.3,0 0.49,0.141 0.49,0.5 z"
           inkscape:connector-curvature="0"
           style="fill:#000000;stroke-width:0" /><path
           id="path1130"
           d="m 755.12,117.41 0.03,0.13 0.03,0.15 0.04,0.16 0.05,0.18 0.05,0.19 0.06,0.21 0.07,0.22 0.07,0.22 0.08,0.23 0.09,0.24 0.09,0.25 0.11,0.24 0.11,0.25 0.12,0.25 0.13,0.25 0.13,0.25 0.15,0.24 0.16,0.24 0.17,0.23 0.17,0.22 0.19,0.22 0.2,0.2 0.21,0.19 0.22,0.18 0.23,0.16 0.25,0.14 0.12,0.07 0.13,0.06 0.13,0.05 0.14,0.05 0.14,0.05 0.14,0.04 0.15,0.03 0.15,0.03 0.15,0.02 0.15,0.02 0.16,0.01 h 0.16 c 0.25,0 1.44,0 2.49,-0.64 -1.39,-0.25 -2.39,-1.5 -2.39,-2.69 0,-0.79 0.55,-1.75 1.89,-1.75 1.09,0 2.69,0.89 2.69,2.89 0,2.6 -2.94,3.29 -4.63,3.29 -2.89,0 -4.64,-2.65 -5.23,-3.79 -1.25,3.29 -3.94,3.79 -5.38,3.79 -5.19,0 -8.03,-6.43 -8.03,-7.68 0,-0.5 0.5,-0.5 0.61,-0.5 0.39,0 0.55,0.11 0.64,0.55 1.69,5.28 4.99,6.53 6.67,6.53 0.96,0 2.69,-0.44 2.69,-3.33 0,-1.54 -0.84,-4.89 -2.69,-11.86 -0.79,-3.09 -2.53,-5.18 -4.73,-5.18 -0.3,0 -1.44,0 -2.49,0.65 1.25,0.24 2.35,1.28 2.35,2.69 0,1.34 -1.1,1.73 -1.85,1.73 -1.5,0 -2.75,-1.29 -2.75,-2.89 0,-2.28 2.5,-3.28 4.69,-3.28 3.3,0 5.08,3.49 5.24,3.78 0.59,-1.84 2.39,-3.78 5.37,-3.78 5.14,0 7.99,6.42 7.99,7.67 0,0.5 -0.46,0.5 -0.61,0.5 -0.44,0 -0.55,-0.2 -0.64,-0.54 -1.65,-5.33 -5.04,-6.53 -6.63,-6.53 -1.95,0 -2.75,1.59 -2.75,3.29 0,1.1 0.3,2.19 0.86,4.38 z"
           inkscape:connector-curvature="0"
           style="fill:#000000;stroke-width:0" /><path
           id="path1132"
           d="m 777.02,102.41 v 0.3 l -0.01,0.3 -0.02,0.29 -0.02,0.28 -0.04,0.27 -0.03,0.26 -0.05,0.26 -0.05,0.24 -0.06,0.24 -0.06,0.23 -0.07,0.22 -0.08,0.21 -0.08,0.2 -0.09,0.19 -0.1,0.19 -0.1,0.17 -0.1,0.16 -0.12,0.16 -0.11,0.14 -0.13,0.13 -0.13,0.13 -0.13,0.11 -0.14,0.1 -0.14,0.1 -0.15,0.08 -0.15,0.07 -0.16,0.06 -0.17,0.05 -0.16,0.04 -0.18,0.03 -0.17,0.02 h -0.18 c -1.64,0 -2.64,-1.25 -2.64,-2.64 0,-1.34 1,-2.64 2.64,-2.64 0.59,0 1.25,0.2 1.75,0.64 0.14,0.11 0.2,0.16 0.25,0.16 0.04,0 0.09,-0.05 0.09,-0.75 0,-3.691 -1.73,-6.676 -3.39,-8.316 -0.55,-0.547 -0.55,-0.656 -0.55,-0.797 0,-0.359 0.25,-0.547 0.5,-0.547 0.55,0 4.53,3.828 4.53,9.66 z"
           inkscape:connector-curvature="0"
           style="fill:#000000;stroke-width:0" /><path
           id="path1134"
           d="m 813.21,121.34 0.01,0.04 v 0.03 l 0.02,0.06 0.02,0.05 0.01,0.06 0.01,0.05 0.01,0.04 0.02,0.05 0.01,0.04 0.01,0.04 v 0.04 l 0.01,0.04 0.01,0.04 0.01,0.03 v 0.03 l 0.01,0.03 v 0.03 l 0.01,0.03 v 0.03 l 0.01,0.05 v 0.06 0.05 0.05 0.05 0.03 0.03 l 0.01,0.03 v 0.03 c 0,0.91 -0.69,1.35 -1.44,1.35 -0.5,0 -1.3,-0.3 -1.75,-1.05 -0.1,-0.25 -0.5,-1.78 -0.69,-2.69 -0.36,-1.29 -0.7,-2.64 -1,-3.98 l -2.25,-8.97 c -0.19,-0.75 -2.33,-4.23 -5.62,-4.23 -2.54,0 -3.1,2.18 -3.1,4.03 0,2.29 0.86,5.39 2.55,9.76 0.8,2.05 1,2.6 1,3.6 0,2.23 -1.6,4.08 -4.1,4.08 -4.73,0 -6.57,-7.22 -6.57,-7.68 0,-0.5 0.5,-0.5 0.6,-0.5 0.5,0 0.55,0.11 0.8,0.91 1.35,4.69 3.33,6.17 5.03,6.17 0.39,0 1.25,0 1.25,-1.59 0,-1.25 -0.5,-2.53 -0.86,-3.49 -1.98,-5.28 -2.89,-8.12 -2.89,-10.47 0,-4.42 3.14,-5.92 6.08,-5.92 1.96,0 3.64,0.85 5.03,2.24 -0.64,-2.58 -1.23,-5.034 -3.23,-7.675 -1.3,-1.687 -3.19,-3.141 -5.49,-3.141 -0.68,0 -2.93,0.157 -3.78,2.094 0.8,0 1.46,0 2.14,0.61 0.5,0.437 1,1.093 1,2.031 0,1.547 -1.34,1.75 -1.84,1.75 -1.14,0 -2.8,-0.797 -2.8,-3.235 0,-2.5 2.21,-4.343 5.28,-4.343 5.15,0 10.27,4.547 11.68,10.169 z"
           inkscape:connector-curvature="0"
           style="fill:#000000;stroke-width:0" /><path
           id="path1136"
           d="m 829.66,114.81 -0.01,0.37 v 0.39 l -0.01,0.39 -0.01,0.41 -0.04,0.84 -0.06,0.88 -0.08,0.92 -0.11,0.95 -0.14,0.97 -0.16,1.01 -0.2,1.02 -0.23,1.03 -0.26,1.05 -0.31,1.06 -0.35,1.07 -0.39,1.07 -0.21,0.53 -0.23,0.53 -0.24,0.53 -0.24,0.53 c -2.99,6.12 -7.27,9.36 -7.77,9.36 -0.3,0 -0.5,-0.19 -0.5,-0.49 0,-0.15 0,-0.25 0.94,-1.15 4.89,-4.92 7.73,-12.85 7.73,-23.27 0,-8.51 -1.84,-17.279 -8.03,-23.56 -0.64,-0.594 -0.64,-0.703 -0.64,-0.844 0,-0.297 0.2,-0.5 0.5,-0.5 0.5,0 4.97,3.391 7.92,9.719 2.53,5.465 3.13,10.995 3.13,15.185 z"
           inkscape:connector-curvature="0"
           style="fill:#000000;stroke-width:0" /><path
           id="path1138"
           d="m 918.74,118.66 h 0.14 0.14 0.15 l 0.07,0.01 h 0.07 l 0.07,0.01 0.08,0.01 0.07,0.01 0.07,0.01 0.06,0.01 0.07,0.02 0.06,0.02 0.07,0.02 0.06,0.02 0.06,0.03 0.05,0.03 0.06,0.04 0.05,0.03 0.04,0.05 0.05,0.04 0.04,0.05 0.01,0.03 0.02,0.03 0.02,0.02 0.01,0.03 0.02,0.04 0.01,0.03 0.01,0.03 0.01,0.04 0.01,0.03 0.01,0.04 0.01,0.04 0.01,0.04 v 0.04 0.04 l 0.01,0.05 v 0.04 c 0,1 -0.96,1 -1.65,1 h -29.84 c -0.7,0 -1.64,0 -1.64,-1 0,-0.98 0.94,-0.98 1.69,-0.98 z"
           inkscape:connector-curvature="0"
           style="fill:#000000;stroke-width:0" /><path
           id="path1140"
           d="m 918.78,108.98 h 0.07 0.07 l 0.13,0.01 h 0.14 0.07 l 0.07,0.01 0.07,0.01 h 0.07 l 0.07,0.01 0.07,0.02 0.06,0.01 0.07,0.02 0.06,0.02 0.06,0.02 0.06,0.02 0.06,0.03 0.06,0.03 0.05,0.04 0.05,0.04 0.04,0.04 0.05,0.05 0.02,0.02 0.02,0.03 0.01,0.02 0.02,0.03 0.02,0.03 0.01,0.03 0.02,0.03 0.01,0.03 0.01,0.04 0.01,0.03 0.01,0.04 0.01,0.04 0.01,0.04 0.01,0.04 v 0.04 0.04 l 0.01,0.05 v 0.04 c 0,1 -0.96,1 -1.69,1 h -29.75 c -0.75,0 -1.69,0 -1.69,-1 0,-1 0.94,-1 1.64,-1 z"
           inkscape:connector-curvature="0"
           style="fill:#000000;stroke-width:0" /><path
           id="path1142"
           d="m 995.55,96.41 -0.01,0.523 -0.04,0.538 -0.05,0.553 -0.08,0.567 -0.1,0.579 -0.13,0.589 -0.15,0.601 -0.17,0.61 -0.19,0.61 -0.22,0.62 -0.25,0.62 -0.27,0.63 -0.29,0.63 -0.32,0.63 -0.34,0.63 -0.37,0.63 -0.39,0.62 -0.42,0.62 -0.44,0.62 -0.47,0.6 -0.5,0.6 -0.53,0.59 -0.54,0.58 -0.58,0.57 -0.61,0.55 -0.63,0.54 -0.65,0.52 -0.69,0.51 -0.72,0.48 -0.74,0.47 -0.77,0.44 -0.8,0.43 c 5.38,2.89 11.82,8.72 12.41,18.03 l 0.05,0.3 v 34.53 c 0,4.08 0,4.98 0.4,6.87 0.89,3.99 3.28,8.92 9.65,12.66 0.4,0.25 0.4,0.3 0.4,1.19 0,1.09 0,1.15 -1.1,1.15 -0.9,0 -1,0 -2.4,-0.79 -11.14,-6.33 -11.78,-15.6 -11.78,-17.35 v -35.42 c 0,-3.59 0,-7.63 -2.6,-12.2 -2.29,-4.1 -4.98,-6.14 -7.12,-7.58 -0.7,-0.46 -0.75,-0.5 -0.75,-1.35 0,-0.9 0.05,-0.95 0.45,-1.2 4.24,-2.78 8.77,-7.22 9.86,-15.343 0.16,-1.094 0.16,-1.187 0.16,-1.797 V 58.16 c 0,-4.047 2.48,-12.406 12.08,-17.5 1.2,-0.64 1.3,-0.64 2.1,-0.64 1.1,0 1.1,0.046 1.1,1.14 0,0.906 0,0.953 -0.2,1.047 -2.2,1.344 -8.71,5.281 -10.05,13.953 -0.2,1.297 -0.2,1.391 -0.2,2.047 z"
           inkscape:connector-curvature="0"
           style="fill:#000000;stroke-width:0" /><path
           id="path1144"
           d="m 1033.5,147.77 h 13.9 c 0.7,0 1.7,0 1.7,1 0,1 -1,1 -1.7,1 h -13.9 v 13.96 c 0,0.68 0,1.64 -1,1.64 -0.9,0 -0.9,-0.96 -0.9,-1.64 v -13.96 h -14 c -0.7,0 -1.6,0 -1.6,-1 0,-1 0.9,-1 1.6,-1 h 14 v -13.93 c 0,-0.71 0,-1.66 0.9,-1.66 1,0 1,0.95 1,1.66 z"
           inkscape:connector-curvature="0"
           style="fill:#000000;stroke-width:0" /><path
           id="path1146"
           d="m 1066.6,168.21 v 0.06 0.05 0.05 0.05 0.05 0.05 0.04 0.05 0.04 0.04 0.04 0.04 0.04 l -0.1,0.04 v 0.03 0.03 0.07 0.06 0.05 0.05 0.05 0.04 l -0.1,0.04 v 0.03 0.04 0.02 l -0.1,0.03 v 0.02 l -0.1,0.02 v 0.01 0.01 0 l -0.1,0.01 v 0.01 0 l -0.1,0.01 v 0 0.01 h -0.1 v 0 0.01 h -0.1 v 0 0 h -0.1 v 0.01 h -0.1 v 0 h -0.1 v 0 h -0.1 c -3.1,-3.19 -7.5,-3.19 -9,-3.19 v -1.55 c 1,0 3.9,0 6.5,1.3 v -25.81 c 0,-1.8 -0.2,-2.39 -4.7,-2.39 h -1.5 v -1.55 c 1.7,0.16 6,0.16 8,0.16 2,0 6.3,0 8.1,-0.16 v 1.55 h -1.6 c -4.5,0 -4.6,0.54 -4.6,2.39 z"
           inkscape:connector-curvature="0"
           style="fill:#000000;stroke-width:0" /><path
           id="path1148"
           d="m 1135.5,158.34 -7,-0.55 v -1.55 c 3.3,0 3.7,-0.29 3.7,-2.73 V 140.1 c 0,-2.23 -0.5,-2.23 -3.9,-2.23 v -1.55 c 1.6,0.05 4.3,0.16 5.5,0.16 1.8,0 3.5,-0.11 5.2,-0.16 v 1.55 c -3.3,0 -3.5,0.25 -3.5,2.18 z"
           inkscape:connector-curvature="0"
           style="fill:#000000;stroke-width:0" /><path
           id="path1150"
           d="m 1135.7,167.01 v 0.15 0.14 0.14 l -0.1,0.14 v 0.13 0.13 l -0.1,0.13 v 0.12 l -0.1,0.12 v 0.12 l -0.1,0.11 -0.1,0.1 -0.1,0.11 v 0.09 l -0.1,0.1 -0.1,0.09 -0.1,0.08 -0.1,0.08 -0.1,0.07 -0.1,0.07 -0.1,0.07 -0.1,0.06 -0.1,0.05 -0.2,0.05 -0.1,0.04 -0.1,0.04 -0.1,0.03 -0.1,0.03 -0.2,0.02 -0.1,0.02 h -0.1 l -0.1,0.01 c -1.6,0 -2.7,-1.35 -2.7,-2.64 0,-1.35 1.1,-2.64 2.7,-2.64 1.3,0 2.6,1.04 2.6,2.64 z"
           inkscape:connector-curvature="0"
           style="fill:#000000;stroke-width:0" /><path
           id="path1152"
           d="m 1149.2,157.79 v 5.78 c 0,4.39 2.4,6.78 4.6,6.78 0.1,0 0.9,0 1.6,-0.36 -0.6,-0.19 -1.5,-0.84 -1.5,-2.08 0,-1.15 0.8,-2.15 2.2,-2.15 1.4,0 2.1,1 2.1,2.2 0,1.84 -1.8,3.49 -4.4,3.49 -3.5,0 -7.7,-2.65 -7.7,-7.93 v -5.73 h -4 v -1.55 h 4 V 140.1 c 0,-2.23 -0.6,-2.23 -3.9,-2.23 v -1.55 c 1.9,0.05 4.3,0.16 5.6,0.16 2,0 4.4,0 6.4,-0.16 v 1.55 h -1.1 c -3.7,0 -3.8,0.54 -3.8,2.34 v 16.03 h 5.7 v 1.55 z"
           inkscape:connector-curvature="0"
           style="fill:#000000;stroke-width:0" /><path
           id="path1154"
           d="m 1188.9,151.37 v 0.13 l 0.1,0.15 v 0.16 l 0.1,0.18 v 0.2 l 0.1,0.2 v 0.22 l 0.1,0.22 0.1,0.24 0.1,0.23 0.1,0.25 0.1,0.25 0.1,0.25 0.1,0.25 0.1,0.24 0.2,0.25 0.1,0.24 0.2,0.24 0.2,0.23 0.1,0.23 0.2,0.21 0.2,0.2 0.2,0.19 0.2,0.18 0.3,0.16 0.2,0.14 0.1,0.07 0.2,0.06 0.1,0.05 0.1,0.05 0.2,0.05 0.1,0.04 0.2,0.03 0.1,0.03 0.2,0.02 0.1,0.02 0.2,0.01 h 0.1 c 0.3,0 1.5,0 2.5,-0.64 -1.4,-0.25 -2.4,-1.5 -2.4,-2.69 0,-0.79 0.6,-1.75 1.9,-1.75 1.1,0 2.7,0.89 2.7,2.89 0,2.6 -2.9,3.29 -4.6,3.29 -2.9,0 -4.7,-2.64 -5.2,-3.79 -1.3,3.29 -4,3.79 -5.4,3.79 -5.2,0 -8.1,-6.43 -8.1,-7.68 0,-0.5 0.6,-0.5 0.7,-0.5 0.3,0 0.5,0.11 0.6,0.55 1.7,5.28 5,6.53 6.7,6.53 0.9,0 2.7,-0.44 2.7,-3.33 0,-1.54 -0.9,-4.89 -2.7,-11.86 -0.8,-3.09 -2.6,-5.18 -4.8,-5.18 -0.3,0 -1.4,0 -2.4,0.65 1.2,0.24 2.3,1.28 2.3,2.69 0,1.34 -1.1,1.74 -1.8,1.74 -1.5,0 -2.8,-1.3 -2.8,-2.9 0,-2.28 2.5,-3.28 4.7,-3.28 3.3,0 5.1,3.49 5.2,3.78 0.6,-1.84 2.4,-3.78 5.4,-3.78 5.1,0 8,6.43 8,7.68 0,0.5 -0.5,0.5 -0.6,0.5 -0.5,0 -0.6,-0.21 -0.7,-0.55 -1.6,-5.33 -5,-6.53 -6.6,-6.53 -1.9,0 -2.7,1.59 -2.7,3.29 0,1.1 0.3,2.19 0.8,4.38 z"
           inkscape:connector-curvature="0"
           style="fill:#000000;stroke-width:0" /><path
           id="path1156"
           d="m 1248.9,152.62 h 0.1 0.1 0.2 l 0.1,0.01 v 0 l 0.1,0.01 0.1,0.01 0.1,0.01 v 0.01 l 0.1,0.01 0.1,0.02 v 0.02 l 0.1,0.02 v 0.02 l 0.1,0.03 0.1,0.03 v 0.04 l 0.1,0.04 v 0.04 l 0.1,0.04 v 0.05 0.03 0.03 0.03 l 0.1,0.03 v 0.03 0.03 0.03 0.04 0.03 0.04 0.04 0.04 0.04 0.04 0.05 l 0.1,0.04 c 0,1 -1,1 -1.7,1 h -29.8 c -0.7,0 -1.7,0 -1.7,-1 0,-0.98 1,-0.98 1.7,-0.98 z"
           inkscape:connector-curvature="0"
           style="fill:#000000;stroke-width:0" /><path
           id="path1158"
           d="m 1248.9,142.95 h 0.1 v 0 h 0.2 0.1 l 0.1,0.01 h 0.1 v 0.01 l 0.1,0.01 0.1,0.01 V 143 l 0.1,0.01 0.1,0.02 v 0.02 l 0.1,0.02 v 0.02 l 0.1,0.03 0.1,0.03 v 0.04 l 0.1,0.04 v 0.04 l 0.1,0.05 v 0.02 0.03 0.02 0.03 0.03 l 0.1,0.03 v 0.03 0.04 0.03 0.03 0.04 0.04 0.04 0.04 0.04 0.04 0.05 l 0.1,0.05 c 0,1 -1,1 -1.7,1 h -29.8 c -0.7,0 -1.7,0 -1.7,-1 0,-1 1,-1 1.7,-1 z"
           inkscape:connector-curvature="0"
           style="fill:#000000;stroke-width:0" /><path
           id="path1160"
           d="m 1291.4,155.3 v 0.04 0.03 0.06 0.05 l 0.1,0.06 v 0.05 0.05 0.04 0.04 0.05 0.03 0.04 0.04 l 0.1,0.03 v 0.03 0.03 0.03 0.03 0.03 0.05 0.06 0.05 0.05 0.06 0.02 0.03 0.03 0.04 c 0,0.9 -0.7,1.34 -1.4,1.34 -0.5,0 -1.3,-0.3 -1.8,-1.05 -0.1,-0.25 -0.5,-1.78 -0.7,-2.69 -0.3,-1.29 -0.7,-2.64 -1,-3.98 l -2.2,-8.97 c -0.2,-0.75 -2.4,-4.23 -5.7,-4.23 -2.5,0 -3,2.18 -3,4.03 0,2.3 0.8,5.39 2.5,9.76 0.8,2.05 1,2.6 1,3.6 0,2.23 -1.6,4.08 -4.1,4.08 -4.7,0 -6.6,-7.22 -6.6,-7.68 0,-0.5 0.5,-0.5 0.6,-0.5 0.5,0 0.6,0.11 0.8,0.91 1.4,4.69 3.4,6.17 5.1,6.17 0.3,0 1.2,0 1.2,-1.59 0,-1.25 -0.5,-2.53 -0.9,-3.49 -1.9,-5.28 -2.8,-8.12 -2.8,-10.46 0,-4.43 3.1,-5.93 6,-5.93 2,0 3.7,0.85 5.1,2.24 -0.7,-2.58 -1.3,-5.03 -3.3,-7.67 -1.3,-1.69 -3.2,-3.15 -5.5,-3.15 -0.6,0 -2.9,0.16 -3.7,2.1 0.8,0 1.4,0 2.1,0.61 0.5,0.44 1,1.09 1,2.03 0,1.55 -1.3,1.75 -1.8,1.75 -1.2,0 -2.8,-0.8 -2.8,-3.23 0,-2.51 2.2,-4.35 5.2,-4.35 5.2,0 10.3,4.55 11.7,10.17 z"
           inkscape:connector-curvature="0"
           style="fill:#000000;stroke-width:0" /><path
           id="path1162"
           d="m 1036.1,80.496 v 0.747 0.747 l -0.1,0.747 v 0.745 0.744 l -0.1,0.741 -0.1,0.739 -0.1,0.735 -0.1,0.732 -0.1,0.728 -0.2,0.723 -0.2,0.718 -0.2,0.713 -0.2,0.706 -0.3,0.699 -0.2,0.347 -0.1,0.345 c -2.3,4.797 -6.4,5.594 -8.5,5.594 -3,0 -6.6,-1.297 -8.7,-5.937 -1.6,-3.438 -1.8,-7.329 -1.8,-11.313 0,-3.734 0.2,-8.219 2.2,-12 2.2,-4.031 5.8,-5.031 8.3,-5.031 v 1.094 c -2,0 -4.9,1.25 -5.8,6.031 -0.6,2.984 -0.6,7.562 -0.6,10.515 0,3.188 0,6.469 0.4,9.157 1,5.937 4.7,6.375 6,6.375 1.6,0 4.9,-0.891 5.8,-5.828 0.5,-2.782 0.5,-6.579 0.5,-9.704 0,-3.75 0,-7.125 -0.5,-10.312 -0.8,-4.734 -3.6,-6.234 -5.8,-6.234 v 0 -1.094 c 2.6,0 6.4,1.047 8.6,5.781 1.6,3.438 1.9,7.313 1.9,11.25 z"
           inkscape:connector-curvature="0"
           style="fill:#000000;stroke-width:0" /><path
           id="path1164"
           d="m 1132.2,76.074 v 1.047 c 0.4,7.422 4.5,8.656 6.2,8.656 5.2,0 5.7,-6.718 5.7,-8.656 h -11.9 v -1.047 h 13.9 c 1.1,0 1.2,0 1.2,1.047 0,4.922 -2.6,9.75 -8.9,9.75 -5.7,0 -10.3,-5.125 -10.3,-11.359 0,-6.672 5.2,-11.5 10.9,-11.5 6.1,0 8.3,5.531 8.3,6.468 0,0.5 -0.3,0.61 -0.6,0.61 -0.5,0 -0.5,-0.297 -0.6,-0.703 -1.8,-5.125 -6.3,-5.125 -6.8,-5.125 -2.5,0 -4.5,1.484 -5.6,3.328 -1.5,2.39 -1.5,5.687 -1.5,7.484 z"
           inkscape:connector-curvature="0"
           style="fill:#000000;stroke-width:0" /><path
           id="path1166"
           d="m 1157.6,99.137 -7.2,-0.547 v -1.547 c 3.5,0 3.9,-0.344 3.9,-2.797 V 68.34 c 0,-2.235 -0.6,-2.235 -3.9,-2.235 v -1.546 c 1.6,0.046 4.3,0.156 5.5,0.156 1.3,0 3.7,-0.11 5.6,-0.156 v 1.546 c -3.4,0 -3.9,0 -3.9,2.235 z"
           inkscape:connector-curvature="0"
           style="fill:#000000;stroke-width:0" /><path
           id="path1168"
           d="m 1172.9,74.23 0.1,-0.02 0.1,-0.025 0.2,-0.029 0.1,-0.034 0.2,-0.039 0.2,-0.044 0.2,-0.05 0.2,-0.057 0.2,-0.063 0.2,-0.07 0.2,-0.078 0.2,-0.086 0.3,-0.094 0.2,-0.103 0.2,-0.111 0.2,-0.122 0.2,-0.131 0.2,-0.142 0.2,-0.152 0.2,-0.164 0.2,-0.175 0.2,-0.187 0.2,-0.2 0.1,-0.212 0.2,-0.225 0.1,-0.118 v -0.121 l 0.1,-0.125 v -0.128 l 0.1,-0.132 v -0.135 l 0.1,-0.14 v -0.142 -0.147 l 0.1,-0.151 v -0.154 -0.159 -0.162 -0.166 c 0,-2.532 -1.8,-4.532 -5.6,-4.532 -4.2,0 -6,2.844 -7,7.079 -0.1,0.64 -0.2,0.843 -0.7,0.843 -0.6,0 -0.6,-0.343 -0.6,-1.25 v -6.578 c 0,-0.844 0,-1.187 0.5,-1.187 0.3,0 0.3,0.047 1.3,1 0.1,0.093 0.1,0.187 1,1.14 2.2,-2.093 4.4,-2.14 5.5,-2.14 5.7,0 8,3.343 8,6.922 0,2.64 -1.5,4.14 -2.1,4.734 -1.6,1.594 -3.6,2 -5.7,2.391 -2.8,0.546 -6.1,1.203 -6.1,4.093 0,1.735 1.3,3.782 5.6,3.782 5.4,0 5.7,-4.485 5.8,-6.032 0.1,-0.453 0.5,-0.453 0.6,-0.453 0.6,0 0.6,0.25 0.6,1.203 v 5.032 c 0,0.843 0,1.187 -0.5,1.187 -0.3,0 -0.4,0 -1,-0.594 -0.1,-0.203 -0.6,-0.64 -0.9,-0.797 -1.8,1.391 -3.9,1.391 -4.6,1.391 -6.1,0 -8,-3.328 -8,-6.125 0,-1.734 0.8,-3.141 2.1,-4.234 1.6,-1.297 3,-1.594 6.6,-2.282 z"
           inkscape:connector-curvature="0"
           style="fill:#000000;stroke-width:0" /><path
           id="path1170"
           d="m 1187.8,76.074 v 1.047 c 0.3,7.422 4.5,8.656 6.2,8.656 5.1,0 5.6,-6.718 5.6,-8.656 h -11.8 v -1.047 h 13.9 c 1.1,0 1.2,0 1.2,1.047 0,4.922 -2.7,9.75 -8.9,9.75 -5.8,0 -10.4,-5.125 -10.4,-11.359 0,-6.672 5.3,-11.5 11,-11.5 6.1,0 8.3,5.531 8.3,6.468 0,0.5 -0.4,0.61 -0.6,0.61 -0.5,0 -0.6,-0.297 -0.7,-0.703 -1.7,-5.125 -6.2,-5.125 -6.7,-5.125 -2.5,0 -4.5,1.484 -5.6,3.328 -1.5,2.39 -1.5,5.687 -1.5,7.484 z"
           inkscape:connector-curvature="0"
           style="fill:#000000;stroke-width:0" /><path
           id="path1172"
           d="m 1383.7,121.19 v 0.13 0.14 l -0.1,0.13 v 0.13 0.13 0.12 l -0.1,0.12 v 0.12 l -0.1,0.12 v 0.11 l -0.1,0.11 -0.1,0.11 v 0.11 l -0.1,0.1 -0.1,0.09 -0.1,0.09 -0.1,0.09 -0.1,0.08 -0.1,0.08 -0.1,0.08 -0.1,0.06 -0.1,0.07 -0.1,0.06 -0.1,0.05 -0.2,0.05 -0.1,0.04 -0.1,0.03 -0.1,0.03 -0.2,0.03 -0.1,0.01 -0.1,0.01 -0.2,0.01 c -1.4,0 -2.6,-1.19 -2.6,-2.64 0,-1.44 1.2,-2.64 2.6,-2.64 1.5,0 2.7,1.2 2.7,2.64 z"
           inkscape:connector-curvature="0"
           style="fill:#000000;stroke-width:0" /><path
           id="path1174"
           d="m 1383.7,105 v 0.13 0.14 l -0.1,0.13 v 0.13 0.12 0.13 l -0.1,0.12 v 0.12 l -0.1,0.12 v 0.11 l -0.1,0.11 -0.1,0.11 v 0.1 l -0.1,0.1 -0.1,0.1 -0.1,0.09 -0.1,0.09 -0.1,0.08 -0.1,0.08 -0.1,0.07 -0.1,0.07 -0.1,0.07 -0.1,0.06 -0.1,0.05 -0.2,0.05 -0.1,0.04 -0.1,0.04 -0.1,0.03 -0.2,0.02 -0.1,0.02 -0.1,0.01 h -0.2 c -1.4,0 -2.6,-1.2 -2.6,-2.64 0,-1.44 1.2,-2.64 2.6,-2.64 1.5,0 2.7,1.2 2.7,2.64 z"
           inkscape:connector-curvature="0"
           style="fill:#000000;stroke-width:0" /><path
           id="path1176"
           d="m 1420.4,112.03 0.1,-0.02 0.1,-0.02 0.1,-0.03 0.2,-0.04 0.2,-0.04 0.1,-0.04 0.2,-0.05 0.2,-0.06 0.2,-0.06 0.2,-0.07 0.3,-0.08 0.2,-0.08 0.2,-0.1 0.2,-0.1 0.2,-0.11 0.3,-0.12 0.2,-0.14 0.2,-0.14 0.2,-0.15 0.2,-0.16 0.2,-0.18 0.2,-0.19 0.1,-0.19 0.2,-0.22 0.1,-0.22 0.1,-0.12 0.1,-0.12 v -0.13 l 0.1,-0.12 v -0.14 l 0.1,-0.13 v -0.14 -0.14 l 0.1,-0.15 v -0.15 -0.15 -0.16 -0.17 -0.16 c 0,-2.53 -1.7,-4.53 -5.6,-4.53 -4.2,0 -6,2.84 -6.9,7.07 -0.2,0.64 -0.2,0.85 -0.7,0.85 -0.7,0 -0.7,-0.35 -0.7,-1.25 V 103 c 0,-0.84 0,-1.19 0.6,-1.19 0.2,0 0.3,0.05 1.2,1 0.1,0.1 0.1,0.19 1,1.14 2.2,-2.09 4.5,-2.14 5.5,-2.14 5.7,0 8,3.35 8,6.92 0,2.65 -1.5,4.15 -2.1,4.74 -1.6,1.59 -3.6,2 -5.6,2.39 -2.8,0.55 -6.2,1.2 -6.2,4.09 0,1.74 1.3,3.78 5.6,3.78 5.5,0 5.7,-4.48 5.8,-6.03 0.1,-0.45 0.5,-0.45 0.6,-0.45 0.7,0 0.7,0.25 0.7,1.2 v 5.03 c 0,0.85 0,1.19 -0.6,1.19 -0.2,0 -0.3,0 -1,-0.59 -0.1,-0.2 -0.6,-0.64 -0.8,-0.8 -1.9,1.39 -3.9,1.39 -4.7,1.39 -6.1,0 -8,-3.33 -8,-6.12 0,-1.74 0.8,-3.14 2.2,-4.24 1.6,-1.29 3,-1.59 6.6,-2.28 z"
           inkscape:connector-curvature="0"
           style="fill:#000000;stroke-width:0" /><path
           id="path1178"
           d="m 1438.5,124.38 -7,-0.55 v -1.55 c 3.3,0 3.7,-0.3 3.7,-2.73 v -13.41 c 0,-2.23 -0.5,-2.23 -3.9,-2.23 v -1.55 c 1.6,0.05 4.3,0.16 5.5,0.16 1.8,0 3.5,-0.11 5.2,-0.16 v 1.55 c -3.3,0 -3.5,0.25 -3.5,2.18 z"
           inkscape:connector-curvature="0"
           style="fill:#000000;stroke-width:0" /><path
           id="path1180"
           d="m 1438.7,133.05 v 0.14 0.15 0.14 l -0.1,0.14 v 0.13 0.13 l -0.1,0.13 v 0.12 l -0.1,0.12 v 0.12 l -0.1,0.11 -0.1,0.1 -0.1,0.11 v 0.09 l -0.1,0.1 -0.1,0.09 -0.1,0.08 -0.1,0.08 -0.1,0.07 -0.1,0.07 -0.1,0.07 -0.1,0.06 -0.1,0.05 -0.2,0.05 -0.1,0.04 -0.1,0.04 -0.1,0.03 -0.1,0.03 -0.2,0.02 -0.1,0.02 h -0.1 l -0.1,0.01 c -1.6,0 -2.7,-1.35 -2.7,-2.64 0,-1.35 1.1,-2.64 2.7,-2.64 1.3,0 2.6,1.04 2.6,2.64 z"
           inkscape:connector-curvature="0"
           style="fill:#000000;stroke-width:0" /><path
           id="path1182"
           d="m 1449,119.5 v -13.36 c 0,-2.23 -0.6,-2.23 -3.9,-2.23 v -1.55 c 1.7,0.05 4.2,0.16 5.6,0.16 1.3,0 3.9,-0.11 5.6,-0.16 v 1.55 c -3.4,0 -3.9,0 -3.9,2.23 v 9.17 c 0,5.19 3.5,7.97 6.7,7.97 3.1,0 3.7,-2.69 3.7,-5.53 v -11.61 c 0,-2.23 -0.6,-2.23 -3.9,-2.23 v -1.55 c 1.8,0.05 4.3,0.16 5.7,0.16 1.2,0 3.8,-0.11 5.5,-0.16 v 1.55 c -3.3,0 -3.9,0 -3.9,2.23 v 9.17 c 0,5.19 3.6,7.97 6.8,7.97 3.1,0 3.7,-2.69 3.7,-5.53 v -11.61 c 0,-2.23 -0.6,-2.23 -3.9,-2.23 v -1.55 c 1.7,0.05 4.3,0.16 5.6,0.16 1.3,0 3.9,-0.11 5.6,-0.16 v 1.55 c -2.6,0 -3.9,0 -3.9,1.5 v 9.51 c 0,4.28 0,5.83 -1.5,7.61 -0.8,0.86 -2.4,1.85 -5.3,1.85 -4.2,0 -6.4,-2.99 -7.2,-4.88 -0.7,4.33 -4.4,4.88 -6.6,4.88 -3.7,0 -6,-2.15 -7.4,-5.22 v 5.22 l -7,-0.55 v -1.55 c 3.5,0 3.9,-0.34 3.9,-2.78 z"
           inkscape:connector-curvature="0"
           style="fill:#000000;stroke-width:0" /><path
           id="path1184"
           d="m 1493.8,124.38 -7,-0.55 v -1.55 c 3.3,0 3.7,-0.3 3.7,-2.73 v -13.41 c 0,-2.23 -0.5,-2.23 -3.9,-2.23 v -1.55 c 1.6,0.05 4.3,0.16 5.5,0.16 1.8,0 3.5,-0.11 5.2,-0.16 v 1.55 c -3.3,0 -3.5,0.25 -3.5,2.18 z"
           inkscape:connector-curvature="0"
           style="fill:#000000;stroke-width:0" /><path
           id="path1186"
           d="m 1494,133.05 v 0.14 0.15 0.14 0.14 l -0.1,0.13 v 0.13 l -0.1,0.13 v 0.12 l -0.1,0.12 v 0.12 l -0.1,0.11 -0.1,0.1 v 0.11 l -0.1,0.09 -0.1,0.1 -0.1,0.09 -0.1,0.08 -0.1,0.08 -0.1,0.07 -0.1,0.07 -0.1,0.07 -0.1,0.06 -0.1,0.05 -0.1,0.05 -0.1,0.04 -0.2,0.04 -0.1,0.03 -0.1,0.03 -0.1,0.02 -0.2,0.02 h -0.1 l -0.1,0.01 c -1.6,0 -2.7,-1.35 -2.7,-2.64 0,-1.35 1.1,-2.64 2.7,-2.64 1.4,0 2.6,1.04 2.6,2.64 z"
           inkscape:connector-curvature="0"
           style="fill:#000000;stroke-width:0" /><path
           id="path1188"
           d="m 1507.6,136.94 -7.2,-0.55 v -1.55 c 3.5,0 3.9,-0.34 3.9,-2.79 v -25.91 c 0,-2.23 -0.5,-2.23 -3.9,-2.23 v -1.55 c 1.7,0.05 4.3,0.16 5.6,0.16 1.2,0 3.7,-0.11 5.5,-0.16 v 1.55 c -3.3,0 -3.9,0 -3.9,2.23 z"
           inkscape:connector-curvature="0"
           style="fill:#000000;stroke-width:0" /><path
           id="path1190"
           d="m 1529.2,106.14 v -0.19 -0.18 l 0.1,-0.19 v -0.18 l 0.1,-0.19 v -0.18 l 0.1,-0.18 v -0.18 l 0.1,-0.18 0.1,-0.17 0.1,-0.17 0.1,-0.17 0.1,-0.16 0.1,-0.16 0.1,-0.15 0.1,-0.15 0.1,-0.14 0.2,-0.14 0.1,-0.13 0.2,-0.12 0.1,-0.11 0.2,-0.11 0.1,-0.1 0.2,-0.09 0.2,-0.08 0.2,-0.07 0.1,-0.06 0.2,-0.05 0.2,-0.04 0.2,-0.03 0.3,-0.02 0.2,-0.01 c 1,0 4.1,0.71 4.1,4.74 v 2.78 h -1.3 v -2.78 c 0,-2.89 -1.2,-3.19 -1.8,-3.19 -1.6,0 -1.8,2.23 -1.8,2.48 v 9.97 c 0,2.1 0,4.03 -1.8,5.88 -2,1.94 -4.5,2.73 -6.8,2.73 -4.1,0 -7.6,-2.33 -7.6,-5.62 0,-1.49 1,-2.35 2.3,-2.35 1.4,0 2.3,1 2.3,2.3 0,0.59 -0.2,2.23 -2.5,2.3 1.3,1.73 3.7,2.28 5.3,2.28 2.5,0 5.3,-1.94 5.3,-6.38 v -1.84 -1.05 -4.98 c 0,-4.74 -3.6,-6.42 -5.8,-6.42 -2.4,0 -4.5,1.75 -4.5,4.23 0,2.74 2.1,6.88 10.3,7.17 v 0 1.05 c -2.5,-0.14 -6,-0.3 -9.1,-1.8 -3.8,-1.68 -5,-4.28 -5,-6.47 0,-4.03 4.8,-5.28 8,-5.28 3.2,0 5.5,1.99 6.5,4.33 z"
           inkscape:connector-curvature="0"
           style="fill:#000000;stroke-width:0" /><path
           id="path1192"
           d="m 1545.9,118.91 v 5.47 l -7,-0.55 v -1.55 c 3.5,0 3.9,-0.34 3.9,-2.78 v -13.36 c 0,-2.23 -0.5,-2.23 -3.9,-2.23 v -1.55 c 2,0.05 4.3,0.16 5.7,0.16 2,0 4.3,0 6.3,-0.16 v 1.55 h -1 c -3.7,0 -3.8,0.54 -3.8,2.34 v 7.67 c 0,4.92 2.1,9.36 5.9,9.36 0.3,0 0.4,0 0.5,-0.05 -0.1,-0.04 -1.1,-0.64 -1.1,-1.93 0,-1.41 1,-2.14 2.1,-2.14 0.9,0 2.2,0.59 2.2,2.18 0,1.6 -1.6,3.04 -3.7,3.04 -3.6,0 -5.4,-3.33 -6.1,-5.47 z"
           inkscape:connector-curvature="0"
           style="fill:#000000;stroke-width:0" /><path
           id="path1194"
           d="m 1565.9,124.38 -7,-0.55 v -1.55 c 3.3,0 3.7,-0.3 3.7,-2.73 v -13.41 c 0,-2.23 -0.5,-2.23 -3.9,-2.23 v -1.55 c 1.6,0.05 4.3,0.16 5.5,0.16 1.8,0 3.5,-0.11 5.2,-0.16 v 1.55 c -3.3,0 -3.5,0.25 -3.5,2.18 z"
           inkscape:connector-curvature="0"
           style="fill:#000000;stroke-width:0" /><path
           id="path1196"
           d="m 1566.1,133.05 v 0.14 0.15 0.14 0.14 l -0.1,0.13 v 0.13 0.13 l -0.1,0.12 -0.1,0.12 v 0.12 l -0.1,0.11 v 0.1 l -0.1,0.11 -0.1,0.09 -0.1,0.1 -0.1,0.09 -0.1,0.08 -0.1,0.08 -0.1,0.07 -0.1,0.07 -0.1,0.07 -0.1,0.06 -0.1,0.05 -0.1,0.05 -0.1,0.04 -0.2,0.04 -0.1,0.03 -0.1,0.03 -0.1,0.02 -0.2,0.02 h -0.1 l -0.1,0.01 c -1.6,0 -2.7,-1.35 -2.7,-2.64 0,-1.35 1.1,-2.64 2.7,-2.64 1.4,0 2.6,1.04 2.6,2.64 z"
           inkscape:connector-curvature="0"
           style="fill:#000000;stroke-width:0" /><path
           id="path1198"
           d="m 1579.5,122.28 h 7.2 v 1.55 h -7.2 V 133 h -1.2 c -0.1,-4.08 -1.6,-9.42 -6.5,-9.61 v -1.11 h 4.3 v -13.75 c 0,-6.12 4.6,-6.72 6.4,-6.72 3.5,0 4.9,3.53 4.9,6.72 v 2.85 h -1.2 v -2.74 c 0,-3.69 -1.5,-5.58 -3.4,-5.58 -3.3,0 -3.3,4.53 -3.3,5.38 z"
           inkscape:connector-curvature="0"
           style="fill:#000000;stroke-width:0" /><path
           id="path1200"
           d="m 1609.4,119.09 0.1,0.15 0.1,0.14 v 0.14 l 0.1,0.13 0.1,0.12 v 0.13 l 0.1,0.12 0.1,0.11 0.1,0.22 0.2,0.2 0.1,0.19 0.2,0.18 0.2,0.16 0.1,0.14 0.2,0.14 0.2,0.12 0.1,0.11 0.2,0.1 0.2,0.09 0.2,0.08 0.1,0.08 0.2,0.06 0.2,0.05 0.1,0.05 0.2,0.04 0.1,0.03 0.2,0.03 0.1,0.02 0.1,0.02 0.2,0.02 0.1,0.01 h 0.1 l 0.1,0.01 h 0.1 0.1 0.1 v 1.55 c -1.2,-0.1 -2.6,-0.14 -3.7,-0.14 -1,0 -3.3,0.09 -4.4,0.14 v -1.55 c 1.6,-0.05 2.4,-0.89 2.4,-2.14 0,-0.5 -0.1,-0.59 -0.3,-1.19 l -5.1,-12.26 -5.5,13.4 c -0.2,0.5 -0.3,0.71 -0.3,0.91 0,1.28 1.8,1.28 2.8,1.28 v 1.55 c -1.3,-0.05 -4.6,-0.14 -5.4,-0.14 -1.4,0 -3.4,0.04 -4.9,0.14 v -1.55 c 2.4,0 3.4,0 4.1,-1.73 l 7.4,-18.19 c -0.2,-0.64 -0.9,-2.3 -1.2,-2.938 -1.1,-2.734 -2.5,-6.188 -5.7,-6.188 -0.2,0 -1.4,0 -2.3,0.907 1.5,0.203 1.9,1.297 1.9,2.093 0,1.297 -0.9,2.094 -2.1,2.094 -1,0 -2.1,-0.656 -2.1,-2.14 0,-2.25 2.1,-4.047 4.6,-4.047 3.1,0 5.2,2.843 6.4,5.687 z"
           inkscape:connector-curvature="0"
           style="fill:#000000;stroke-width:0" /><path
           id="path1202"
           d="m 1642.2,112.03 0.1,-0.02 0.1,-0.02 0.2,-0.03 0.1,-0.04 0.2,-0.04 0.2,-0.04 0.2,-0.05 0.2,-0.06 0.2,-0.06 0.2,-0.07 0.2,-0.08 0.2,-0.08 0.3,-0.1 0.2,-0.1 0.2,-0.11 0.2,-0.12 0.2,-0.14 0.2,-0.14 0.2,-0.15 0.2,-0.16 0.2,-0.18 0.2,-0.19 0.2,-0.19 0.1,-0.22 0.2,-0.22 0.1,-0.12 v -0.12 l 0.1,-0.13 v -0.12 l 0.1,-0.14 v -0.13 l 0.1,-0.14 v -0.14 -0.15 l 0.1,-0.15 v -0.15 -0.16 -0.17 -0.16 c 0,-2.53 -1.7,-4.53 -5.6,-4.53 -4.2,0 -6,2.84 -7,7.07 -0.1,0.64 -0.1,0.85 -0.6,0.85 -0.7,0 -0.7,-0.35 -0.7,-1.25 V 103 c 0,-0.84 0,-1.19 0.5,-1.19 0.3,0 0.3,0.05 1.3,1 0.1,0.1 0.1,0.19 1,1.14 2.2,-2.09 4.4,-2.14 5.5,-2.14 5.7,0 8,3.35 8,6.92 0,2.65 -1.5,4.15 -2.1,4.74 -1.6,1.59 -3.6,2 -5.7,2.39 -2.8,0.55 -6.1,1.2 -6.1,4.09 0,1.74 1.3,3.78 5.6,3.78 5.4,0 5.7,-4.48 5.8,-6.03 0,-0.45 0.5,-0.45 0.6,-0.45 0.6,0 0.6,0.25 0.6,1.2 v 5.03 c 0,0.85 0,1.19 -0.5,1.19 -0.3,0 -0.3,0 -1,-0.59 -0.2,-0.2 -0.7,-0.64 -0.8,-0.8 -1.9,1.39 -4,1.39 -4.7,1.39 -6.1,0 -8,-3.33 -8,-6.12 0,-1.74 0.8,-3.14 2.1,-4.24 1.6,-1.29 3,-1.59 6.6,-2.28 z"
           inkscape:connector-curvature="0"
           style="fill:#000000;stroke-width:0" /><path
           id="path1204"
           d="m 1657.4,113.22 v 0.38 0.36 0.36 0.35 0.34 l 0.1,0.34 v 0.32 0.32 l 0.1,0.31 v 0.3 l 0.1,0.29 0.1,0.29 0.1,0.55 0.1,0.51 0.2,0.49 0.2,0.46 0.2,0.43 0.2,0.4 0.2,0.38 0.2,0.35 0.3,0.32 0.2,0.31 0.3,0.27 0.3,0.26 0.2,0.23 0.3,0.21 0.3,0.19 0.3,0.16 0.2,0.15 0.3,0.13 0.3,0.12 0.3,0.09 0.3,0.08 0.2,0.06 0.3,0.05 0.3,0.03 0.2,0.02 0.3,0.01 c 0.4,0 3.6,-0.05 5.3,-1.85 -2,-0.15 -2.3,-1.64 -2.3,-2.29 0,-1.3 0.9,-2.3 2.3,-2.3 1.3,0 2.3,0.86 2.3,2.34 0,3.39 -3.8,5.33 -7.7,5.33 -6.2,0 -10.8,-5.37 -10.8,-11.55 0,-6.37 5,-11.31 10.7,-11.31 6.7,0 8.3,5.99 8.3,6.47 0,0.5 -0.5,0.5 -0.6,0.5 -0.5,0 -0.6,-0.19 -0.7,-0.5 -1.4,-4.62 -4.7,-5.22 -6.5,-5.22 -2.6,0 -7,2.14 -7,10.16 z"
           inkscape:connector-curvature="0"
           style="fill:#000000;stroke-width:0" /><path
           id="path1206"
           d="m 1697.1,113.02 v 0.59 l -0.1,0.59 v 0.58 l -0.1,0.57 -0.2,0.56 -0.1,0.55 -0.2,0.54 -0.2,0.53 -0.2,0.51 -0.3,0.5 -0.2,0.49 -0.3,0.48 -0.3,0.45 -0.4,0.44 -0.3,0.43 -0.4,0.4 -0.4,0.39 -0.4,0.37 -0.4,0.35 -0.4,0.32 -0.5,0.31 -0.4,0.28 -0.5,0.26 -0.5,0.24 -0.5,0.21 -0.5,0.18 -0.5,0.16 -0.5,0.13 -0.6,0.11 -0.5,0.07 -0.6,0.05 -0.5,0.01 -0.1,-1.09 c 2.2,0 4.3,-1.1 5.6,-3.24 1.3,-2.14 1.3,-5.03 1.3,-6.92 0,-1.8 0,-4.48 -1.1,-6.67 -1,-2.25 -3.2,-3.69 -5.7,-3.69 v 0 c -2.2,0 -4.4,1.05 -5.7,3.33 -1.3,2.2 -1.3,5.23 -1.3,7.03 0,1.94 0,4.63 1.2,6.83 1.4,2.28 3.7,3.33 5.7,3.33 l 0.1,1.09 c -6.3,0 -11.1,-5.42 -11.1,-11.65 0,-6.43 5.2,-11.21 11,-11.21 6.1,0 11.1,4.88 11.1,11.21 z"
           inkscape:connector-curvature="0"
           style="fill:#000000;stroke-width:0" /><path
           id="path1208"
           d="m 1706.9,118.91 v 5.47 l -6.9,-0.55 v -1.55 c 3.4,0 3.8,-0.34 3.8,-2.78 v -13.36 c 0,-2.23 -0.5,-2.23 -3.8,-2.23 v -1.55 c 1.9,0.05 4.2,0.16 5.6,0.16 2,0 4.4,0 6.4,-0.16 v 1.55 h -1.1 c -3.7,0 -3.8,0.54 -3.8,2.34 v 7.67 c 0,4.92 2.1,9.36 5.9,9.36 0.4,0 0.5,0 0.6,-0.05 -0.2,-0.04 -1.2,-0.64 -1.2,-1.93 0,-1.41 1.1,-2.14 2.2,-2.14 0.9,0 2.1,0.59 2.1,2.18 0,1.6 -1.5,3.04 -3.7,3.04 -3.6,0 -5.4,-3.33 -6.1,-5.47 z"
           inkscape:connector-curvature="0"
           style="fill:#000000;stroke-width:0" /><path
           id="path1210"
           d="m 1726.9,124.38 -6.9,-0.55 v -1.55 c 3.2,0 3.7,-0.3 3.7,-2.73 v -13.41 c 0,-2.23 -0.6,-2.23 -3.9,-2.23 v -1.55 c 1.6,0.05 4.3,0.16 5.4,0.16 1.8,0 3.5,-0.11 5.2,-0.16 v 1.55 c -3.3,0 -3.5,0.25 -3.5,2.18 z"
           inkscape:connector-curvature="0"
           style="fill:#000000;stroke-width:0" /><path
           id="path1212"
           d="m 1727.1,133.05 v 0.14 0.15 0.14 0.14 0.13 l -0.1,0.13 v 0.13 l -0.1,0.12 v 0.12 l -0.1,0.12 -0.1,0.11 v 0.1 l -0.1,0.11 -0.1,0.09 -0.1,0.1 -0.1,0.09 -0.1,0.08 v 0.08 l -0.1,0.07 -0.2,0.07 -0.1,0.07 -0.1,0.06 -0.1,0.05 -0.1,0.05 -0.1,0.04 -0.1,0.04 -0.2,0.03 -0.1,0.03 -0.1,0.02 -0.1,0.02 h -0.2 l -0.1,0.01 c -1.6,0 -2.6,-1.35 -2.6,-2.64 0,-1.35 1,-2.64 2.6,-2.64 1.4,0 2.6,1.04 2.6,2.64 z"
           inkscape:connector-curvature="0"
           style="fill:#000000;stroke-width:0" /><path
           id="path1214"
           d="m 1737.4,119.5 v -13.36 c 0,-2.23 -0.5,-2.23 -3.9,-2.23 v -1.55 c 1.8,0.05 4.3,0.16 5.6,0.16 1.3,0 3.9,-0.11 5.6,-0.16 v 1.55 c -3.3,0 -3.9,0 -3.9,2.23 v 9.17 c 0,5.19 3.6,7.97 6.8,7.97 3.1,0 3.6,-2.69 3.6,-5.53 v -11.61 c 0,-2.23 -0.5,-2.23 -3.8,-2.23 v -1.55 c 1.7,0.05 4.3,0.16 5.6,0.16 1.3,0 3.9,-0.11 5.6,-0.16 v 1.55 c -2.6,0 -3.9,0 -3.9,1.5 v 9.51 c 0,4.28 0,5.83 -1.6,7.61 -0.7,0.86 -2.3,1.85 -5.2,1.85 -3.6,0 -6,-2.15 -7.3,-5.22 v 5.22 l -7.1,-0.55 v -1.55 c 3.5,0 3.9,-0.34 3.9,-2.78 z"
           inkscape:connector-curvature="0"
           style="fill:#000000;stroke-width:0" /><path
           id="path1216"
           d="m 1764.9,108.98 v 0.03 0.02 0.04 0.03 0.04 0.05 0.05 0.06 0.05 0.07 l 0.1,0.06 v 0.07 0.07 0.08 0.08 0.08 0.08 l 0.1,0.09 v 0.08 0.09 l 0.1,0.09 v 0.09 0.09 l 0.1,0.1 v 0.09 l 0.1,0.1 v 0.09 l 0.1,0.1 0.1,0.09 v 0.1 l 0.1,0.09 0.1,0.1 c 1.9,-1.39 4,-1.55 4.9,-1.55 v 1.14 c -4.3,0 -4.3,4.99 -4.3,6.14 0,1.35 0,2.94 0.8,4.17 0.4,0.61 1.5,2 3.5,2 4.3,0 4.3,-4.98 4.3,-6.12 0,-1.34 0,-2.94 -0.8,-4.19 -0.4,-0.59 -1.5,-2 -3.5,-2 v 0 -1.14 c 4.6,0 8.1,3.44 8.1,7.28 0,1.85 -0.8,3.69 -2.1,4.83 1.8,1.69 3.6,1.94 4.5,1.94 0.1,0 0.4,0 0.5,-0.05 -0.5,-0.2 -0.8,-0.75 -0.8,-1.34 0,-0.85 0.7,-1.44 1.5,-1.44 0.5,0 1.4,0.34 1.4,1.48 0,0.85 -0.6,2.44 -2.5,2.44 -1,0 -3.2,-0.3 -5.3,-2.33 -2.1,1.64 -4.2,1.79 -5.3,1.79 -4.6,0 -8.1,-3.44 -8.1,-7.27 0,-2.19 1.1,-4.09 2.4,-5.14 -0.7,-0.74 -1.6,-2.39 -1.6,-4.13 0,-1.54 0.7,-3.43 2.2,-4.43 -3,-0.85 -4.6,-2.99 -4.6,-4.988 0,-3.578 5,-6.328 11.1,-6.328 v 1.14 c -5,0 -8.5,2.547 -8.5,5.188 0,2.298 1.9,4.138 4.1,4.278 h 3 c 4.2,0 9.8,0 9.8,-4.278 0,-2.688 -3.5,-5.188 -8.4,-5.188 v 0 -1.14 c 5.8,0 11,2.547 11,6.422 0,1.754 -0.7,4.294 -3.2,5.684 -2.7,1.39 -5.6,1.39 -8.6,1.39 -1.2,0 -3.4,0 -3.7,0.05 -1.6,0.2 -2.7,1.75 -2.7,3.34 z"
           inkscape:connector-curvature="0"
           style="fill:#000000;stroke-width:0" /><path
           id="path1218"
           d="m 2052.2,90.406 v 0.026 0.027 0.014 0.014 0.015 0.016 0.017 0.017 0.019 0.021 0.022 0.023 0.025 l -0.1,0.027 v 0.03 0.031 0.034 l -0.1,0.036 v 0.019 0.02 0.021 0.021 l -0.1,0.022 v 0.022 0.024 0.024 0.025 l -0.1,0.026 v 0.026 0.028 0.028 l -0.1,0.029 v 0.03 0.032 l -0.1,0.032 v 0.032 0.034 l -0.1,0.035 v 0.036 0.037 l -0.1,0.038 V 91.5 c -6.2,6.281 -7.8,15.69 -7.8,23.31 0,8.67 1.9,17.35 8,23.57 0.6,0.6 0.6,0.7 0.6,0.85 0,0.35 -0.1,0.49 -0.4,0.49 -0.5,0 -5,-3.38 -8,-9.7 -2.5,-5.49 -3.1,-11.02 -3.1,-15.21 0,-3.89 0.5,-9.9 3.3,-15.544 3,-6.125 7.3,-9.36 7.8,-9.36 0.3,0 0.4,0.141 0.4,0.5 z"
           inkscape:connector-curvature="0"
           style="fill:#000000;stroke-width:0" /><path
           id="path1220"
           d="m 2069.5,119.89 0.4,0.13 0.4,0.15 0.3,0.15 0.4,0.17 0.3,0.18 0.4,0.19 0.3,0.2 0.3,0.22 0.4,0.22 0.3,0.23 0.2,0.24 0.3,0.25 0.3,0.26 0.3,0.27 0.2,0.27 0.2,0.29 0.3,0.29 0.2,0.3 0.2,0.3 0.2,0.32 0.1,0.32 0.2,0.32 0.2,0.33 0.1,0.34 0.1,0.34 0.1,0.34 0.1,0.35 0.1,0.36 v 0.36 l 0.1,0.36 v 0.36 0.37 c 0,4.08 -4.4,6.88 -9.2,6.88 -5,0 -8.8,-3 -8.8,-6.78 0,-1.65 1.1,-2.6 2.6,-2.6 1.5,0 2.5,1.1 2.5,2.55 0,2.48 -2.4,2.48 -3.1,2.48 1.5,2.44 4.8,3.1 6.6,3.1 2.1,0 4.8,-1.1 4.8,-5.58 0,-0.61 -0.1,-3.49 -1.4,-5.69 -1.5,-2.39 -3.2,-2.53 -4.4,-2.59 -0.4,-0.05 -1.6,-0.14 -2,-0.14 -0.3,-0.05 -0.7,-0.1 -0.7,-0.6 0,-0.54 0.4,-0.54 1.2,-0.54 h 2.2 c 4.1,0 5.9,-3.39 5.9,-8.28 0,-6.77 -3.4,-8.22 -5.6,-8.22 -2.2,0 -5.9,0.84 -7.6,3.78 1.7,-0.24 3.3,0.86 3.3,2.75 0,1.79 -1.4,2.78 -2.9,2.78 -1.1,0 -2.7,-0.69 -2.7,-2.89 0,-4.53 4.6,-7.81 10,-7.81 6.1,0 10.6,4.53 10.6,9.61 0,4.09 -3.1,7.96 -8.3,9.01 z"
           inkscape:connector-curvature="0"
           style="fill:#000000;stroke-width:0" /><path
           id="path1222"
           d="m 2094.4,114.81 v 0.37 0.39 0.39 0.41 0.84 l -0.1,0.88 -0.1,0.92 -0.1,0.95 -0.1,0.97 -0.2,1.01 -0.2,1.02 -0.2,1.03 -0.3,1.05 -0.3,1.06 -0.3,1.07 -0.4,1.07 -0.2,0.53 -0.3,0.53 -0.2,0.53 -0.3,0.53 c -2.9,6.12 -7.2,9.36 -7.7,9.36 -0.3,0 -0.5,-0.19 -0.5,-0.49 0,-0.15 0,-0.25 0.9,-1.15 4.9,-4.92 7.8,-12.85 7.8,-23.27 0,-8.51 -1.9,-17.279 -8.1,-23.56 -0.6,-0.594 -0.6,-0.703 -0.6,-0.844 0,-0.297 0.2,-0.5 0.5,-0.5 0.5,0 4.9,3.391 7.9,9.719 2.5,5.465 3.1,10.995 3.1,15.185 z"
           inkscape:connector-curvature="0"
           style="fill:#000000;stroke-width:0" /></g>    </g>
  </g>
</svg>
